<?xml version="1.0" encoding="UTF-8"?>
<svg xmlns="http://www.w3.org/2000/svg" version="1.1" viewBox="0 0 600 600">
  <!-- Generator: Adobe Illustrator 30.1.0, SVG Export Plug-In . SVG Version: 2.1.1 Build 136)  -->
  <g id="Layer_1">
    <path d="M20.6,383.5c-2.3-29,1.7-58.4,10.1-86,12.6-39.5,37-75.1,69.5-100.9,22.8-18.1,48.1-33.6,74.9-44.7,26-10.4,53.7-15.6,81.5-18.4,9.2-.8,17.9-1.1,27.3-1,8,0,21.6.7,13.2,11.3-6.5,8.4-14.7,19.2-22.3,26.9-11.4,11.1-29.2,10.3-43.9,14.5-30.9,6.7-57.8,24.6-82.6,43.4-25.1,19.3-40.7,36.7-53,66.2-12.4,29.7-18.3,62.5-10.7,94.2,6.9,31.2,20.7,61.3,40.9,86.1,8.5,9.7,19.1,18.5,29.1,26.6,11.5,8.9,25.1,16.6,38.3,23.2,22.7,10.9,47.5,18.8,72.7,21.1,26.3,1.8,52.4.7,78.1-3.7,46.2-7,102.9-41.6,132.5-77.8,6.9-8.6,15.3-18.9,21.7-27.5,7.3-9.8,12.8-19.8,18.1-30.7,12.1-24.1,15.7-47.7,14.6-74.5-.5-13.4-1.3-27.1-2.7-40.4-.3-7-2.9-19.8-2.2-25,.1-.6.3-1.4.9-1.5.3,0,.6.2,1,.6,3.1,4.1,5.6,10.8,7.7,15.9,4,10.4,7.6,21.6,10.2,32.4,5.4,20.4,6.7,42.1,4.9,63-4.1,35-14.3,69.9-32.5,100.2-12.8,21.3-30.5,39.4-49.4,55.3-35.4,30-71.1,47.9-116.3,58.4-36.5,8.7-74.5,8.9-111.6,4.2-48.5-6.5-94.3-27.8-132.3-58.4-9.6-8-19.1-16.3-27.8-25.2-32.6-35.1-55.1-79.9-60-127.6v-.2Z"/>
  </g>
  <g id="ring-1">
    <path d="M475,311.1c3.2-6.7,6.4-13.7,11.3-19.1,6.9-7.9,15-6.1,18.8,1.8,2.8,5.6,3.6,11.4,3.6,18-.9,26.9-7.5,54-16.5,79.8-20.7,58.9-65.4,100.6-124,120.2-27.6,9.6-57,14.6-86.3,12.5-46.8-3.3-92.1-25.1-125.2-58.6-27.5-27.5-42.4-65.8-44.1-104.5-1.3-24.9,4.3-50.1,16.6-71.7,9.2-17,25.7-36.2,40.5-46.3,24.4-16.1-.5,20.3-4.2,28.4-19.8,36.4-21,81.8-2.6,118.9,30.4,61.9,107.5,94.8,173.6,78.6,60-13.7,94.9-56.2,119.5-110"/>
  </g>
  <g id="brush">
    <path d="M577.7,4.4c18.1,4.7,17.5,22.5,11.4,36.9-11.4,29.2-29.8,45.4-53.2,64.9-22.2,19.6-56.8,35.3-58.6,68.7-.4,11,5.1,21.2,12.4,29.2,3.7,4.2,8.8,8.5,11.4,12.5,3.3,4.8,2.2,11.4-2.3,15.4-8.9,7.9-17.5.8-25.5-4.6-27.5-18.5-55-37.2-82.6-55.7-4.4-3-8.7-5.8-13.1-8.8-5.3-3.7-11.6-7.3-16.2-11.8-8.6-8.6-.6-18.5,10.1-17.6,7.6.6,14.4,5.1,21.7,7.7,8,3.1,16.4,4.7,25,4.2,23.5-.7,41.5-15,52.3-35.3,4.9-9,8.9-18.4,14.1-27.1,9.5-15.8,18.9-32.1,31.2-45.7,5.4-5.8,11.6-11,17.9-15.9,12.4-9.4,27.2-21,43.7-16.8h.2Z"/>
    <path d="M347.1,357.5c-7.4-.5-15-1.7-22.3-.9-4.7.5-9.4,1.4-14.1,1.5-9.7,0-18.8-1.1-27.8-4.4-4.2-1.6-7.9-3.5-12.4-4.1-8.3-1.3-17.3.6-25.7-.8-10.3-1.8-14-5.7-19.7-13.9-10-10.7-10.9-13.5-5.7-27.9,1.7-4.7,4-10.3,6.3-13.8,4.5-7.1,10.6-13.3,16-19.8,17.9-20.5,36.8-42.6,53.9-62.5,4.5-5.2,9.1-10.6,14.2-16.5,8.5-9.8,10.4-14.7,22.8-5.3,27.6,18.7,55.6,37.4,83.2,56.2,9.8,6.6,19.4,13.1,29.2,19.7,4.2,3,11.2,6.5,12,11.5.2,2.2-1.5,4.1-3.4,6.7-15.4,20.1-30.3,40.1-44,57.8-4.4,5.5-8.7,12.1-13.1,16.6-2.6,2.3-5.2,2.5-8.5,2.4-3.2,0-6.7-.2-9.9-.4-10.5-.5-20.6-1.4-30.8-2.2h-.2Z"/>
    <polygon points="349.9 149.1 487.6 243.5 462.8 271.2 325.1 176.8 349.9 149.1"/>
  </g>
</svg>