<?xml version="1.0" encoding="UTF-8"?>
<svg id="Layer_1" xmlns="http://www.w3.org/2000/svg" version="1.1" viewBox="0 0 250 125">
  <!-- Generator: Adobe Illustrator 29.2.1, SVG Export Plug-In . SVG Version: 2.1.0 Build 116)  -->
  <defs>
    <style>
      .st0 {
        fill: #fadd18;
      }

      .st1 {
        fill: #42a74c;
      }

      .st2 {
        fill: #36a0d6;
      }

      .st3 {
        fill: #e92c31;
      }

      .st4 {
        fill: #705c86;
      }
    </style>
  </defs>
  <polygon points="0 125 44.9 125 44.9 116 39.9 116 106.2 53.4 172.7 116 167.6 116 167.6 125 212.6 125 211.8 123.4 201.1 121.2 106.2 30.5 11.6 121.4 .1 123.5 0 125"/>
  <rect x="92" y="82.4" width="12.9" height="12.8" rx="1.3" ry="1.3"/>
  <rect x="107.7" y="82.4" width="12.9" height="12.8" rx="1.3" ry="1.3"/>
  <rect x="92" y="97.2" width="12.9" height="12.8" rx="1.3" ry="1.3"/>
  <rect x="107.7" y="97.2" width="12.9" height="12.8" rx="1.3" ry="1.3"/>
  <path class="st3" d="M18.2,101.2l22.4-21.6V10.3c0-5.6-5-10.3-11-10.3h-.7c-6.1,0-11,4.6-11,10.3"/>
  <path class="st0" d="M66.7,10.3c0-5.6-5-10.3-11-10.3h-.7c-6.1,0-11,4.6-11,10.3v66l22.7-21.9V10.3Z"/>
  <path class="st1" d="M92.9,10.3c0-5.6-5-10.3-11-10.3h-.7c-6.1,0-11,4.6-11,10.3v40.8l22.7-21.9V10.3Z"/>
  <path class="st2" d="M106.4,16.1l3.8,3.7,8.9,8.6V10.3c0-5.6-5-10.3-11-10.3h-.7c-6.1,0-11,4.6-11,10.3v15.5l6.2-6,3.8-3.7Z"/>
  <path class="st4" d="M145.3,10.3c0-5.6-5-10.3-11-10.3h-.7c-6.1,0-11,4.6-11,10.3v21.3l22.7,21.8V10.3Z"/>
  <path d="M249.3,34.2c-.9-2.8-3.4-2.8-5.9-2.9-3.6-.6-.3-5.7-3.6-7.5-2.6-1.5-5.5-.5-8.3-.6-21.8-.2-43.8-.5-65.5-.5-1.5,0-3.6.2-4.6.8-2.1,1-2.3,3-2.6,5.8,0,.4-.1.9-.3,1.3-.2.4-.7.5-1.2.6-2.1.2-4.5.8-4.8,2.9-.4,2.6-.4,11.2-.2,14.2,0,1.1.7,2.8,1.8,3.4,2.8,1.2,30,12.4,38.8,15.9.6.3,1.6.5,2.2,1.1.6.6-.6,1.3-2,1.4s-1.6.5-1.8,1.9c-.3,2.5-.4,6.5-.3,9.5l.5,14.7,12.8,11.1c1-.5,1.5-1.5,1.4-2.5-.5-7.1-.5-14.2-.8-21.3.1-3.9-.6-7.4-.8-11.3,0-1.2-.5-2.2-1.9-2.3-.6,0-1.5,0-1.8,0-.7,0-.6-.6-.6-1.2,0-2.5-.6-4.1,1-5.8.6-.7,2-1,3-1.2,12.2-3.2,27.5-3.9,39.8-6.9,3.1-.7,6-1.6,6.3-4.7.6-4.1.5-12.6-.3-16ZM245.8,48.7c0,.8-.3,1.7-.9,2.3-1.1.9-2.7,1-4.1,1.3-12.5,2.7-28.3,3.6-40.2,6.8-3.2.8-5.1,2.1-5.1,5.1,0,.2,0,.8-.2.7-8.5-3.4-24.4-9.8-33.6-13.5-2.3-.9-3.8-1.5-4.3-1.7-.7-.4-1.7-1.2-1.8-2-.3-1-.9-12.3.6-13.2,1.3-.8,3.4-.1,3.1,1.5-.5,2.7-.9,7.4,3.1,8,3.2,0,57.6,0,75.6,0,1.1-.1,2.5-.9,3.2-1.7.6-.7.4-.9.5-1.8,0-1.5,0-3.1,0-4.6,0-.8,0-1.2.3-1.4h0c1.3-.5,3.4,0,3.8,1.1.2.5.2,1,.2,1.5.2,3,.1,9.1,0,11.6Z"/>
</svg>