<?xml version="1.0" encoding="UTF-8"?>
<svg id="Layer_1" xmlns="http://www.w3.org/2000/svg" version="1.1" viewBox="0 0 500 600">
  <!-- Generator: Adobe Illustrator 29.2.1, SVG Export Plug-In . SVG Version: 2.1.0 Build 116)  -->
  <defs>
    <style>
      .st0 {
        fill: #fff;
      }
    </style>
  </defs>
  <g id="al7A42">
    <g>
      <path d="M60.1,442.1c.5,0,.8-.2,1.3-.2,9,0,18.1,2.4,27.8,1.9s6.4-.5,6.9-1,.6-.9.3-1.2c-.5-.7-13.1-4.3-15.3-5.1-13.5-4.9-36.6-17.4-46.9-27.4-.5-.4-1-.7-.8-1.5,3.5.3,6.9,1.2,10.4,1.6,2.9.3,7,.9,9.7.9s3.1-.4,2.1-2.2-12.9-6.8-14.9-8c-7.9-4.4-19.6-10.7-26.4-16.4-.6-.5-1.4-1-1.3-1.9,23.2-3.1,46.1-11,64.8-25.3,15.5-11.8,28.8-28,40.1-43.9,6.2-8.7,12.9-21.5,19.6-29.2.8-.9,1.8-2,3.2-1.6,48.7,36.2,96.3,74,144.4,110.9,1.5,1.6.7,2.8-.3,4.4-8.5,14.4-26.9,34.6-39.4,45.9-19,17.2-40.4,26.3-39.9,56.8.3,14.5,11.2,33.9,8.4,46.5-3.2,14.2-22.3,14-23.2-2.4-1-17.7,13-35.1,7.6-53.4-5.4-18.2-27.2-14-35.4-.2-17.8,30,17.7,66.8,7.3,93.8-6.3,16.5-30.8,17.3-35.7-.5-5.1-18.4,8.8-39.7,12.4-57.6,4.2-20.7-.4-40-19.4-51.2-9.3-5.4-26.3-8.8-32.8,2.3-8.6,14.6,11.6,25.8,5.6,41.7-4.1,10.7-20.5,11.6-25.4,1-5.4-11.6,6.3-23.5,8.4-34.6,4.1-21.5-9.4-28.8-22.7-41.8l-.4-1.5ZM147.9,329.7c-.9,0-1.7.3-2.3.8-2.6,2.3-5.9,7.4-8.5,10.2-20.1,21.7-45.9,39.8-75.4,45.4-1.4,2.5,5.5,1.8,7.1,1.7,31.2-1.8,57.3-20.1,73.5-46.1,1-1.6,6.6-10.9,5.6-12ZM184.2,386.3c1.7-2.4,6.5-9.7,7.2-12.1s.4-2-.9-2.1c-9.3,10.4-18.5,20.4-29.3,29.2-15.6,12.8-33,23-52.5,28.4l-.2,1.7c.5.9,7.9-.2,9.4-.4,27.4-4,50.9-22.3,66.3-44.6ZM222.3,392c-20.2,21.8-44,40.5-71.8,51.6-4.5,1.8-9.9,3.1-14.1,5-.8.3-2.1.7-2.1,1.7.3,1.5,8.4,0,9.8-.3,27.8-4.9,54.7-23.1,71.8-45.3s6.5-8.4,7.2-10.6.5-1.9-.8-2.1Z"/>
      <path d="M447.1,112c-18.6,22.8-41.4,44.4-63,64.4-15.2,14.1-32.4,27.9-46.7,42.8-24,25.1-23.9,51.3-12.2,82.6,4.7,12.6,13.2,22.9,5.2,36.4-1.4,2.3-4.5,7.4-7.5,5.8-32.8-24.3-64.8-49.7-97.1-74.7-12.8-9.9-25.9-19.3-38.5-29.3-1.7-1.4-9.7-7.3-10-8.6-.9-3.3,5.7-8,8.3-9.1,11.6-5.1,35.4,2.1,49,2.8,43,2.1,59.8-23.5,79.2-56.6,17.8-30.3,33.4-61.5,53.9-90.3,18.5-26,51.6-63.9,83-73,24.2-7,38.5,6,36,30.5s-23.3,56.3-39.6,76.4ZM438.7,25.3c-1.4.2-6.6,4-8.1,5.1-19.1,13.8-37.7,37.5-51.5,56.6-26,36-46.3,76.3-72.3,112.2-12.3,17-25.9,31.3-46.9,37.1s-38.9,1.8-57.2-3.7l-1,.2-.2,1.1c1.3,2.5,17.9,7.8,21.4,8.7,45,10.9,68.8-12.3,93.5-45.2,37.1-49.5,66.4-104.6,106.3-152.4,5.5-6.6,11.6-12.7,17.4-19.1-.5-.6-.6-.7-1.4-.6Z"/>
      <path d="M169.4,242.4c1-.1,1.9.6,2.6,1l142.9,110.2c1.1,1.2,1,1.9.3,3.3-1.5,3.3-7.1,9.7-9.5,13s-8,11.2-10.1,12.8-3.4-.3-5.7-1.5l-141.3-109.4c-1.1-1.7.4-3.6,1.4-5,5.3-7.9,12.4-15.5,17.7-23.4.4-.4,1-.9,1.6-1Z"/>
      <path class="st0" d="M147.9,329.7c1,1.1-4.6,10.4-5.6,12-16.2,26-42.3,44.2-73.5,46.1-1.7.1-8.6.8-7.1-1.7,29.6-5.6,55.3-23.7,75.4-45.4,2.6-2.8,5.9-7.9,8.5-10.2.7-.6,1.4-.9,2.3-.8Z"/>
      <path class="st0" d="M184.2,386.3c-15.4,22.3-38.9,40.7-66.3,44.6s-8.9,1.3-9.4.4l.2-1.7c19.6-5.4,36.9-15.6,52.5-28.4,10.8-8.9,20-18.9,29.3-29.2,1.3.2,1.1,1.1.9,2.1-.7,2.4-5.5,9.7-7.2,12.1Z"/>
      <path class="st0" d="M222.3,392c1.3.2,1.2,1.1.8,2.1-.8,2.1-5.6,8.5-7.2,10.6-17.1,22.1-43.9,40.4-71.8,45.3-1.4.3-9.5,1.9-9.8.3,0-1,1.4-1.3,2.1-1.7,4.2-1.9,9.6-3.2,14.1-5,27.8-11.1,51.6-29.8,71.8-51.6Z"/>
      <path class="st0" d="M438.7,25.3c.8-.1.9,0,1.4.6-5.8,6.4-11.8,12.5-17.4,19.1-39.9,47.8-69.2,102.9-106.3,152.4-24.7,32.9-48.5,56.1-93.5,45.2-3.5-.8-20.1-6.1-21.4-8.7l.2-1.1,1-.2c18.3,5.5,38.4,8.8,57.2,3.7s34.6-20,46.9-37.1c26-35.9,46.2-76.2,72.3-112.2,13.8-19.1,32.4-42.8,51.5-56.6s6.7-4.9,8.1-5.1Z"/>
    </g>
  </g>
</svg>