<svg xmlns="http://www.w3.org/2000/svg"
     version="1.1"
     viewBox="0 0 119 139">

  <g id="Layer_1"
     display="none">
    <g>
      <g>
        <path d="M25.7,101.6c-3.3,1.7-8.9-7.5-6.1-9.6,6.5-5,14.6-10,21.8-13.5s8.5,7.7,5.9,9.6c-6.4,5-13.9,9.6-21.6,13.5Z" />
        <path d="M50.8,126.2c-2.7-3.4-4.4-7.3-5.4-10.7-2.8-9.3-9.2-12.1-19.5-11.3,8.3-5.5,14.9-9.6,23.3-14.4-14.3,20.6,16.6,27.7,7.6,36.6s-5,1.1-6.1-.2ZM51.3,119.1c-.8.5-.7,3.3,0,4.1s2.8,1.5,3.4.7.9-2.8.7-3.7-2.8-1.8-4-1.1Z" />
      </g>
      <g>
        <path d="M21.9,66c-2.3-8.7-4.7-15.7,1-22.3.9,5.8,1.6,10.6,2.6,15.4,1-7.8-3.7-15.4,3.7-21.2-.7,11.8,3.4,24.9,8.6,32.4s-.3,6.3-1.6,5.7l-4.7-2.4c-.1,3.3-.4,6.7-2.6,7.9s-5.7.7-8.2-.5l-1.6-.7c-.4-.2-1.5-.2-1.4.2l.5,2.5.4,1.9c0,.4,0,.6-.2,1-1.6,5.8-20.5-30-1.8-56.9C27,14.1,43.5,2.7,63.9,4.3c21,1.6,41.3,17,47.1,38.3-4.2-.8-4.4-6.4-7.7-8.5.7,8.9,5.3,16,3.4,25.4l-4.4-9.6-.6,6.2c-5.8-12.9-13.9-25.1-27.3-31.2-25.3-11.5-55.8,3.9-62.3,30.8s1.8,14.9,7.1,20c-1.9-6.3-4.1-11.9-3.4-19.1l6.1,9.5Z" />
        <path d="M73.4,100.4c1-6.3,3.4-11.6,6.5-17.2,6.8-12.5,5.5-26.2-2.6-37.5s-25.9-17.7-42.7-11.2c6.8-7.9,17.5-9.9,27.3-8.5,19.6,2.8,35.3,20,35.7,39.9.2,11-4.3,20.6-10.9,29.4l-.4-5.3c-4.3,4-6.8,7-12.8,10.4Z" />
      </g>
    </g>
  </g>
  <g id="brush">
    <g>
      <g>
        <path d="M27.7,112.8c-3.7,1.2-7.4-5.9-6.7-8.5.1-.6.5-1,1-1.4,6.5-4.9,14.4-9.8,21.5-13.3,3.3-1.3,8.7,8.2,5.7,9.9-6.3,4.9-13.7,9.4-21.3,13.3h-.1Z" />
        <path d="M52.8,137.4c-6.6-7.8-4.4-18.6-15.7-21.4-2.9-.8-6-.7-9.1-.6.7-.7,2.1-1.4,3-2,6.7-4.4,12.8-8.1,19.9-12.2,0,0,.2,0,.2,0-.6,1-1.2,2-1.7,3-4,7.1-1.4,14.3,3.8,19.7,4.7,5.3,10,9.3,6,13.6-1.2,1.4-5.3,1.2-6.3,0h0ZM53.3,130.3c-.8.5-.7,3.3,0,4.1s2.8,1.5,3.4.7.9-2.8.7-3.7-2.8-1.8-4-1.1Z" />
      </g>
      <path d="M21,86.7c-1.7-6.1-3.9-11.6-3.3-18.5,0-.2,0-.3,0-.4.5.6,1.2,1.9,1.9,2.8,1.2,1.9,3.2,5,4.2,6.5-2.1-8.3-4.5-15.5.6-21.8.2-.1.4-.4.5,0,.8,5,1.4,9.6,2.4,14.4,0,.4.1.3.2,0,.7-7.4-3.3-14.6,3.1-20.2.2-.2.4-.3.5-.1.1.6,0,1.5,0,2.2,0,5.2.8,10.5,2.2,15.5,1.6,5.6,3.9,10.7,6.4,14.5,1.1,1.6.2,5.1-.9,5.8-.5.2-.6,0-1.2-.3-.9-.4-3.5-1.8-4-2,0,0,0,0-.1,0-.1,1.3-.2,2.9-.5,4.2-.6,4.8-6.1,5.2-9.8,3.4-1-.3-2.1-1.3-3.2-1-.3.1-.3.4-.2.9,0,.4.2,1.1.3,1.5.1.7.3,1.4.4,2.1.1.5.2,1.2-.3,1.4-5.6,3.4-11.8-26.8-7.8-32.2" />
    </g>
  </g>
  <g id="inner">
    <path d="M81.2,99.6c-3.4-1.1,4.7-16.3,5.3-19.7,4-11.8,1.6-22.8-4.2-32.9-2.6-4.5-5.7-8.8-10.6-10.9-7.5-3.3-18.9-1.8-26.2,2.4-2.4,1-15.6,11.3-13.8,4.5.7-2.3,5-6.4,7.9-8.5,7.6-5.8,11.5-10.2,23.4-10.9,18.1-1.1,34.4,23.5,39,42.3,2,8.3-2,19.8-6.8,26.8-1.7,1.7-2.5-.8-4.3-.6-3.7.8-6.2,6.6-9.7,7.4h0Z" />
  </g>
  <g id="outer">
    <path d="M11.4,62.8c-.3-.4-.5-1.1-.6-1.7-.3-2,0-5.4.7-9.1.8-4,1.8-8,3-11.8C21,18,40.8.6,64.1.3c14.8.1,27.1,10.6,37.2,20.4,4.4,4.5,9.1,9.4,12,15.1,3.2,7.5-4.4-1.2-5.5-.9,0,0-.1,0-.1.2.6,4.2,3.5,9,4.9,13.1,3.7,10.6-5.2-3.8-6.6-.5-.6,1.1-.3,3.7-1.5,3-1.1-.7-2-1.9-2.9-3.1-3.5-4.6-8.6-12.2-15-18.4-9.4-9.5-21.4-13.8-34-8-16.5,7.1-29.9,24.4-37.3,38.2-1,1.4-2.4,4.2-3.7,3.4h0Z" />
  </g>
</svg>
