<?xml version="1.0" encoding="UTF-8"?>
<svg xmlns="http://www.w3.org/2000/svg" version="1.1" viewBox="0 0 600 300">
  <!-- Generator: Adobe Illustrator 29.2.1, SVG Export Plug-In . SVG Version: 2.1.0 Build 116)  -->
  <defs>
    <style>
      .st0 {
        fill: #fff;
      }
    </style>
  </defs>
  <g id="Layer_2">
    <path d="M585.484,120.506c-5.225-8.642-13.578-15.882-25.056-21.719-11.48-5.835-30.483-11.605-57.013-17.309-10.719-2.227-17.509-4.632-20.367-7.218-2.948-2.494-4.422-5.301-4.422-8.421,0-4.278,1.786-7.907,5.36-10.894,3.571-2.984,8.887-4.478,15.944-4.478,8.576,0,15.297,2.005,20.166,6.015,4.867,4.01,8.06,10.426,9.58,19.247l57.214-3.341c-2.501-20.317-10.34-35.13-23.515-44.443-13.178-9.311-32.315-13.967-57.416-13.967-20.456,0-36.558,2.562-48.303,7.685-11.747,5.125-20.547,12.163-26.396,21.119-5.852,8.955-8.777,18.468-8.777,28.536,0,15.327,5.716,27.936,17.15,37.826,11.343,9.892,30.327,17.822,56.947,23.792,16.257,3.565,26.618,7.351,31.086,11.361,4.465,4.01,6.699,8.555,6.699,13.634,0,5.347-2.344,10.047-7.035,14.102-4.69,4.056-11.368,6.082-20.032,6.082-11.613,0-20.546-3.964-26.798-11.896-3.842-4.901-6.388-12.03-7.638-21.386l-57.75,3.609c1.696,19.782,8.977,36.089,21.84,48.92,2.213,2.208,4.738,4.221,7.56,6.049,1.91,1.756,3.873,3.444,5.188,5.536,1.706,2.658,2.513,7.457,2.884,11.331.319,2.554.376,7.003,2.126,8.5,3.247,1.384,4.005-5.579,4.991-7.797,1.101-3.249,3.172-4.479,5.682-4.524,4.342.15,6.565,4.428,7.901,8.853,1.346,4.863,1.322,10.128.961,15.335-.567,7.206-3.327,13.549-.83,20.517,2.36,7.66,10.308,9.131,14.337,1.632,1.912-3.292,2.593-7.232,2.797-11.104.447-4.08-.704-9.988,3.429-11.837,1.983-.864,4.937-.6,7.309.162,5.168,1.683,7.146,6.151,7.662,11.832,1.629,11.117-6.127,31.717,2.292,39.836,4.085,4.321,11.081,2.211,13.057-3.296,1.416-3.419,1.849-7.643,2.086-11.607,1.291-14.335-4.523-46.271-.536-53.36,1.085-1.771,3.502-1.68,4.419.796,1.036,2.663.103,6.017.238,9.42-.225,9.837,10.748,13.537,13.196,3.005,1.377-5.154-1.631-10.665-.978-15.652.441-3.233,3.246-3.405,5.036-1.069,2.172,2.624,2.652,6.47,2.858,9.931v8.785c-.448,2.703-1.06,5.55-.184,8.164,1.102,3.393,4.894,4.378,7.298,1.559,2.189-2.655,2.796-6.504,2.792-9.972-.303-6.811-1.85-13.268-1.729-20.098-.233-8.157,2.509-12.469,6.693-16.415,6.993-4.761,12.793-10.627,17.383-17.613,6.967-10.604,10.451-22.188,10.451-34.753,0-10.693-2.613-20.36-7.839-29.005Z"/>
  </g>
  <g id="Layer_3">
    <path d="M349.645,137.623c-2.76,12.812-7.2,22.582-13.317,29.31-6.12,6.729-15.159,10.092-27.117,10.092-12.33,0-21.897-4.166-28.704-12.497-6.81-8.33-10.212-23.729-10.212-46.192,0-18.133,2.85-31.436,8.556-39.906,5.108-7.731,11.741-12.835,19.888-15.331,3.724.498,7.891,2.39,8.122,9.854.2,6.442-7.364,13.373-4.372,19.52,2.439,5.014,9.27,3.809,10.532-1.592,1.361-5.829-1.95-8.889-2.964-13.865-1.207-5.922,2.232-12.269,6.12-15.444,2.3.26,4.509.717,6.63,1.363-.186,1.289-.403,2.929-.402,4.972,0,2.023-2.132,3.402-1.144,5.596h0c.957,2.126,3.915,2.627,5.535,1.149,2.565-2.342-.075-7.029-.714-9.678-.079-.327-.145-.633-.213-.942.855.352,1.701.725,2.525,1.145,5.058,2.581,9.336,6.268,12.834,11.06,2.116,2.858,4.14,7.375,6.072,13.549l55.201-12.305c-7.085-21.382-17.919-37.237-32.499-47.56-14.583-10.321-34.617-15.484-60.1-15.484-32.568,0-57.754,9.004-75.556,27.011-17.802,18.008-26.703,43.775-26.703,77.302,0,25.147,5.058,45.779,15.18,61.899,10.12,16.119,22.149,27.378,36.087,33.778,13.938,6.401,31.9,9.603,53.89,9.603,18.124,0,33.051-2.627,44.782-7.881,11.73-5.254,21.55-13.041,29.463-23.365,7.912-10.322,13.708-24.18,17.388-39.574l-54.787-15.59Z"/>
  </g>
  <g id="Layer_1">
    <path d="M139.916,14.217c-1.115,8.779-.051,114.713-.424,122.489-.022.613-.119.55-.37.178-1.211-1.966-7.777-12.927-16.565-27.531-21.796-34.904-51.187-87.772-58.183-95.288-13.756-.192-37.347,0-51.894-.066-3.248.017-4.024-.072-4.128.79-.079,38.656-.073,98.229-.013,135.417-.557,18.008,2.551,12.629,15.462,20.446,6.202,3.985,4.54,11.647,4.022,17.851-.745,10.129-2.742,24.287-.597,34.541,1.344,9.848,14.106,14.391,19.192,4.948,5.315-12.032-1.481-31.378,1.006-44.357,3.243-19.895,13.666-13.458,17.694-20.462,1.369-4.434.373-11.113.549-15.905-.086-10.151-.015-36.641-.033-47.991.01-2.768.107-2.37.911-.999,16.937,28.018,66.738,119.392,73.926,127.153,14.435.146,39.631.053,55.489.008,2.785-15.217.092-162.118,1.001-207.315-.103-1.77.242-2.757-.189-3.865-.532-.204-1.116-.285-1.893-.253-8.555.279-45.121-.439-54.93.195l-.033.016Z"/>
    <g>
      <circle class="st0" cx="37.609" cy="174.213" r="4.718"/>
      <path d="M37.609,169.995c2.326,0,4.218,1.892,4.218,4.218s-1.892,4.218-4.218,4.218-4.218-1.892-4.218-4.218,1.892-4.218,4.218-4.218M37.609,168.995c-2.882,0-5.218,2.336-5.218,5.218s2.336,5.218,5.218,5.218,5.218-2.336,5.218-5.218-2.336-5.218-5.218-5.218h0Z"/>
    </g>
  </g>
</svg>