<?xml version="1.0" encoding="UTF-8"?>
<svg xmlns="http://www.w3.org/2000/svg" version="1.1" viewBox="0 0 700 350">
  <!-- Generator: Adobe Illustrator 29.2.1, SVG Export Plug-In . SVG Version: 2.1.0 Build 116)  -->
  <g id="Letter_S">
    <path d="M676.6,139.8h.2c-6.3-11.2-16.4-20.6-30.2-28.2-13.9-7.6-36.8-15-68.8-22.5-13-2.9-21.2-6-24.6-9.3-3.5-3.2-5.3-6.8-5.3-10.9s2.2-10.3,6.4-14.1c4.4-3.8,10.7-5.8,19.2-5.8s18.5,2.6,24.4,7.8c5.9,5.2,9.8,13.6,11.5,25l69.1-4.4c-3-26.5-12.4-45.6-28.4-57.8-15.9-12.1-39-18.2-69.3-18.2s-44.1,3.3-58.3,10c-14.2,6.6-24.8,15.8-31.8,27.5-2.1,3.5-3.9,7-5.4,10.6,19.7,24.4,31.6,54.8,32.3,87.8,13.2,7.4,30.5,13.7,51.8,18.9,19.6,4.7,32.2,9.5,37.6,14.7,5.4,5.2,8.1,11.1,8.1,17.7s-2.8,13.1-8.5,18.4-13.7,7.9-24.2,7.9-24.8-5.2-32.4-15.5c-4.7-6.3-7.7-15.7-9.2-27.8l-27.1,1.8c-12.1,50.1-50.9,90.6-101.3,107.1,0,1.3.2,2.4.6,3.5,1.3,3.2,5.4,2.9,6.8,0,.2-.4.4-.9.5-1.3.5.3,1.2.6,2.2.7-.8,3.6-1.5,7.3-.6,10.2,1.3,4.9,7.2,4.3,8.8,0,1.7-4.3-.2-9-1-13.7.4-.1.9-.3,1.6-.3,1.7,0,2.4.8,3.4,1.6,0,1.9.2,3.4,1.3,4.4,2.3,1.9,4.9,0,6.1-2.6.8-1.8,1-3.6.9-5.4.1-.3.3-.5.7-.7,2.1-1,5.3.1,7.5-.4,1-.2,2.6-1.6,3-2,1.3-1.5,1.2-2.8,2-4.3.4-.9.9-1.8,1.3-2.5.7,0,1.7-.3,2.6-.8,2.4-1.1,4.5-3.8,6.3-6.6.9,1,2.1,1.7,3.5.8,2.6-1.3,4.9-4.8,8.2-6.4.3,1.1.4,2.2.4,3-.1,2.8-4.5,14.3.4,14.5,2.8.1,3.3-5.4,3-7.7-.3-2.2-3.2-8.1-1.1-9.6.5-.4,1.6.1,2.2.4,4.6,1.9,6.8,7.1,6.5,12.1-.5,6.5-7.8,16-2.5,21.9,2.1,2.3,6.2,2.3,8.1-.3,3.9-5.3-1.3-12.4-2-18.2-.1-.9-.2-3.7,0-4.6.1-.5,1.1-1.1,1.5-2,.5-1.3,1-7.8,3.2-7.4,2.6.5-1.2,9,1.6,11.3,2,1.6,3.8-2.4,4-4.1.3-2.1-.7-10.2-.1-11.1,0,0,0-.1.1-.2.3.3.7.5,1,.8.9,1.8,2.6,3.4,4.5,5.8,3,3.6,4.5,8.3,12,10.5,2.7.8,6.2,1.1,8.6,2.2.4.2.9.5,1.3.8.4,1.7.9,3.3,1.6,5,.6,1.6,1.9,5.6,3.6,3.7,1.1-1.1,2.2-3.3,3.4-5.3.7-.3,1.5-.7,2.3-1.5.5-.4,1-1,1.8-1.9h.5c1.7,0,2.7,1.2,4.5.7,2.2-.6,3.4-4,5.2-4.5,3.5-.8,4.9,7.6,9.6,3.6.2-.1.4-.3.5-.5,2.7,10.7,4,20.7,1.8,28.2-4,13.2-22,19.8-20.3,35.4,1.3,12.8,14.8,17.2,20.5,7.5,6.2-10.5,2-20.1,3.2-31.3,1.9-17.4,13-37,27-41.5,10.2-3.2,12.9,7.2,7.5,16.5-2.1,3.5-6.1,4.8-5.6,10.3.4,5.3,5.6,9.3,9.5,8,6.2-2.2,4.3-14.4,4.8-20.4,1.2-16.3,6.8-22.2,17.5-27.5,2.9-1,5.7-2.2,8.3-3.4.5-.2,1-.5,1.5-.7,1-.4,2.2-.8,3.2-1.1,0-.1-.1-.3-.2-.4,13-7.1,23.1-16.7,30.7-29,8.4-13.8,12.7-28.8,12.7-45.1s-3.1-26.5-9.4-37.7Z"/>
  </g>
  <g id="Letter_N">
    <path d="M205.2,140c0-29.8,9.2-57.6,25.1-80.8V1.4h-67.3v140.9L76,1.4H9.2v240.8c-.3,7.2-.3,11.1,0,13.8h0c.4,3.2,1.5,4.6,3.2,7.3,1.6,2.3.8,6.1,1.5,8.3.6,1.9,2.1,2.9,3.7,2.2,2.3-1,1.3-3.3,5.3-2,2.6.8,2.3,6.6,2.2,8.9,0,2.2-.3,5.3-.6,7.4-.4,2.6-2,4.8-.2,7.4,1.8,2.7,5.3,2.9,7.4.4,2.2-2.7.1-5.4-.1-8.2-.5-5.4,3.9-11.2,5.1-17.4.2,0,.3-2.2.9-3.6,1,1.3,2.4,1.9,4.3,1.1,2.9,7.1,3.5,10.1,3.5,14,0,6.5-9.6,16-3.1,21.9,2.6,2.3,7.7,2.3,10.1-.3,4.9-5.3-1.7-12.4-2.5-18.2-.1-.9-.3-3.7,0-4.6.2-.5.9-3.9,1.5-4.8.6-1.3,1.7-5,4.4-4.6,3.2.5-1.6,9,2,11.3,2.4,1.6,4.8-2.4,5.1-4.1.3-2.1-.8-10.2-.2-11.1.2-.3.6-.3,1-.3,2.4.2,2,5.4,7.7,1.3,3.7-2.7,4.7-7.9,5-12.4h.3V116.2l86.6,139.8h.2c3.5,7.2,6.7,14.7,7.9,20.3.9,4.6,0,4.1-.4,7.9-.9,7.3,8.1,9.1,10.2,3,1.2-3.6-2.1-5.5-.8-9,1.7,0,3-.3,4.4-1.3,2.6-2.3,3.3-8.7,7.7-8,1.6,4.8,6.5,10,6,15.4-.3,2.8-2.3,5.4-.1,8.2,2,2.5,5.6,2.3,7.3-.4s.1-4.8-.2-7.4c-.3-2.1-.5-5.2-.6-7.4,0-2.3-.4-8,2.2-8.9,3.9-1.3,3,3,5.3,4,1.6.7,4-.3,4.7-2.2.2-.7.3-1.9.3-3.2.2.2.4.4.6.5,5,3.9,6.3-4.5,10-3.6,1.8.4,3.1,3.8,5.4,4.5,1.2,3.2,2.1,6.4,2.3,9.2.8,10.4-10.4,22.6-4.8,32.2,4.6,7.8,15.6,4.9,17-4,1.6-9.6-4.3-14.1-6.5-22-1.3-4.7-1.8-10.1-1.3-15.6,2.6,1.6,4.1,5.8,5.9,7.8.2,2.2,1,4,4.8,3.9,2.2,0,2.9-1,3.4-2.4.9-2.1,2-11.2,5.8-11.4,1.2,0,2.5,3.7,2.8,4.5,1.2,3.8,3.1,11.9,2.2,15.6-.8,3.2-4.9,7.8-.6,10.6,3.7,2.5,9.8.8,10.5-2.7.4-2.5-2.6-6.8-3.5-9.4-1.1-3.2-1.1-6.4,1-9.4,3.1.4,1.7,4,2.2,5.7.6,1.9,3.4,3,4,.6.7-2.6.2-6.2.7-8.8.2-1,1.5-2.6,3.2-2.4,3.5.4,2.7,5.4,3.5,7.2,1.6,3.4,5.4,1.5,5.7-1.3.1-1.1,0-2.2,0-3.3-51-24.5-85.9-74.7-85.9-132.8Z"/>
  </g>
  <g id="Letter_C">
    <g>
      <path d="M454.9,177.6c0,0-.1.2-.3.5-.1.2-.3.5-.6.8.5-.7.8-1.2.9-1.3Z"/>
      <path d="M454,178.8c.2-.3.5-.6.6-.8.2-.3.3-.4.3-.5,0,.1-.4.6-.9,1.3Z"/>
      <path d="M495.1,176.5c-.6-.2-1.8-.4-3,.8,0-1.2-.3-1.8-.5-2.2-.6-.9-1.5-1.3-2.5-1.3-1.1,0-3.4.2-8.9,11.9-1.2,2.5-3.1,6.1-5,9.6-.2,0-.3-.2-.5-.3,7.5-12.8,7.5-14.1,7.6-14.9,0-1.3.2-3.7-2-4.3-2.1-.6-3.2,1.2-4.2,3-.2.4-.7,1.2-1.2,1.9.1-1.8.5-4.8,1.6-9.8.4-2.1.8-4-1.3-4.7-.3-.1-.6-.1-1-.1,0-1.8-.4-2.7-1.8-3.1-2.4-.7-3.3,1.8-3.7,2.7-.3.9-2.2,4.5-5,9.5-.8-.7-1.8-.9-2.8-.7-1,.2-1.9.9-2.4,1.8l-3.6,7.4c-.4,0-.9,0-1.2,0,.7-1,1.7-2.5,2.4-3.5.2-.3.5-.6.6-.8.5-.7,1.2-1.8.5-3.2l-.7-1.4h-1.6c-.8.1-1.1.1-2,1.2h0s0,0,0,0c-.2.3-.5.7-.8,1.1-1,1.3-2.9,3.6-5.1,6.2,0-.7-.2-1.3-.9-1.9-.4-.4-1.9-1.4-3.9.4-3.7,3.3-10.2,9.3-13.1,11.7-16.5,14.1-36.3,21.8-57.2,22.3-19,.5-37.9-5.1-53.3-15.8-22.4-15.5-41.5-45.6-27.8-83.9,8.8-24.7,30.8-43.1,58.9-49.2,30.1-6.6,61.3,2.2,81.5,22.8l2.7,2.8,1.4-3.6c.7-1.8.4-3.3-.2-4.5,1.7,2,3.5,4.3,5,6.4,2,2.7,3.7,4.9,5.1,6.2,1,.9,3.2,2.8,5.3,1.6,1.9-1.1,1.4-3.5,1.2-4.4h0c-.1-.5-.3-1-.5-1.3l1.5-.4,5.4,8.7c.6.9,1.5,1.5,2.6,1.6.4,3,1.7,4.6,3.7,4.9,1.1.1,2-.2,2.7-1,1.1-1.4.6-3,0-4.6-.1-.4-.4-1.2-.6-1.8,2.8,3.8,7.5,9.9,9.4,11.7,1.3,1.2,2.7,1,3.5.5,1.4-.9,2.3-1.5-1.2-11.7.2,0,.3-.1.4-.2,2.4-1.5,1.1-4.9.5-6.6-1.5-3.9-4.7-9.3-6.5-12-.5-.7-1.5-2-3.3-4.2-.3-.4-.6-.8-.9-1.1h0c0,0,23.5,21.7,23.5,21.7l1.1,2.3c1-.5,2.4-1.5,2.9-3.8,1.8-7.8-8.5-24.7-19.5-38-1.2-1.4-2.3-2.8-3.4-4.1-10.5-12.9-16.8-20.7-39.1-32.5-17.2-9.2-32.2-14.4-48.8-17-51.1-7.9-103.1,10.2-135.6,47.3-14.4,16.5-24.2,35.4-28.9,56.3-5.1,22.4-4.1,45.9,2.8,70h0c14.6,42.4,29.2,55.9,56.8,74.5,0,0,0,0,0,0h0s0,0,0,0h0c18.3,12.1,40.5,23,77.8,23s11.1-.2,17.2-.7c25.6-2,62.2-14.8,86.2-38.6l.5-.5c7.3-7.2,9.1-9,13.5-14.5,2.8-3.6,15.7-21.9,17.7-28.8.1-.3.6-1.5,1.2-2.9q2.7-6.7,2.8-7.1c.2-3,.4-6-2-6.8ZM488.4,184.2c-.2.4-.4.9-.6,1.4-.5.1-1.1,0-1.7-.2,0,0,0,0,0,0,.3-.6.6-1.2.9-1.8l1.5.7ZM480.4,199.5c1.6-2.9,3.3-5.7,4.7-8.2-1.6,3.3-3.2,6.7-3.9,7.3-.3.2-.5.5-.7.8ZM478.1,203.6c-.2.4-.5.9-.7,1.1.2-.4.4-.8.7-1.1ZM454.9,177.6c0,0-.1.2-.3.5-.1.2-.3.5-.6.8.5-.7.8-1.2.9-1.3Z"/>
    </g>
  </g>
</svg>