<?xml version="1.0" encoding="UTF-8"?>
<svg id="Layer_1" xmlns="http://www.w3.org/2000/svg" version="1.1" viewBox="0 0 400 146">
  <!-- Generator: Adobe Illustrator 30.1.0, SVG Export Plug-In . SVG Version: 2.1.1 Build 136)  -->
  <g>
    <path d="M110.6,67.5c-33.7,1.2-65.9,13.2-90.8,35.8-.1-.4,0-1.5.3-1.8l6.8-7.8c-10.8-.9-20.2-5-26.9-13.2l12.4-12,3.4,2.7c4.7,3.9,10.7,5.6,16.7,4.4s8.1-5.6,7.5-10.8c-1.1-10.4-11.3-8.5-19.3-8.7l2.6-15.7,7.8-.4c4.8-.2,7.7-4,7.6-8.5,0-3.7-2.3-6.4-6.1-7.2-7.1-1.3-13.9,1.3-19.3,6.5L1.5,18.6C12.4,7.6,29.5,4.4,44.5,8.1c15,3.8,18.5,10.3,17.3,21.7-1.1,9.7-7.2,14.3-15.9,17.7,9.4,1.7,16.5,6.1,18.3,15.6-7.8,4.8-15.5,9.6-21.9,16.4,22.3-16.2,44.2-25,71.8-28.1,8.3-1,16.4-1.1,24.7-.8,9.9.4,19.4,1.3,29.3,3.5l-27,15c-10.2-1.4-20.1-2.1-30.4-1.8h0Z"/>
    <path d="M115.8,20.3c-3.4-2.3-7.7-2.3-10.8,0-2.2,2.6-2.9,5.8-3.6,9.1-.7,6.3-.8,12.5-.8,19.1-8.8,2.3-17.1,5.1-25.8,9.1-2.1-14-.5-33.5,8.3-45.1,4.7-6.1,11.1-10.2,18.7-11.7,13.2-2.6,27.4.5,35.7,11.6,6.7,9,8.9,20.8,9,31.7-9.2-.3-17.7,0-26.5.9,0-6.3-.3-12.2-1.2-18.1-.6-2.4-1.4-4.6-3-6.7h0Z"/>
  </g>
  <text transform="translate(48 135.1) scale(.5 1)" font-family="Arial-Black, &apos;Arial Black&apos;" font-size="55.2" font-weight="800" letter-spacing="0em"><tspan x="0" y="0">YEARS EXPERIENCE</tspan></text>
</svg>