<?xml version="1.0" encoding="UTF-8"?>
<svg xmlns="http://www.w3.org/2000/svg" version="1.1" viewBox="0 0 90 60">
  <!-- Generator: Adobe Illustrator 29.2.1, SVG Export Plug-In . SVG Version: 2.1.0 Build 116)  -->
  <g id="windows">
    <g>
      <rect x="33.1" y="41" width="4.1" height="4.1" rx=".3" ry=".3"/>
      <rect x="38.1" y="41" width="4.1" height="4.1" rx=".3" ry=".3"/>
      <rect x="33.1" y="46" width="4.1" height="4.1" rx=".3" ry=".3"/>
      <rect x="38.1" y="46" width="4.1" height="4.1" rx=".3" ry=".3"/>
    </g>
  </g>
  <g id="Paint_Roller">
    <path d="M89.7,15.6c-.4-1.4-1.3-1.3-2.3-1.4-1.4-.3-.1-2.7-1.4-3.6-1-.7-2.1-.2-3.3-.3-8.5-.1-17.1-.2-25.6-.2-.6,0-1.4.1-1.8.4-.8.5-.9,1.5-1,2.8,0,.2,0,.4-.1.6,0,.2-.3.2-.5.3-.8.1-1.7.4-1.9,1.4-.2,1.2-.2,5.3,0,6.8,0,.5.3,1.3.7,1.6,1.1.6,11.8,5.9,15.2,7.6.2.2.6.3.9.5.3.3-.2.6-.8.7s-.6.2-.7.9c0,1.2-.2,3.1-.1,4.5l.2,7.4,5.5,7.4c.4-.3,0-3.2,0-3.7-.2-3.4-.2-6.8-.3-10.2,0-1.8-.2-3.6-.3-5.4,0-.6-.2-1.1-.7-1.1-.2,0-.6,0-.7,0-.3,0-.2-.3-.2-.6,0-1.2-.2-2,.4-2.8.3-.3.8-.5,1.2-.6,4.8-1.5,10.7-1.9,15.6-3.3,1.2-.3,2.3-.8,2.5-2.2.2-1.9.2-6-.1-7.6ZM88.3,22.5c0,.4-.1.8-.4,1.1-.4.4-1.1.5-1.6.6-4.9,1.3-11.1,1.7-15.7,3.3-1.3.4-2,1-2,2.4,0,0,0,.4,0,.3-3.3-1.6-9.6-4.7-13.1-6.5-.9-.4-1.5-.7-1.7-.8-.3-.2-.7-.6-.7-1-.1-.5-.3-5.9.2-6.3.5-.4,1.3,0,1.2.7-.2,1.3-.4,3.5,1.2,3.8,3.4,0,21.9,0,29.6,0,.4,0,1-.4,1.2-.8.2-.3.2-.4.2-.9,0-.7,0-1.5,0-2.2,0-.4,0-.6.1-.7h0c.5-.3,1.3,0,1.5.5,0,.2,0,.5,0,.7,0,1.5,0,4.3,0,5.5Z"/>
  </g>
  <g id="A_Frame">
    <polygon points="54.1 60.2 75.7 60.2 74.8 57.5 70.9 56.4 37.7 13.3 4.5 56.5 .1 57.6 0 60.2 21.3 60.2 21.3 53.9 17.2 53.9 37.7 27.6 58.2 53.9 54.1 53.9 54.1 60.2"/>
  </g>
  <g id="colours">
    <path d="M31,16"/>
    <path d="M31.9,14.9"/>
    <path d="M18.6,54.2"/>
    <path d="M48.8,21.6"/>
    <path d="M39.9,10.1"/>
    <path d="M40.8,11.2"/>
    <path d="M17.2,47.9"/>
    <path d="M22.1,6.5c0-1.9-1.6-3.5-3.5-3.5h-1c-1.9,0-3.5,1.6-3.5,3.5v32.6l8-10.5V6.5Z" fill="#fadd18"/>
    <path d="M31,6.5c0-1.9-1.6-3.5-3.5-3.5h-1c-1.9,0-3.5,1.6-3.5,3.5v21l8-10.5V6.5Z" fill="#42a74c"/>
    <path d="M39.9,11.1v-4.7c0-1.9-1.6-3.5-3.5-3.5h-1c-1.9,0-3.5,1.6-3.5,3.5v9.4l5.8-7.6,2.2,2.8Z" fill="#36a0d6"/>
    <path d="M48.8,6.5c0-1.9-1.6-3.5-3.5-3.5h-1c-1.9,0-3.5,1.6-3.5,3.5v5.8l8,10.4V6.5Z" fill="#705c86"/>
    <path d="M13.3,6.5c0-1.9-1.6-3.5-3.5-3.5h-1c-1.9,0-3.5,1.6-3.5,3.5v44.2l8-10.5V6.5Z" fill="#e92c31"/>
  </g>
</svg>