<?xml version="1.0" encoding="UTF-8"?>
<svg id="Layer_1" xmlns="http://www.w3.org/2000/svg" version="1.1" viewBox="0 0 250 250">
  <!-- Generator: Adobe Illustrator 29.2.1, SVG Export Plug-In . SVG Version: 2.1.0 Build 116)  -->
  <defs>
    <style>
      .st0 {
        fill: #fadd18;
      }

      .st1 {
        fill: #42a74c;
      }

      .st2 {
        fill: #36a0d6;
      }

      .st3 {
        fill: #e92c31;
      }

      .st4 {
        fill: #705c86;
      }
    </style>
  </defs>
  <g>
    <g id="Letter_S">
      <path d="M240,171.8h0c-2.2-4.2-5.7-7.7-10.5-10.6-4.9-2.8-12.9-5.6-24-8.4-4.5-1.1-7.4-2.2-8.6-3.5-1.2-1.2-1.9-2.5-1.9-4.1s.8-3.9,2.2-5.3c1.5-1.4,3.7-2.2,6.7-2.2s6.5,1,8.5,2.9,3.4,5.1,4,9.4l24.1-1.6c-1-9.9-4.3-17.1-9.9-21.7-5.6-4.5-13.6-6.8-24.2-6.8s-15.4,1.2-20.4,3.7c-5,2.5-8.7,5.9-11.1,10.3-.7,1.3-1.4,2.6-1.9,4,6.9,9.1,11,20.5,11.3,32.9,4.6,2.8,10.7,5.1,18.1,7.1,6.8,1.8,11.2,3.6,13.1,5.5,1.9,1.9,2.8,4.2,2.8,6.6s-1,4.9-3,6.9-4.8,3-8.5,3-8.7-1.9-11.3-5.8c-1.6-2.4-2.7-5.9-3.2-10.4l-9.5.7c-4.2,18.8-17.8,33.9-35.4,40.1,0,.5,0,.9.2,1.3.5,1.2,1.9,1.1,2.4,0,0-.1.1-.3.2-.5.2.1.4.2.8.3-.3,1.3-.5,2.7-.2,3.8.5,1.8,2.5,1.6,3.1,0,.6-1.6,0-3.4-.3-5.1.1,0,.3-.1.6-.1.6,0,.8.3,1.2.6,0,.7,0,1.3.5,1.6.8.7,1.7,0,2.1-1,.3-.7.3-1.3.3-2,0-.1.1-.2.2-.3.7-.4,1.9,0,2.6-.1.3,0,.9-.6,1-.7.5-.6.4-1,.7-1.6.1-.3.3-.7.5-.9.2,0,.6-.1.9-.3.8-.4,1.6-1.4,2.2-2.5.3.4.7.6,1.2.3.9-.5,1.7-1.8,2.9-2.4.1.4.1.8.1,1.1,0,1-1.6,5.4.1,5.4,1,0,1.2-2,1-2.9-.1-.8-1.1-3-.4-3.6.2-.1.6,0,.8.1,1.6.7,2.4,2.7,2.3,4.5-.2,2.4-2.7,6-.9,8.2.7.9,2.2.9,2.8-.1,1.4-2-.5-4.6-.7-6.8,0-.3,0-1.4,0-1.7,0-.2.4-.4.5-.7.2-.5.3-2.9,1.1-2.8.9.2-.4,3.4.6,4.2.7.6,1.3-.9,1.4-1.5.1-.8-.2-3.8,0-4.2,0,0,0,0,0,0,.1.1.2.2.3.3.3.7.9,1.3,1.6,2.2,1,1.3,1.6,3.1,4.2,3.9.9.3,2.2.4,3,.8.1,0,.3.2.5.3.1.6.3,1.2.6,1.9.2.6.7,2.1,1.3,1.4.4-.4.8-1.2,1.2-2,.2-.1.5-.3.8-.6.2-.1.3-.4.6-.7h.2c.6,0,.9.4,1.6.3.8-.2,1.2-1.5,1.8-1.7,1.2-.3,1.7,2.8,3.4,1.3,0,0,.1-.1.2-.2.9,4,1.4,7.8.6,10.6-1.4,4.9-7.7,7.4-7.1,13.3.5,4.8,5.2,6.4,7.2,2.8,2.2-3.9.7-7.5,1.1-11.7.7-6.5,4.5-13.9,9.4-15.5,3.6-1.2,4.5,2.7,2.6,6.2-.7,1.3-2.1,1.8-2,3.9.1,2,2,3.5,3.3,3,2.2-.8,1.5-5.4,1.7-7.6.4-6.1,2.4-8.3,6.1-10.3,1-.4,2-.8,2.9-1.3.2,0,.3-.2.5-.3.3-.1.8-.3,1.1-.4,0,0,0-.1,0-.1,4.5-2.7,8.1-6.3,10.7-10.9,2.9-5.2,4.4-10.8,4.4-16.9s-1.1-9.9-3.3-14.1h0Z"/>
    </g>
    <g id="Letter_N">
      <path d="M75.3,171.9c0-11.2,3.2-21.6,8.8-30.3v-21.7h-23.5v52.8l-30.4-52.8H6.9v90.2c-.1,2.7-.1,4.2,0,5.2h0c.1,1.2.5,1.7,1.1,2.7.6.9.3,2.3.5,3.1.2.7.7,1.1,1.3.8.8-.4.5-1.2,1.9-.7.9.3.8,2.5.8,3.3,0,.8-.1,2-.2,2.8-.1,1-.7,1.8,0,2.8.6,1,1.9,1.1,2.6.1.8-1,0-2,0-3.1-.2-2,1.4-4.2,1.8-6.5,0,0,.1-.8.3-1.3.3.5.8.7,1.5.4,1,2.7,1.2,3.8,1.2,5.2,0,2.4-3.4,6-1.1,8.2.9.9,2.7.9,3.5-.1,1.7-2-.6-4.6-.9-6.8,0-.3-.1-1.4,0-1.7,0-.2.3-1.5.5-1.8.2-.5.6-1.9,1.5-1.7,1.1.2-.6,3.4.7,4.2.8.6,1.7-.9,1.8-1.5.1-.8-.3-3.8,0-4.2,0-.1.2-.1.3-.1.8,0,.7,2,2.7.5,1.3-1,1.6-3,1.7-4.6h.1v-52.3l30.2,52.4h0c1.2,2.7,2.3,5.5,2.8,7.6.3,1.7,0,1.5-.1,3-.3,2.7,2.8,3.4,3.6,1.1.4-1.3-.7-2.1-.3-3.4.6,0,1-.1,1.5-.5.9-.9,1.2-3.3,2.7-3,.6,1.8,2.3,3.7,2.1,5.8-.1,1-.8,2,0,3.1.7.9,2,.9,2.5-.1.6-1,0-1.8,0-2.8-.1-.8-.2-1.9-.2-2.8,0-.9-.1-3,.8-3.3,1.4-.5,1,1.1,1.9,1.5.6.3,1.4-.1,1.6-.8,0-.3.1-.7.1-1.2,0,0,.1.1.2.2,1.7,1.5,2.2-1.7,3.5-1.3.6.1,1.1,1.4,1.9,1.7.4,1.2.7,2.4.8,3.4.3,3.9-3.6,8.5-1.7,12.1,1.6,2.9,5.4,1.8,5.9-1.5.6-3.6-1.5-5.3-2.3-8.2-.5-1.8-.6-3.8-.5-5.8.9.6,1.4,2.2,2.1,2.9,0,.8.3,1.5,1.7,1.5.8,0,1-.4,1.2-.9.3-.8.7-4.2,2-4.3.4,0,.9,1.4,1,1.7.4,1.4,1.1,4.5.8,5.8-.3,1.2-1.7,2.9-.2,4,1.3.9,3.4.3,3.7-1,.1-.9-.9-2.5-1.2-3.5-.4-1.2-.4-2.4.3-3.5,1.1.1.6,1.5.8,2.1.2.7,1.2,1.1,1.4.2.2-1,0-2.3.2-3.3,0-.4.5-1,1.1-.9,1.2.1.9,2,1.2,2.7.6,1.3,1.9.6,2-.5,0-.4,0-.8,0-1.2-17.8-9.2-30-28-30-49.7h-.2Z"/>
    </g>
    <g id="Letter_C">
      <g>
        <path d="M162.5,186s0,0-.1.2c0,0-.1.2-.2.3.2-.3.3-.4.3-.5Z"/>
        <path d="M162.2,186.4c0-.1.2-.2.2-.3,0-.1.1-.1.1-.2,0,0-.1.2-.3.5Z"/>
        <path d="M176.6,185.6c-.2,0-.6-.1-1,.3,0-.4-.1-.7-.2-.8-.2-.3-.5-.5-.9-.5s-1.2,0-3.1,4.5c-.4.9-1.1,2.3-1.7,3.6,0,0-.1,0-.2-.1,2.6-4.8,2.6-5.3,2.7-5.6,0-.5,0-1.4-.7-1.6-.7-.2-1.1.4-1.5,1.1,0,.1-.2.4-.4.7,0-.7.2-1.8.6-3.7.1-.8.3-1.5-.5-1.8-.1,0-.2,0-.3,0,0-.7-.1-1-.6-1.2-.8-.3-1.2.7-1.3,1-.1.3-.8,1.7-1.7,3.6-.3-.3-.6-.3-1-.3s-.7.3-.8.7l-1.3,2.8h-.4c.2-.4.6-.9.8-1.3,0-.1.2-.2.2-.3.2-.3.4-.7.2-1.2l-.2-.5h-.6c-.3,0-.4,0-.7.4h0c0,.1-.2.3-.3.4-.3.5-1,1.3-1.8,2.3,0-.3,0-.5-.3-.7-.1-.1-.7-.5-1.4.1-1.3,1.2-3.6,3.5-4.6,4.4-5.8,5.3-12.7,8.2-20,8.4-6.6.2-13.2-1.9-18.6-5.9-7.8-5.8-14.5-17.1-9.7-31.4,3.1-9.3,10.8-16.1,20.6-18.4,10.5-2.5,21.4.8,28.5,8.5l.9,1,.5-1.3c.2-.7.1-1.2,0-1.7.6.7,1.2,1.6,1.7,2.4.7,1,1.3,1.8,1.8,2.3.3.3,1.1,1,1.9.6.7-.4.5-1.3.4-1.6h0c0-.2-.1-.4-.2-.5h.5c0-.1,1.9,3.1,1.9,3.1.2.3.5.6.9.6.1,1.1.6,1.7,1.3,1.8.4,0,.7,0,.9-.4.4-.5.2-1.1,0-1.7,0-.1-.1-.4-.2-.7,1,1.4,2.6,3.7,3.3,4.4.5.4.9.4,1.2.2.5-.3.8-.6-.4-4.4,0,0,.1,0,.1,0,.8-.6.4-1.8.2-2.5-.5-1.5-1.6-3.5-2.3-4.5-.2-.3-.5-.7-1.2-1.6-.1-.1-.2-.3-.3-.4h0l8.2,8.1.4.9c.3-.2.8-.6,1-1.4.6-2.9-3-9.3-6.8-14.2-.4-.5-.8-1-1.2-1.5-3.7-4.8-5.9-7.8-13.7-12.2-6-3.4-11.2-5.4-17-6.4-17.8-3-36,3.8-47.4,17.7-5,6.2-8.5,13.3-10.1,21.1-1.8,8.4-1.4,17.2,1,26.2h0c5.1,15.9,10.2,20.9,19.8,27.9h0c6.4,4.5,14.1,8.6,27.2,8.6s3.9,0,6-.3c8.9-.7,21.7-5.5,30.1-14.5l.2-.2c2.5-2.7,3.2-3.4,4.7-5.4,1-1.3,5.5-8.2,6.2-10.8,0-.1.2-.6.4-1.1.6-1.7,1-2.6,1-2.7,0-1.1.1-2.2-.7-2.5h0ZM174.2,188.5c0,.1-.1.3-.2.5-.2,0-.4,0-.6,0h0c.1-.2.2-.4.3-.7l.5.3h0ZM171.4,194.2c.6-1.1,1.2-2.1,1.6-3.1-.6,1.2-1.1,2.5-1.4,2.7-.1,0-.2.2-.2.3h0ZM170.6,195.7c0,.1-.2.3-.2.4,0-.1.1-.3.2-.4ZM162.5,186s0,0-.1.2c0,0-.1.2-.2.3.2-.3.3-.4.3-.5Z"/>
      </g>
    </g>
  </g>
  <g>
    <polygon points="30.9 111 64.7 111 64.7 103.9 60.9 103.9 110.9 53.7 160.9 103.8 157.1 103.8 157.1 111 190.9 111 190.3 109.7 182.3 108 110.9 35.5 39.6 108.1 30.9 109.9 30.9 111"/>
    <rect x="100.1" y="76.9" width="9.7" height="10.2" rx="1.3" ry="1.3"/>
    <rect x="112" y="76.9" width="9.7" height="10.2" rx="1.3" ry="1.3"/>
    <rect x="100.1" y="88.8" width="9.7" height="10.2" rx="1.3" ry="1.3"/>
    <rect x="112" y="88.8" width="9.7" height="10.2" rx="1.3" ry="1.3"/>
    <path class="st3" d="M44.6,92l16.8-17.3V19.3c0-4.5-3.7-8.2-8.3-8.2h-.5c-4.6,0-8.3,3.7-8.3,8.2"/>
    <path class="st0" d="M81.1,19.3c0-4.5-3.7-8.2-8.3-8.2h-.5c-4.6,0-8.3,3.7-8.3,8.2v52.8l17.1-17.6V19.3Z"/>
    <path class="st1" d="M100.9,19.3c0-4.5-3.7-8.2-8.3-8.2h-.5c-4.6,0-8.3,3.7-8.3,8.2v32.6l17.1-17.6v-15.1Z"/>
    <path class="st2" d="M111,23.9l2.9,2.9,6.7,6.8v-14.4c0-4.5-3.7-8.2-8.3-8.2h-.5c-4.6,0-8.3,3.7-8.3,8.2v12.4l4.7-4.8,2.9-2.9Z"/>
    <path class="st4" d="M140.3,19.3c0-4.5-3.7-8.2-8.3-8.2h-.5c-4.6,0-8.3,3.7-8.3,8.2v17.1l17.1,17.5V19.3Z"/>
    <path d="M218.6,38.4c-.7-2.3-2.5-2.2-4.4-2.3-2.7-.5-.2-4.5-2.7-6-1.9-1.2-4.1-.4-6.3-.5-16.4-.2-33-.4-49.4-.4-1.1,0-2.7.2-3.4.6-1.6.8-1.8,2.4-2,4.7,0,.3,0,.7-.3,1-.2.3-.5.4-.9.5-1.6.2-3.4.6-3.6,2.4-.3,2.1-.3,8.9-.1,11.3,0,.9.5,2.2,1.3,2.7,2.1.9,22.6,9.9,29.2,12.8.5.3,1.2.4,1.7.9.5.5-.5,1.1-1.5,1.1s-1.2.4-1.3,1.6c-.2,2-.3,5.2-.2,7.6l.4,11.7,9.6,8.9c.8-.4,1.1-1.2,1-2-.4-5.7-.4-11.4-.6-17.1.1-3.1-.4-6-.6-9.1,0-.9-.4-1.8-1.4-1.8-.5,0-1.1,0-1.4,0-.5,0-.4-.4-.4-1,0-2-.4-3.3.8-4.6.5-.5,1.5-.8,2.2-1,9.2-2.6,20.7-3.1,30-5.5,2.3-.5,4.5-1.3,4.7-3.8.5-3.3.4-10-.2-12.8ZM215.9,50c0,.6-.2,1.3-.7,1.8-.8.7-2.1.8-3.1,1-9.4,2.2-21.3,2.9-30.3,5.5-2.4.6-3.8,1.6-3.9,4.1,0,.1,0,.6-.2.6-6.4-2.7-18.4-7.9-25.3-10.8-1.7-.7-2.9-1.2-3.2-1.4-.6-.3-1.3-.9-1.4-1.6-.2-.8-.7-9.8.5-10.6,1-.6,2.6,0,2.3,1.2-.3,2.1-.7,5.9,2.3,6.4,2.4,0,43.4,0,56.9,0,.9-.1,1.9-.7,2.4-1.4.4-.5.3-.7.3-1.5,0-1.2,0-2.5,0-3.7,0-.6,0-1,.2-1.1h0c1-.4,2.6,0,2.8.9.1.4.1.8.2,1.2.1,2.4.1,7.3,0,9.3Z"/>
  </g>
</svg>