<?xml version="1.0" encoding="UTF-8"?>
<svg id="Layer_1" xmlns="http://www.w3.org/2000/svg" xmlns:xlink="http://www.w3.org/1999/xlink" version="1.1" viewBox="0 0 600 350">
  <!-- Generator: Adobe Illustrator 30.1.0, SVG Export Plug-In . SVG Version: 2.1.1 Build 136)  -->
  <defs>
    <linearGradient id="linear-gradient" x1="107.3" y1="174.4" x2="599.5" y2="174.4" gradientUnits="userSpaceOnUse">
      <stop offset="0" stop-color="#ff1c00"/>
      <stop offset="0" stop-color="#ff2500"/>
      <stop offset=".1" stop-color="#ff3e00"/>
      <stop offset=".2" stop-color="#ff6700"/>
      <stop offset=".3" stop-color="#ff9500"/>
      <stop offset=".6" stop-color="#00bf6c"/>
      <stop offset="1" stop-color="#0082ff"/>
    </linearGradient>
  </defs>
  <g id="XggHsn">
    <g>
      <g>
        <path d="M452.5,273.6l69.4,63.5c2.8,2.5,4.2,8.3,4,10.3-.2,2.6-8.8.9-10.9-1l-47-43.1c-1.7-1.5-7.3-1.9-8.9-1.8-2.2.2-1.5,7.1,0,8.6l31,28.8c1.5,1.4,2.5,5.8,2.7,7.5.2,2.2-9,2-11.2,0l-53.3-49-.6-51.2c3.8-2.2,11.8-3.6,11.7-6.7l-.6-16.4-56,.2c-4.8.3-5.9,14.7-2.1,17.2l8.8,5.6c2.4,1.6.6,8.2-1.4,14.3l-99.7-91.1-89,81.2-92.2-84.5L288,0l308.1,282.5c3.2,3,4.3,9.7,2.7,10.6-2.2,1.2-7.3.8-9.3-1.1l-45.3-41.7-7.1-2.4c-1.8-.6-3.6,7.7-2.2,8.9l22.4,20.8c1.3,1.2,1.8,7.2,1.4,8.9-.6,2.3-7.8.6-9.8-1.2l-52.5-47.9c-1.7-1.6-7.2-2.2-9-2.2-2.3,0-1.4,7.6.5,9.4l64,58.9c1.6,1.5,2.3,7.3,2.5,8.9.2,2.1-7.8,1.4-9.8-.4l-51.2-46.8c-1.6-1.5-8-2.6-10.1-2.7-2.1,0-1.3,7.3.5,8.9l39.2,36.2c1.1,1,3.3,5.3,4,6.3,1.1,1.5-7.6,5.4-9,4.1l-55.3-50.2c-1.4-1.3-8-2.3-9.5-2-1.5.3-1,3.2-.7,7.8Z" fill="url(#linear-gradient)"/>
        <path d="M153.8,291.4c-64.9-58.5-99.9,61.7-133,58.4-8.5-.8-18.1-7.5-20.1-13.3-8.6-24.6,30.3-34.6,66.3-68.9,18.9-18.1,17.5-42-4.3-59.7l29.3-27.6,91.6,84-29.8,27.1Z"/>
      </g>
      <rect x="294.2" y="281.1" width="29.8" height="32.1" transform="translate(11.4 605.8) rotate(-89.9)"/>
      <rect x="251.3" y="282.2" width="32.2" height="29.9"/>
      <rect x="252.6" y="319.1" width="29.5" height="32.2" transform="translate(-68.2 602.1) rotate(-89.9)"/>
      <polygon points="325 320.4 325.3 349.8 293.1 350 292.9 320.6 325 320.4"/>
    </g>
  </g>
</svg>