<svg xmlns="http://www.w3.org/2000/svg"
     viewBox="0 0 600 600">

  <g id="house">
    <path d="M478.7,442.1l119.5-.7V122.4c-.1,0-233.6-122.4-233.6-122.4l-108.5,60.2,28.2,23.7,80.2-39.1,194,103.2v256.4s-45.8,2-45.8,2c0,0-22.3,21.8-34,35.7Z" />
    <g>
      <polygon points="420 203.6 467.7 203.3 467.1 157.5 420.2 158.4 420 203.6" />
      <polygon points="353.9 203.6 401.6 203.3 401.1 157.5 354.1 158.4 353.9 203.6" />
      <polygon points="420 265.6 467.7 265.4 467.1 219.6 420.2 220.5 420 265.6" />
      <polygon points="353.9 265.6 401.6 265.4 401.1 219.6 354.1 220.5 353.9 265.6" />
    </g>
  </g>
  <g id="handle">
    <path d="M197.5,344c9.2,9.1,15.8,20,9.3,27.7-18.2,21.4-39.9,42.1-60.2,60.7-11.5-6.5-30.8-14.7-40.5-5.2l-90.4,89.4c-19.9,19.7-15.9,51.7,2.9,68,19.7,17.1,49,13.1,68-5.6l73.5-72.2c16.3-16,19.7-33.3,7.7-53.8l67.8-67.3c12.3-12.2,13.2-29.1.9-41.7l-11-11.3-7.1-6.7-106.3-105.6.2-.2-25.9-24c-4.5-4.1-6.7-18.5-1.3-23.7l59.5-57.7c8.1,3.3,15.5,12.1,15.5,12.1l19.3-18.4s-32.4-39.7-46-26.4l-85.4,83.8c-3.3,3.2-8.2,12.9-7.2,17.1,1,4.3,5.9,11.6,9.5,15.4l43.9,44.2h0" />
  </g>
  <g id="roller">
    <path d="M101.6,301.7c3.7,8.2,1,22.2-5,27.9-5,4.8-18,9.1-24.6,5.3-14.6-8.4-12.6-24.9-5-33.8,7.8-9.2,27.8-14.4,34.6.6Z" />
    <path d="M82.8,259.3c-1.8-15.8,5.2-19,21.8-21.4l15.4,15.3c-3.3,14.5-5.8,22-18.4,21.8-8.8-.1-17.9-8.3-18.7-15.7Z" />
    <path d="M298.6,512.3c-8.3,7.2-15.3,12.7-23.5,13.6-8.2.8-17-8-18.8-17.1-2.4-12.3,30.6-53.9,51.2-37,13.8,11.2,3.2,30.2-9,40.6Z" />
    <path d="M524.5,354c0,12.2-8.5,22.6-17.4,31.7l-31.9,32.4-29.4,30.5-35.5,35.8-37.8,37.3-23.5,22.6c-6,5.8-20.8,5.9-26.9.8-7.9-6.6-8.2-20.5.3-29l61.1-61.7c3.1-3.1-7.4-15.5-10.3-13.3-17.6,13.1-28.6,27.2-45,14.6-23.4-18.1,19.1-37.8,12.5-51.2-2.9-5.8-15.8-15.3-20.5-10.7l-50.3,49c-5.6,5.5-18,9.8-30.5,1-11.2-7.9-4.3-21.1.9-26.4l55.4-56.5-68.1-68.9h-3.3c0-.1-77,69.6-77,69.6-9.7,7.1-19.4,11.8-32.8,1.4-8.9-6.9-7.2-14.7,2.6-27.2l66.2-60.1-61-61c-18.4-18.3-15-24.8,10.9-50,0,0,77-74.3,89.3-87,10.6-10.9,20.3-4,25,0,17,14.8,49.3,43.3,49.3,43.3l1.3,1.4h0c0,0,220.6,214.1,220.6,214.1,3.3,5.6,5.6,11.6,5.6,17.6Z" />
  </g>
</svg>
