<?xml version="1.0" encoding="UTF-8"?>
<svg id="Layer_1" xmlns="http://www.w3.org/2000/svg" version="1.1" viewBox="0 0 450 500">
  <!-- Generator: Adobe Illustrator 29.2.1, SVG Export Plug-In . SVG Version: 2.1.0 Build 116)  -->
  <g id="x6aapH">
    <g>
      <path d="M182.889,332.015c-5.713-11.724,4.06-19.399,6.609-29.902,6.734-27.712-9.064-47.504-33.484-27.797-33.602,27.112-46.972,84.779-37.863,126.107,5.858,26.587,24.993,42.933,17.127,74.08-7.289,28.862-46.76,35.297-60.856,8.508-17.287-32.845,25.333-69.856,25.264-104.295-.101-48.14-72.462-104.515-97.295-143.951-4.08-8.086-3.059-20.758,4.001-26.849L243.307,3.808c22.184-13.79,36.481,13.18,47.996,28.361,9.369-4.05,13.505-12.292,23.781-15.842,16.846-5.818,28.032-1.292,40.422,10.638,14.103,13.577,59.588,67.716,69.19,83.835,9.623,16.151,8.025,35.5-4.973,49.233l-134.401,115.692c-5.886,4.203,1.514,15.437,5.747,16.836,5.48,1.81,21.524-3.869,28.605,3.954l121.451,123.072c33.21,46.152-34.8,103.972-72.396,57.085-25.101-31.304-52.705-74.723-75.65-108.764-5.48-8.129-20.829-28.28-22.416-36.273-2.032-10.241,2.945-18.6,2.257-23.41-.382-2.691-6.126-7.472-7.994-11.117-9.046-17.659-3.702-28.688,8.814-41.779,36.891-38.595,96.052-73.353,130.241-112.225,8.081-9.19,6.313-13.531.042-23.431-10.769-16.999-45.975-58.767-60.568-73.335-13.696-13.673-24.069-12.36-35.418,3.528,9.96,17.752,43.77,39.972,30.404,62.775-30.428,30.701-68.569,56.063-99.045,86.231-27.375,27.098-39.127,47.373-28.646,87.569,3.692,14.156,18.947,39.198,4.126,51.711-9.359,7.898-26.452,5.225-31.984-6.13l-.003-.007ZM234.528,27.189C162.323,79.212,95.359,155.223,23.404,209.39l-4.56,9.378,5.709.515L252.326,25.13c9.078-.55,21.68,30.871,30.675,26.736,3.539-2.229-.656-6.865-2.077-8.995-3.341-5.005-18.576-23.566-23.173-24.964-8.536-2.602-16.516,4.455-23.219,9.282h-.003Z"/>
      <path d="M203.847,383.719c5.018,7.752,15.134,18.174,15.627,27.875,1.205,23.775-27.823,31.045-37.86,11.071-9.317-18.54,12.912-30.697,16.204-47.157,5.345-.916,3.563,4.398,6.029,8.21ZM213.334,417.724c-9.588-3.127-18.034,7.298-26.754,1.572,2.327,15.661,24.448,12.846,26.754-1.572Z"/>
    </g>
  </g>
</svg>