<svg xmlns="http://www.w3.org/2000/svg"
     viewBox="0 0 600 475">

    <defs>
        <linearGradient id="a"
                        x1="171.6"
                        x2="462.1"
                        y1="90.2"
                        y2="495"
                        gradientUnits="userSpaceOnUse">
            <stop offset="0"
                  stop-color="#df002b" />
            <stop offset=".1"
                  stop-color="#e30929" />
            <stop offset=".3"
                  stop-color="#ef2224" />
            <stop offset=".5"
                  stop-color="#ff451f" />
            <stop offset="1"
                  stop-color="#ffa81f" />
        </linearGradient>
    </defs>
    <path fill="#474747"
          d="m451.2 395.8-.5-34.1-35.2.3v33.8zm-80.2054.462.1197-34.2998 35.8998.1254-.1197 34.2998zM415.5 404.1l-.1 33.7 35.7-.1-.2-33.5zm-44.6-.2v33.9l35.8-.5-.4-33.1z" />
    <path fill="url(#a)"
          d="M579.8 218.5c-36.6-66.2-103.3-114.7-167.7-151.1-9.4-5.3-18-10.2-26.9-16.7-24.1-9.4-35.6-9.1-63.7-5.5L343.9 58c18.3 10.4 37 21 53.8 33.9 9 6.9 17.9 14.6 26.5 25.1-10.1-5.9-18.8-14.7-28.2-23.5l-54.3-33.1-33.4-14.2c-46.6 7.6-90.6 19.8-136.2 37.3 3.7 2.3 7.9 4.8 11.4 6.3 17.6 7.6 36.1 16.2 51.6 31.4l-56.3-28.9c-3.9-2-9.9-3.7-15.7-5.8-19.4 7.9-37.3 15.9-56.8 26.5 22.7 10.2 42.2 17.6 62.4 28.9 33 18.4 83.9 56.3 85.3 99-23.4-56.5-103.2-98.7-158.2-121.1-12.1 5-21.6 31.5-9.3 40.5 19.2 14.1 42.7 21.1 60.5 38.4 44.7 32.7 97.5 95.9 59.3 154.7-30.5 47.1-78.1 51.9-128 30.3 15.6 70.4 70.1 103.7 137.9 86.9l69.3-75.9.4-96.3h51.9l1.7 36.8 70.4-76.7 147.9 143.7c46.9-49.7 55.2-123.5 21.8-183.9Z" />
    <path fill="#949494"
          d="m152 374.3-19.2-22.7c-2.2-2.6-10 0-12.1 2.4-2.2 2.4-3.7 11.2-.7 13.2 8.6 5.7 20.3 8 32 7Z" />
    <path fill="#454545"
          d="M360.2 23.8c1.4 1.5.3 4-1.8 3.9-22.1-.2-44.1.8-67 5.2-62.6 12-163 41.9-214.5 79.6-14.1 10.4-19.2 40.2-7.4 52.8 9.3 9.9 22.5 12.2 34.2 17.1s1.6 4.7-1.1 4.5c-9.2-.7-18.8-2.4-26-6.1s-16.2-9.8-25.1-15.4c-5.6-3.6-17.2-50.7 19.4-69.3L96.8 83l43.8-21c1.8-.9 1.8-3.5 0-4.3-3.5-1.6-6.9-2.7-10.2-3.6s-4 2.9-1.8 4.3c1.6 1 1.5 3.3-.2 4.1l-24.8 11.4c-3.3 1.5-9.1 2.4-12.8 2.5s-.6 0-.9-.2L13.5 46.6C2.2 42.2 0 35.3 0 25.2 0 15.3 4.4 6.4 15.3 4.7L45.8 0h1l144.6 44.8c.5.1 1 .1 1.4 0 18.4-6.2 150.7-39.2 167.4-21.1Zm-300-12.1c-6.8-3-14.5-3.1-21.7 0s-1.9 3.6 0 4.3c7.2 2.9 14.9 3 21.7 0s1.9-3.5 0-4.3" />
</svg>
