<?xml version="1.0" encoding="UTF-8"?>
<svg id="Layer_1"
     xmlns="http://www.w3.org/2000/svg"
     version="1.1"
     viewBox="0 0 600 477">
  <!-- Generator: Adobe Illustrator 30.1.0, SVG Export Plug-In . SVG Version: 2.1.1 Build 136)  -->
  <polygon points="451.2 397.8 415.5 397.8 415.5 364 450.7 363.7 451.2 397.8"
           fill="#484848" />
  <rect x="371.5"
        y="362.9"
        width="34.3"
        height="35.9"
        transform="translate(6.8 768.5) rotate(-89.8)"
        fill="#484848" />
  <polygon points="451.1 439.7 415.4 439.8 415.5 406.1 450.9 406.2 451.1 439.7"
           fill="#474747" />
  <polygon points="406.7 439.3 370.9 439.8 370.9 405.9 406.3 406.2 406.7 439.3"
           fill="#474747" />
  <path d="M152,376.3c-11.8,1-23.4-1.3-32-7-3-2-1.4-10.7.7-13.2s9.9-5,12.1-2.4l19.2,22.7Z"
        fill="#949494" />
  <path d="M385.1,52.7c8.9,6.6,17.5,11.4,26.9,16.7,64.4,36.4,131.1,84.9,167.7,151.1,33.4,60.3,25.1,134.2-21.8,183.9l-147.9-143.7-70.4,76.7-1.7-36.8h-51.9s-.4,96.3-.4,96.3l-69.3,75.9c-67.8,16.8-122.3-16.5-137.9-86.9,49.8,21.6,97.5,16.8,128-30.3,38.1-58.8-14.6-122-59.3-154.7-17.8-17.3-41.3-24.3-60.5-38.4-12.3-9.1-2.8-35.6,9.3-40.5,55,22.3,134.8,64.6,158.2,121.1-1.5-42.7-52.3-80.6-85.3-99-20.2-11.3-39.7-18.7-62.4-28.9,19.5-10.7,37.3-18.6,56.8-26.5,5.7,2.1,11.8,3.8,15.7,5.8l56.3,28.9c-15.5-15.2-34-23.8-51.6-31.4-3.5-1.5-7.7-4.1-11.4-6.3,45.6-17.6,89.6-29.7,136.2-37.3l33.4,14.2,54.3,33.1c9.4,8.8,18.1,17.6,28.2,23.5-8.6-10.5-17.4-18.2-26.5-25.1-16.8-12.9-35.5-23.5-53.8-33.9l-22.4-12.8c28.1-3.6,39.6-3.9,63.7,5.5Z" />
  <path d="M361.9,29.8c-23.2-.3-46.3.5-70.5,5.1-62.6,12-163,41.9-214.5,79.6-14.1,10.4-19.2,40.2-7.4,52.8,11.9,12.7,30.2,12.9,43.5,22.1-11.7-.2-26.4-1.4-36.4-6.6s-16.2-9.8-25.1-15.4c-5.6-3.6-17.2-50.7,19.4-69.3l25.9-13.1,48.3-23.1c-9.3-4.7-16.8-6.9-25.8-7.2l13.1,8-28.8,13.3c-3.5,1.6-9.6,2.5-13.2,2.5L13.5,48.6C2.2,44.2,0,37.3,0,27.2,0,17.3,4.4,8.4,15.3,6.7l31-4.7,145.9,45.1c16.4-5.8,168.2-44,169.8-17.4ZM64.1,15.9c-9-5.8-20.1-6-30,0,9.7,5.7,21,6,30,0Z"
        fill="#454545" />
  <path d="M96.8,84.9c-1.4-1.7-4.3-5.6-6.4-6.4,3.6,0,9.7-.9,13.2-2.5l28.8-13.3-13.1-8c9.1.2,16.6,2.5,25.8,7.2l-48.3,23.1Z"
        fill="#e8e8e8" />
  <path d="M397.6,93.9l-1.7,1.7-54.3-33.1,2.2-2.4c18.3,10.4,37,21,53.8,33.9Z"
        fill="#ebebeb" />
  <path d="M178.7,94.4l4.7-2.5c17.6,7.6,36.1,16.2,51.6,31.4l-56.3-28.9Z"
        fill="#ebebeb" />
  <path d="M395.9,95.5l1.7-1.7c9,6.9,17.9,14.6,26.5,25.1-10.1-5.9-18.8-14.7-28.2-23.5Z"
        fill="#d0d0d0" />
</svg>
