<?xml version="1.0" encoding="UTF-8"?>
<svg id="Layer_1" xmlns="http://www.w3.org/2000/svg" version="1.1" viewBox="0 0 48 48">
  <!-- Generator: Adobe Illustrator 29.2.1, SVG Export Plug-In . SVG Version: 2.1.0 Build 116)  -->
  <defs>
    <style>
      .st0 {
        fill: #d40011;
      }

      .st1 {
        fill: #332409;
      }
    </style>
  </defs>
  <g id="_x35_FzJ8p">
    <g>
      <path class="st0" d="M48,18L30,0h-.2l-11.5,11.5c.4.5.8,1,1.2,1.5l2.6-2.6c0,0,0,0,0,0,.1.2.2.5.4.8,1.7,2.4,4.5.8,6.4-.3.8-.5,1.7-1,2.7-1,.1.5,0,1-.2,1.5-.6,2.1-2.2,4.1-.8,6.3,1.4,2.1,3.3.7,5.2.6,1.3-.1,1.2.8,1,1.8-.3,1.3-1.1,3,.2,4.1.4.3,1,.6,1.5.6l-3.2,3.2c.4.5.8,1,1.2,1.5l11.4-11.3v-.2Z"/>
      <path class="st1" d="M34.9,28.5l-15.5-15.4h.1c-.4-.6-.8-1.1-1.2-1.7l-6.5,6.5c-.3.4-.6.6-.5,1.2.8,2,1.6,4.1,2.1,6.2.2.8.5,2.6,0,3.2-2,2.1-4.4,2.7-6.9,3.9-2.4,1.2-4.3,3.6-5.4,6-1.3,2.7-2,7,1,8.8,3.8,2.3,10.4-1.3,12.7-4.5,1.4-2,2.2-4.4,3.4-6.5.4-.8,1.1-1.9,2-2.1,2-.3,5.5,1.1,7.4,1.9.8.3,1.4.9,2.2.2.5-.5,1-1.1,1.6-1.6l5.2-5.2c-.4-.5-.8-1-1.2-1.5l-.5.5ZM6.8,43.2c-2.5.2-2.8-3.6-.3-3.8,2.6-.3,2.9,3.7.3,3.8Z"/>
    </g>
  </g>
</svg>