<?xml version="1.0" encoding="UTF-8"?>
<svg xmlns="http://www.w3.org/2000/svg" version="1.1" viewBox="0 0 16 16">
  <!-- Generator: Adobe Illustrator 29.2.1, SVG Export Plug-In . SVG Version: 2.1.0 Build 116)  -->
  <defs>
    <style>
      .st0 {
        fill: none;
      }

      .st1 {
        fill: #ef0707;
      }

      .st2 {
        display: none;
      }
    </style>
  </defs>
  <g id="Layer_1" class="st2">
    <path d="M6.5,5.6C4.5,1.2,10.7-2.6,12.3,2.7s.6,2.8.5,3.5c-.2,1.9-1.6,3-2.7,4.5l.8,2.2c1.4.3,2.7.6,3.6,1s1.8,1.2.7,1.6-7.9,1.3-9.2-.4,2.4-1.8,2.6-2.5c0-.6-.2-1.2-.4-1.7s-.7-1.7-1.1-1.4c.3.2,1,2.1.1,1.9C5.8,10,.8,8.3.2,6.9-1,4.1,3.3-2.2,6.8.8c-1,1-1.5,3-1,4.2s.2.7.8.6ZM11.8,3.4c-.2-1.7-2-3.6-3.8-2.2l3.8,2.2ZM11.5,4.4c-1.2-1.4-4.9,3-4.2,4.4l1.9.9c1.4-.5,3.3-4.2,2.3-5.3ZM9.5,15.4c-1.2,0-2.8-.3-2.8-1.6-1.6,1.2.7,1.8,1.9,1.9s.9.2.9-.2Z"/>
  </g>
  <g id="Layer_3">
    <g>
      <path class="st0" d="M8,1.2l3.8,2.2c-.2-1.7-2-3.6-3.8-2.2Z"/>
      <path class="st0" d="M6.8,13.8c-1.6,1.2.7,1.8,1.9,1.9.3,0,.9.2.9-.2-1.2,0-2.8-.3-2.8-1.6Z"/>
      <path class="st0" d="M7.1,9.4h0c0,0,0,0-.1,0,0,0,0,0,0,0Z"/>
      <path class="st0" d="M11.5,4.4c-1.2-1.4-4.9,3-4.2,4.4h0s.2-.5.2-.5l-.2.5,1.8.9s0,0,.1,0l-.3-.3.3.3c1.4-.6,3.1-4.2,2.2-5.2Z"/>
      <path d="M7.1,11.2c.8.2.2-1.4,0-1.8l-.6,1.3c.3.2.5.3.7.5Z"/>
      <path class="st1" d="M14.4,13.8c-.9-.4-2.2-.6-3.6-1l-.8-2.2s0,0,0-.1l-.8-.8s0,0-.1,0l-1.8-.9-.2.4c.4,0,.9,1,1,1.4.2.5.3,1.2.4,1.7-.2.7-3.8.8-2.6,2.5,1.2,1.7,8.2.8,9.2.4,1.2-.4.3-1.3-.7-1.6ZM8.7,15.6c-1.2-.1-3.5-.7-1.9-1.9,0,1.3,1.5,1.7,2.8,1.6,0,.4-.6.3-.9.2Z"/>
    </g>
  </g>
  <g id="Layer_4">
    <path d="M7.3,8.8c-.7-1.4,3-5.7,4.2-4.4.9,1-.8,4.6-2.2,5.2l.8.8c1.1-1.4,2.4-2.5,2.6-4.3,0-.6-.3-2.8-.5-3.5-1.6-5.2-7.8-1.4-5.8,2.9-.5,0-.6-.2-.8-.6-.5-1.3,0-3.2,1-4.2C3.3-2.2-1,4.1.2,6.9c.5,1.3,4.4,2.7,6.3,3.8l.6-1.3s0,0,0,0c0,0,0,0,.1,0l.2-.4h0ZM11.8,3.4l-3.8-2.2c1.8-1.4,3.6.5,3.8,2.2Z"/>
  </g>
  <g id="Layer_5">
    <path d="M7.3,8.8c.1.1.2,0,.3.3s.1.7.1.7c0,0-.1-.2-.2-.3-.1-.2-.2-.2-.4-.2s-.4-.1-.5-.3.7-.2.7-.2Z"/>
    <path d="M10,10.6c-.2.2-.8-.9-.8-.9.5-.3.2-.1.4-.3s.6.4.6.4v.6c-.1,0-.3.2-.3.2Z"/>
  </g>
</svg>