<?xml version="1.0" encoding="UTF-8"?>
<svg id="Layer_1"
     xmlns="http://www.w3.org/2000/svg"
     version="1.1"
     viewBox="0 0 16 16"
     fill="red">
  <!-- Generator: Adobe Illustrator 29.2.1, SVG Export Plug-In . SVG Version: 2.1.0 Build 116)  -->
  <path d="M6.5,5.6C4.5,1.2,10.7-2.6,12.3,2.7s.6,2.8.5,3.5c-.2,1.9-1.6,3-2.7,4.5l.8,2.2c1.4.3,4.1.9,4.6,1.3.8.6,1.2,1.5-1.4,1.6s-6.9,1-8.1-.7,2.4-1.8,2.6-2.5c0-.6-.2-1.2-.4-1.7s-.7-1.7-1.1-1.4c.3.2,1,2.1.1,1.9C5.8,10,.8,8.3.2,6.9-1,4.1,3.3-2.2,6.8.8c-1,1-1.5,3-1,4.2s.2.7.8.6ZM11.8,3.4c-.2-1.7-2-3.6-3.8-2.2l3.8,2.2ZM11.5,4.4c-1.2-1.4-4.9,3-4.2,4.4l1.9.9c1.4-.5,3.3-4.2,2.3-5.3ZM9.5,15.4c-1.2,0-2.8-.3-2.8-1.6-1.6,1.2.7,1.8,1.9,1.9s.9.2.9-.2Z" />
</svg>
