<?xml version="1.0" encoding="UTF-8"?>
<svg xmlns="http://www.w3.org/2000/svg" version="1.1" viewBox="0 0 675 350">
  <!-- Generator: Adobe Illustrator 29.2.1, SVG Export Plug-In . SVG Version: 2.1.0 Build 116)  -->
  <g id="Letter_S">
    <path d="M653.3,140.2h0c-6.1-11.2-15.8-20.5-29.1-28.1-13.4-7.5-35.5-15-66.3-22.4-12.5-2.9-20.4-6-23.7-9.3-3.4-3.2-5.1-6.9-5.1-10.9s2.1-10.2,6.2-14.1c4.2-3.9,10.3-5.8,18.5-5.8s17.8,2.6,23.5,7.8c5.7,5.2,9.4,13.5,11.1,24.9l66.6-4.3c-2.9-26.3-12-45.4-27.4-57.5-15.3-12-37.6-18.1-66.8-18.1s-42.5,3.3-56.2,9.9c-13.7,6.6-23.9,15.7-30.7,27.3-1.1,1.9-2.1,3.9-3.1,5.8,21.5,24.4,34.4,55.8,34.4,90s0,3.3,0,4.9c12,6.2,26.9,11.5,44.8,16,18.9,4.6,31,9.5,36.2,14.7,5.2,5.2,7.8,11.1,7.8,17.6s-2.7,13-8.2,18.2c-5.5,5.2-13.2,7.9-23.3,7.9s-23.9-5.1-31.2-15.4c-4.5-6.3-7.4-15.6-8.9-27.7l-22.5,1.6c-15.1,51.5-60.5,91.2-116.8,100.6.3.3.6.6.9,1,1.2,1.3,2.8,5,6.6,5.7,1.6.3,3.3.3,4.7-.2,2.4-.8,1.8-2.5,3.5-3.6-.3,2.5-.4,4.9.4,6.8,1.3,3.2,5.2,2.9,6.6,0,.2-.4.4-.9.5-1.4.5.3,1.2.6,2.1.7-.8,3.6-1.4,7.2-.6,10.1,1.3,4.8,6.9,4.2,8.5,0,1.6-4.3-.2-9-1-13.6.4-.1.9-.3,1.5-.3,1.6,0,2.3.8,3.3,1.6,0,1.8.2,3.4,1.3,4.4,2.2,1.9,4.7,0,5.9-2.5.8-1.8,1-3.6.9-5.4.1-.3.3-.5.7-.7,2-1,5.1.1,7.2-.4,1-.3,2.5-1.5,2.9-2,1.3-1.4,1.2-2.8,1.9-4.2.4-.9.9-1.7,1.3-2.5.7,0,1.6-.3,2.5-.8,2.3-1.2,4.3-3.9,6.1-6.6.9,1,2,1.6,3.4.8,2.5-1.3,4.7-4.7,7.9-6.5.3,1.1.4,2.2.4,3-.1,2.8-4.3,14.2.4,14.5,2.7.1,3.2-5.4,2.9-7.6-.3-2.2-3.1-8-1.1-9.7.5-.4,1.5.1,2.1.4,4.4,1.9,6.6,7,6.3,12.1-.5,6.5-7.5,15.9-2.4,21.8,2,2.3,6,2.3,7.8-.3,3.8-5.2-1.3-12.4-1.9-18-.1-1-.2-3.7,0-4.6.1-.6,1.1-1.1,1.4-2,.5-1.3,1-7.8,3.1-7.3,2.5.5-1.2,9,1.5,11.3,1.9,1.5,3.7-2.4,3.9-4.1.3-2.1-.7-10.1-.1-11,0,0,0-.1.1-.2.3.3.7.6,1,.9.9,1.8,2.5,3.5,4.3,5.8,2.9,3.6,4.3,8.3,11.6,10.5,2.6.8,6,1.1,8.3,2.2.4.2.9.5,1.3.8.4,1.7.9,3.4,1.5,5,.6,1.6,1.8,5.5,3.5,3.7,1.1-1.1,2.1-3.4,3.3-5.2.7-.3,1.4-.8,2.2-1.5.5-.4,1-1.1,1.7-1.8.2,0,.4,0,.5,0,1.6,0,2.6,1.2,4.3.7,2.1-.6,3.3-4.1,5-4.5,3.4-.8,4.7,7.6,9.3,3.6.2-.2.4-.3.5-.5,2.6,10.6,3.9,20.7,1.7,28.1-3.9,13.1-21.2,19.7-19.6,35.2,1.3,12.7,14.3,17.1,19.8,7.4,6-10.5,1.9-20,3.1-31.2,1.8-17.3,12.5-36.9,26-41.3,9.8-3.2,12.4,7.1,7.2,16.4-2,3.5-5.9,4.8-5.4,10.2h0c.4,5.3,5.4,9.3,9.2,7.9,6-2.2,4.1-14.4,4.6-20.4,1.2-16.2,6.6-22.1,16.9-27.4,2.8-1,5.5-2.2,8-3.4.5-.2,1-.5,1.4-.7,1-.4,2.1-.8,3.1-1.2,0-.1-.1-.3-.2-.4,12.5-7,22.3-16.6,29.6-28.9,8.1-13.7,12.2-28.7,12.2-45s-3-26.3-9.1-37.5Z"/>
  </g>
  <g id="Letter_N">
    <path d="M274.2,263.4c-51.1-22.2-86.7-71.1-86.7-127.9s10.4-59.2,28.1-82.3V2.4h-64.9v140.3L66.8,2.4H2.4v239.7c-.3,7.1-.3,11.1,0,13.7h0c0,.1,0,.1,0,.1.4,3.1,1.4,4.4,3.1,7.1,1.5,2.3.8,6.1,1.4,8.2.6,1.9,2,2.9,3.6,2.2,2.2-1.1,1.3-3.3,5.1-2,2.5.9,2.2,6.6,2.1,8.8,0,2.1-.3,5.2-.6,7.3-.4,2.6-1.9,4.7-.2,7.4,1.7,2.7,5.1,2.9,7.1.4,2.1-2.7.1-5.3-.1-8.1-.5-5.3,3.8-11.2,4.9-17.3.2,0,.3-2.1.9-3.6,1,1.3,2.3,1.9,4.1,1.1,2.8,7.1,3.4,10,3.4,13.9,0,6.5-9.3,15.9-3,21.8,2.5,2.3,7.4,2.3,9.7-.3,4.7-5.2-1.6-12.4-2.4-18-.1-1-.3-3.7,0-4.6.2-.6.9-3.9,1.4-4.8.6-1.3,1.6-5,4.2-4.5,3.1.5-1.5,9,1.9,11.3,2.3,1.5,4.6-2.4,4.9-4.1.3-2.1-.8-10.1-.2-11,.2-.3.6-.3,1-.3,2.3.2,1.9,5.4,7.4,1.3,3.6-2.6,4.5-7.9,4.8-12.4h.3V116.7l83.5,139.2h.2c3.4,7.1,6.5,14.7,7.6,20.3.9,4.6,0,4.1-.4,7.9-.9,7.2,7.8,9.1,9.8,3,1.2-3.7-2-5.5-.8-9,1.6,0,2.9-.3,4.2-1.4,2.5-2.2,3.2-8.7,7.4-7.9,1.5,4.8,6.3,9.9,5.8,15.2-.3,2.8-2.2,5.4-.1,8.1,1.9,2.5,5.4,2.3,7-.4,1.6-2.6.1-4.8-.2-7.4-.3-2.1-.5-5.2-.6-7.3,0-2.3-.4-8,2.1-8.8,3.8-1.3,2.9,3,5.1,4.1,1.5.7,3.9-.3,4.5-2.2.2-.7.3-1.9.3-3.2.2.2.4.4.6.5,4.8,3.9,6.1-4.4,9.6-3.6,1.7.4,3,3.8,5.2,4.5,0,0,0,0,0,0,1.2,3.2,2,6.4,2.2,9.2.8,10.4-10,22.5-4.6,32,4.4,7.7,15,4.8,16.4-4,1.5-9.6-4.1-14-6.3-21.9-1.3-4.6-1.7-10-1.3-15.5,2.5,1.5,4,5.8,5.7,7.8.2,2.1,1,4,4.6,3.9,2.1,0,2.8-1,3.3-2.3.9-2.1,1.9-11.1,5.6-11.4,1.2,0,2.4,3.7,2.7,4.5,1.2,3.8,3,11.9,2.1,15.5-.8,3.2-4.7,7.7-.6,10.5,3.6,2.5,9.4.8,10.1-2.6.4-2.5-2.5-6.8-3.4-9.4-1.1-3.2-1.1-6.4,1-9.4,3,.4,1.6,4,2.1,5.7.6,1.9,3.3,3,3.9.6.7-2.5.2-6.2.7-8.8.2-1,1.4-2.6,3.1-2.4,3.4.4,2.6,5.4,3.4,7.1,1.5,3.4,5.2,1.4,5.5-1.4.5-4.5-2.2-8.2,0-12.7Z"/>
  </g>
  <g id="Letter_C">
    <path d="M476.2,88.2c0,.2-.2.4-.4.2-8.8-10.9-32.7-31.1-42.7-39.8.2,4.2,5,5.9,7.1,9.3,3.2,5,9.3,15.3,15.4,23.1,4.8,6.1,6,15.4,5,11.4s-17.9-21.4-17.9-21.4c0,0,3.9,5.7-1.7,1.2-5.6-4.4-9.4-9.6-9.4-9.6-1,1.1,9.9,14,11.4,16.4,1.9,3,4.7,7.9,5.9,11.2.4,1.1.9,4.7-1.2,2.5l-2.9-4.9s7.3,19.9,4.9,17.4-10.1-13.2-10.1-13.2c-6.5.2,0,8.7-2.2,8.4s-1.5-7-1.5-7l-2.2,2.8-6.7-11.1-4.1,1.3-5.3-6.9c-2.2,3.7,3.1,7.8,5.1,10.5.2,1,1,3.6-2.2.7s-9.6-14.5-14.7-16.8c-4.9,4.8,3.2,5.4,1.5,9.8-40.9-43.4-118.2-28.9-137.4,26.9-26.6,77.2,71.3,135.2,135.3,78.8,2.8-2.4,9.2-8.4,12.5-11.6s-9,15-9,15c4.8-1.9,17.6-18.2,19.3-20.7s-3.6,5.1-3.9,6l-5.9,9.1c4.5.9,8.6-6.6,10.7-9l-.5,4.8,5.9-12.6,2.9,2.8s5.7-10.4,6.4-12.4c1.8-4.9-.7,6.7-.7,6.7l-2,7.1s5.1-10.2,5.8-11.8-3.9,15.2-.6,16c3.3,0,6.1-10.7,5.8-4.9-.1,2.4-13.2,24.5-13.2,24.5,0,0,4.9-5.4,6.6-7s2.2,2.8,2.2,2.8c2.3-4.1,5.3-9.9,7-13.6,6.4-14.1,9.2-12.4,4.5-3.4,1.1-3-9.9,17.1-13.6,24.1s-.7,4.6-1.6,6.8c-.9,2-4.4,2.7-3.6,5.7,5-2.3,7-8,10.2-11.6s3.2-.7,4.5-1.9c2.2-2.2,4.1-7.9,6-10.7.9-1.4,3-4.3,2.7-.2-1.5,6-15.7,25.9-13.5,30.1l3.9.7c-69.3,82.8-214,49.7-241.4-51.4-30.8-113.4,97.3-206.6,203.6-147.9,22.9,12.6,25.4,16.6,37.1,28.7,8.3,8.6,19.5,28.6,22.6,38.7Z"/>
  </g>
</svg>