<?xml version="1.0" encoding="UTF-8"?>
<svg xmlns="http://www.w3.org/2000/svg" version="1.1" viewBox="0 0 650 350">
  <!-- Generator: Adobe Illustrator 29.2.1, SVG Export Plug-In . SVG Version: 2.1.0 Build 116)  -->
  <defs>
    <style>
      .st0 {
        fill: #ef0f0f;
      }

      .st1 {
        fill: #11b4ed;
      }

      .st2 {
        fill: #ff7f00;
        isolation: isolate;
        opacity: .5;
      }

      .st3 {
        stroke: #000;
        stroke-miterlimit: 10;
        stroke-width: 8px;
      }

      .st4 {
        display: none;
      }

      .st5 {
        fill: #009eff;
      }

      .st6 {
        fill: #0edd44;
      }
    </style>
  </defs>
  <g id="Layer_1" class="st4">
    <g id="Layer_11" data-name="Layer_1" class="st4">
      <g id="Layer_2">
        <path d="M636.3,146.9c-6.1-10.8-15.8-19.9-29.1-27.2-13.4-7.3-35.5-14.5-66.3-21.7-12.5-2.8-20.4-5.8-23.7-9-3.4-3.1-5.1-6.6-5.1-10.5s2.1-9.9,6.2-13.6c4.2-3.7,10.3-5.6,18.5-5.6s17.8,2.5,23.5,7.5,9.4,13.1,11.1,24.1l66.6-4.2c-2.9-25.5-12-44-27.4-55.7-15.3-11.7-37.6-17.5-66.8-17.5s-42.5,3.2-56.2,9.6-23.9,15.2-30.7,26.5c-6.8,11.2-10.2,23.1-10.2,35.8,0,19.2,6.6,35,19.9,47.4,13.2,12.4,35.3,22.3,66.2,29.8,18.9,4.5,31,9.2,36.2,14.2s7.8,10.7,7.8,17.1-2.7,12.6-8.2,17.7c-5.5,5.1-13.2,7.6-23.3,7.6s-23.9-5-31.2-14.9c-4.5-6.1-7.4-15.1-8.9-26.8l-67.2,4.5c.4,4.7,1,9.3,1.8,13.6-11,4.2-18.8,11.9-19.5,20.9,0,1.2,0,2.3.2,3.5-3.8-.6-7.8-.9-12-.7-17,.9-31.7,10.3-31.7,21.3s-7.4,12.3-12.5,20c-1.9.7-3.5,1.5-4.8,2.4-8.8,6,2.4,9.1,7.3,14.4,1.2,1.3,2.8,4.9,6.6,5.6,1.6.3,3.3.2,4.7-.2,2.4-.7,1.8-2.4,3.5-3.5-.3,2.5-.4,4.7.4,6.6,1.3,3.1,5.2,2.8,6.6,0,.2-.4.4-.9.5-1.3.5.3,1.2.6,2.1.7-.8,3.5-1.4,7-.6,9.8,1.3,4.7,6.9,4.1,8.5,0s-.2-8.7-1-13.2c.4-.1.9-.3,1.5-.3,1.6,0,2.3.8,3.3,1.5,0,1.8.2,3.3,1.3,4.2,2.2,1.8,4.7,0,5.9-2.5.8-1.7,1-3.5.9-5.2.1-.3.3-.5.7-.7,2-1,5.1.1,7.2-.4,1-.2,2.5-1.5,2.9-1.9,1.3-1.4,1.2-2.7,1.9-4.1.4-.9.9-1.7,1.3-2.4.7,0,1.6-.3,2.5-.8,2.3-1.1,4.3-3.7,6.1-6.4.9,1,2,1.6,3.4.8,2.5-1.3,4.7-4.6,7.9-6.2.3,1.1.4,2.1.4,2.9-.1,2.7-4.3,13.8.4,14,2.7.1,3.2-5.2,2.9-7.4-.3-2.1-3.1-7.8-1.1-9.3.5-.4,1.5.1,2.1.4,4.4,1.8,6.6,6.8,6.3,11.7-.5,6.3-7.5,15.4-2.4,21.1,2,2.2,6,2.2,7.8-.3,3.8-5.1-1.3-12-1.9-17.5-.1-.9-.2-3.6,0-4.4.1-.5,1.1-1.1,1.4-1.9.5-1.3,1-7.5,3.1-7.1,2.5.5-1.2,8.7,1.5,10.9,1.9,1.5,3.7-2.3,3.9-4,.3-2-.7-9.8-.1-10.7,0,0,0-.1.1-.2.3.3.7.5,1,.8.9,1.7,2.5,3.3,4.3,5.6,2.9,3.5,4.3,8,11.6,10.1,2.6.8,6,1.1,8.3,2.1.4.2.9.5,1.3.8.4,1.6.9,3.2,1.5,4.8.6,1.5,1.8,5.4,3.5,3.6,1.1-1.1,2.1-3.2,3.3-5.1.7-.3,1.4-.7,2.2-1.4.5-.4,1-1,1.7-1.8h.5c1.6,0,2.6,1.2,4.3.7,2.1-.6,3.3-3.9,5-4.3,3.4-.8,4.7,7.3,9.3,3.5.2-.1.4-.3.5-.5,2.6,10.3,3.9,20,1.7,27.2-3.9,12.7-21.2,19.1-19.6,34.1,1.3,12.3,14.3,16.6,19.8,7.2,6-10.1,1.9-19.4,3.1-30.2,1.8-16.8,12.5-35.7,26-40,9.8-3.1,12.4,6.9,7.2,15.9-2,3.4-5.9,4.6-5.4,9.9h0c.4,5.1,5.4,9,9.2,7.7,6-2.1,4.1-13.9,4.6-19.7,1.2-15.7,6.6-21.4,16.9-26.5,2.8-1,5.5-2.1,8-3.3.5-.2,1-.5,1.4-.7,1-.4,2.1-.8,3.1-1.1,0-.1,0-.3-.2-.4,12.5-6.8,22.3-16.1,29.6-28,8.1-13.3,12.2-27.8,12.2-43.5s-3-25.5-9.1-36.3h.2Z"/>
      </g>
      <g id="Layer_6">
        <path d="M282.3,247.1c-4.7-10.8-21.3-16.1-35.4-12.7v-1.6c0-14.2-11.6-26.5-25-27.7h-2.4V13.4h-64.9v135.8L70.8,13.4H6.4v232.1c-.3,6.9-.3,10.7,0,13.3h0c.4,3.1,1.4,4.4,3.1,7,1.5,2.2.8,5.9,1.4,8,.6,1.8,2,2.8,3.6,2.1,2.2-1,1.3-3.2,5.1-1.9,2.5.8,2.2,6.4,2.1,8.6,0,2.1-.3,5.1-.6,7.1-.4,2.5-1.9,4.6-.2,7.1,1.7,2.6,5.1,2.8,7.1.4,2.1-2.6.1-5.2-.1-7.9-.5-5.2,3.8-10.8,4.9-16.8.2,0,.3-2.1.9-3.5,1,1.3,2.3,1.8,4.1,1.1,2.8,6.8,3.4,9.7,3.4,13.5,0,6.3-9.3,15.4-3,21.1,2.5,2.2,7.4,2.2,9.7-.3,4.7-5.1-1.6-12-2.4-17.5,0-.9-.3-3.6,0-4.4.2-.5.9-3.8,1.4-4.6.6-1.3,1.6-4.8,4.2-4.4,3.1.5-1.5,8.7,1.9,10.9,2.3,1.5,4.6-2.3,4.9-4,.3-2-.8-9.8-.2-10.7.2-.3.6-.3,1-.3,2.3.2,1.9,5.2,7.4,1.3,3.6-2.6,4.5-7.6,4.8-12h.3V124.1l83.5,134.8h.2c3.4,6.9,6.5,14.2,7.6,19.6.9,4.4,0,4-.4,7.6-.9,7,7.8,8.8,9.8,2.9,1.2-3.5-2-5.3-.8-8.7,1.6,0,2.9-.3,4.2-1.3,2.5-2.2,3.2-8.4,7.4-7.7,1.5,4.6,6.3,9.6,5.8,14.8-.3,2.7-2.2,5.2-.1,7.9,1.9,2.4,5.4,2.2,7-.4s.1-4.6-.2-7.1c-.3-2-.5-5-.6-7.1,0-2.2-.4-7.7,2.1-8.6,3.8-1.3,2.9,2.9,5.1,3.9,1.5.7,3.9-.3,4.5-2.1.2-.7.3-1.8.3-3.1.2.2.4.4.6.5,4.8,3.8,6.1-4.3,9.6-3.5,1.7.4,3,3.7,5.2,4.3h0c1.2,3.1,2,6.2,2.2,8.9.8,10-10,21.8-4.6,31,4.4,7.5,15,4.7,16.4-3.9,1.5-9.3-4.1-13.6-6.3-21.2-1.3-4.5-1.7-9.7-1.3-15,2.5,1.5,4,5.6,5.7,7.5.2,2.1,1,3.9,4.6,3.8,2.1,0,2.8-1,3.3-2.3.9-2,1.9-10.8,5.6-11,1.2,0,2.4,3.6,2.7,4.3,1.2,3.7,3,11.5,2.1,15-.8,3.1-4.7,7.5-.6,10.2,3.6,2.4,9.4.8,10.1-2.6.4-2.4-2.5-6.6-3.4-9.1-1.1-3.1-1.1-6.2,1-9.1,3,.4,1.6,3.9,2.1,5.5.6,1.8,3.3,2.9,3.9.6.7-2.5.2-6,.7-8.5.2-1,1.4-2.5,3.1-2.3,3.4.4,2.6,5.2,3.4,6.9,1.5,3.3,5.2,1.4,5.5-1.3.6-4.6-2.5-8.3.5-13.1,1.1-1.7,2.8-2.5,3.6-4.6,1.5-3.9,1.8-9.9,0-13.7h0v.3Z"/>
      </g>
    </g>
    <g id="Layer_21" data-name="Layer_2">
      <path d="M691.1,146.9c-6.1-10.8-15.8-19.9-29.1-27.2-13.4-7.3-35.5-14.5-66.3-21.7-12.5-2.8-20.4-5.8-23.7-9-3.4-3.1-5.1-6.6-5.1-10.5s2.1-9.9,6.2-13.6c4.2-3.7,10.3-5.6,18.5-5.6s17.8,2.5,23.5,7.5,9.4,13.1,11.1,24.1l66.6-4.2c-2.9-25.5-12-44-27.4-55.7-15.3-11.7-37.6-17.5-66.8-17.5s-42.5,3.2-56.2,9.6-23.9,15.2-30.7,26.5c-6.8,11.2-10.2,23.1-10.2,35.8,0,19.2,6.6,35,19.9,47.4,13.2,12.4,35.3,22.3,66.2,29.8,18.9,4.5,31,9.2,36.2,14.2s7.8,10.7,7.8,17.1-2.7,12.6-8.2,17.7c-5.5,5.1-13.2,7.6-23.3,7.6s-23.9-5-31.2-14.9c-4.5-6.1-7.4-15.1-8.9-26.8l-67.2,4.5c.4,4.7,1,9.3,1.8,13.6-11,4.2-18.8,11.9-19.5,20.9,0,1.2,0,2.3.2,3.5-3.8-.6-7.8-.9-12-.7-17,.9-31.7,10.3-31.7,21.3s-7.4,12.3-12.5,20c-1.9.7-3.5,1.5-4.8,2.4-8.8,6,2.4,9.1,7.3,14.4,1.2,1.3,2.8,4.9,6.6,5.6,1.6.3,3.3.2,4.7-.2,2.4-.7,1.8-2.4,3.5-3.5-.3,2.5-.4,4.7.4,6.6,1.3,3.1,5.2,2.8,6.6,0,.2-.4.4-.9.5-1.3.5.3,1.2.6,2.1.7-.8,3.5-1.4,7-.6,9.8,1.3,4.7,6.9,4.1,8.5,0s-.2-8.7-1-13.2c.4-.1.9-.3,1.5-.3,1.6,0,2.3.8,3.3,1.5,0,1.8.2,3.3,1.3,4.2,2.2,1.8,4.7,0,5.9-2.5.8-1.7,1-3.5.9-5.2.1-.3.3-.5.7-.7,2-1,5.1.1,7.2-.4,1-.2,2.5-1.5,2.9-1.9,1.3-1.4,1.2-2.7,1.9-4.1.4-.9.9-1.7,1.3-2.4.7,0,1.6-.3,2.5-.8,2.3-1.1,4.3-3.7,6.1-6.4.9,1,2,1.6,3.4.8,2.5-1.3,4.7-4.6,7.9-6.2.3,1.1.4,2.1.4,2.9-.1,2.7-4.3,13.8.4,14,2.7.1,3.2-5.2,2.9-7.4-.3-2.1-3.1-7.8-1.1-9.3.5-.4,1.5.1,2.1.4,4.4,1.8,6.6,6.8,6.3,11.7-.5,6.3-7.5,15.4-2.4,21.1,2,2.2,6,2.2,7.8-.3,3.8-5.1-1.3-12-1.9-17.5-.1-.9-.2-3.6,0-4.4.1-.5,1.1-1.1,1.4-1.9.5-1.3,1-7.5,3.1-7.1,2.5.5-1.2,8.7,1.5,10.9,1.9,1.5,3.7-2.3,3.9-4,.3-2-.7-9.8-.1-10.7,0,0,0-.1.1-.2.3.3.7.5,1,.8.9,1.7,2.5,3.3,4.3,5.6,2.9,3.5,4.3,8,11.6,10.1,2.6.8,6,1.1,8.3,2.1.4.2.9.5,1.3.8.4,1.6.9,3.2,1.5,4.8.6,1.5,1.8,5.4,3.5,3.6,1.1-1.1,2.1-3.2,3.3-5.1.7-.3,1.4-.7,2.2-1.4.5-.4,1-1,1.7-1.8h.5c1.6,0,2.6,1.2,4.3.7,2.1-.6,3.3-3.9,5-4.3,3.4-.8,4.7,7.3,9.3,3.5.2-.1.4-.3.5-.5,2.6,10.3,3.9,20,1.7,27.2-3.9,12.7-21.2,19.1-19.6,34.1,1.3,12.3,14.3,16.6,19.8,7.2,6-10.1,1.9-19.4,3.1-30.2,1.8-16.8,12.5-35.7,26-40,9.8-3.1,12.4,6.9,7.2,15.9-2,3.4-5.9,4.6-5.4,9.9h0c.4,5.1,5.4,9,9.2,7.7,6-2.1,4.1-13.9,4.6-19.7,1.2-15.7,6.6-21.4,16.9-26.5,2.8-1,5.5-2.1,8-3.3.5-.2,1-.5,1.4-.7,1-.4,2.1-.8,3.1-1.1,0-.1,0-.3-.2-.4,12.5-6.8,22.3-16.1,29.6-28,8.1-13.3,12.2-27.8,12.2-43.5s-3-25.5-9.1-36.3h.2Z"/>
    </g>
    <g id="Layer_61" data-name="Layer_6">
      <path d="M276.1,247.1c-4.7-10.8-21.3-16.1-35.4-12.7v-1.6c0-14.2-11.6-26.5-25-27.7h-2.4V13.4h-64.9v135.8L64.6,13.4H.2v232.1c-.3,6.9-.3,10.7,0,13.3H.2c.4,3.1,1.4,4.4,3.1,7,1.5,2.2.8,5.9,1.4,8,.6,1.8,2,2.8,3.6,2.1,2.2-1,1.3-3.2,5.1-1.9,2.5.8,2.2,6.4,2.1,8.6,0,2.1-.3,5.1-.6,7.1-.4,2.5-1.9,4.6-.2,7.1,1.7,2.6,5.1,2.8,7.1.4,2.1-2.6.1-5.2-.1-7.9-.5-5.2,3.8-10.8,4.9-16.8.2,0,.3-2.1.9-3.5,1,1.3,2.3,1.8,4.1,1.1,2.8,6.8,3.4,9.7,3.4,13.5,0,6.3-9.3,15.4-3,21.1,2.5,2.2,7.4,2.2,9.7-.3,4.7-5.1-1.6-12-2.4-17.5,0-.9-.3-3.6,0-4.4.2-.5.9-3.8,1.4-4.6.6-1.3,1.6-4.8,4.2-4.4,3.1.5-1.5,8.7,1.9,10.9,2.3,1.5,4.6-2.3,4.9-4,.3-2-.8-9.8-.2-10.7.2-.3.6-.3,1-.3,2.3.2,1.9,5.2,7.4,1.3,3.6-2.6,4.5-7.6,4.8-12h.3V124.1l83.5,134.8h.2c3.4,6.9,6.5,14.2,7.6,19.6.9,4.4,0,4-.4,7.6-.9,7,7.8,8.8,9.8,2.9,1.2-3.5-2-5.3-.8-8.7,1.6,0,2.9-.3,4.2-1.3,2.5-2.2,3.2-8.4,7.4-7.7,1.5,4.6,6.3,9.6,5.8,14.8-.3,2.7-2.2,5.2-.1,7.9,1.9,2.4,5.4,2.2,7-.4s.1-4.6-.2-7.1c-.3-2-.5-5-.6-7.1,0-2.2-.4-7.7,2.1-8.6,3.8-1.3,2.9,2.9,5.1,3.9,1.5.7,3.9-.3,4.5-2.1.2-.7.3-1.8.3-3.1.2.2.4.4.6.5,4.8,3.8,6.1-4.3,9.6-3.5,1.7.4,3,3.7,5.2,4.3h0c1.2,3.1,2,6.2,2.2,8.9.8,10-10,21.8-4.6,31,4.4,7.5,15,4.7,16.4-3.9,1.5-9.3-4.1-13.6-6.3-21.2-1.3-4.5-1.7-9.7-1.3-15,2.5,1.5,4,5.6,5.7,7.5.2,2.1,1,3.9,4.6,3.8,2.1,0,2.8-1,3.3-2.3.9-2,1.9-10.8,5.6-11,1.2,0,2.4,3.6,2.7,4.3,1.2,3.7,3,11.5,2.1,15-.8,3.1-4.7,7.5-.6,10.2,3.6,2.4,9.4.8,10.1-2.6.4-2.4-2.5-6.6-3.4-9.1-1.1-3.1-1.1-6.2,1-9.1,3,.4,1.6,3.9,2.1,5.5.6,1.8,3.3,2.9,3.9.6.7-2.5.2-6,.7-8.5.2-1,1.4-2.5,3.1-2.3,3.4.4,2.6,5.2,3.4,6.9,1.5,3.3,5.2,1.4,5.5-1.3.6-4.6-2.5-8.3.5-13.1,1.1-1.7,2.8-2.5,3.6-4.6,1.5-3.9,1.8-9.9,0-13.7h0v.3Z"/>
    </g>
    <g id="Layer_3" class="st4">
      <ellipse class="st5" cx="339.9" cy="142.3" rx="148.3" ry="136.1"/>
    </g>
    <g id="Layer_5" class="st4">
      <ellipse class="st2" cx="339.9" cy="142.3" rx="139.2" ry="127.8"/>
    </g>
    <g id="Layer_61">
      <ellipse class="st6" cx="350" cy="145.8" rx="148.3" ry="136.1"/>
    </g>
    <g id="Layer_21">
      <path d="M484.1,100.6c0,.2-.2.4-.4.2-8.8-10.5-32.7-30.1-42.7-38.5.2,4.1,5,5.7,7.1,9,3.2,4.9,9.3,14.8,15.4,22.4,4.8,5.9,6,14.9,5,11s-17.9-20.7-17.9-20.7c0,0,3.9,5.5-1.7,1.2s-9.4-9.3-9.4-9.3c-1,1,9.9,13.6,11.4,15.8,1.9,2.9,4.7,7.7,5.9,10.9s.9,4.6-1.2,2.4l-2.9-4.7s7.3,19.2,4.9,16.9-10.1-12.8-10.1-12.8c-6.5.2,0,8.4-2.2,8.1s-1.5-6.8-1.5-6.8l-2.2,2.7-6.7-10.8-4.1,1.2-5.3-6.7c-2.2,3.6,3.1,7.6,5.1,10.2.2,1,1,3.5-2.2.7s-9.6-14.1-14.7-16.2c-4.9,4.6,3.2,5.2,1.5,9.5-40.9-42-118.2-28-137.4,26-26.6,74.8,71.3,130.9,135.3,76.3,2.8-2.4,9.2-8.2,12.5-11.2s-9,14.5-9,14.5c4.8-1.9,17.6-17.7,19.3-20.1s-3.6,4.9-3.9,5.8l-5.9,8.8c4.5.9,8.6-6.4,10.7-8.7l-.5,4.7,5.9-12.2,2.9,2.7s5.7-10.1,6.4-12c1.8-4.7-.7,6.5-.7,6.5l-2,6.9s5.1-9.9,5.8-11.4-3.9,14.7-.6,15.5c3.3,0,6.1-10.4,5.8-4.7-.1,2.3-13.2,23.7-13.2,23.7,0,0,4.9-5.2,6.6-6.8s2.2,2.7,2.2,2.7c2.3-4,5.3-9.6,7-13.1,6.4-13.6,9.2-12,4.5-3.3,1.1-3-9.9,16.6-13.6,23.3-1,1.9-.7,4.5-1.6,6.6-.9,1.9-4.4,2.6-3.6,5.5,5-2.2,7-7.8,10.2-11.3,1.1-1.2,3.2-.6,4.5-1.8,2.2-2.1,4.1-7.6,6-10.4.9-1.4,3-4.2,2.7-.2-1.5,5.8-15.7,25.1-13.5,29.2l3.9.6c-69.3,80.2-214,48.1-241.4-49.7-30.8-109.8,97.3-200.1,203.6-143.2,22.9,12.2,25.4,16.1,37.1,27.8,8.3,8.3,19.5,27.7,22.6,37.5l.3-.2Z"/>
    </g>
  </g>
  <g id="Layer_51" data-name="Layer_5">
    <g id="Layer_22" data-name="Layer_2">
      <path d="M640.8,139.8c-6.3-11.2-16.4-20.6-30.2-28.2-13.9-7.6-36.8-15-68.8-22.5-13-2.9-21.2-6-24.6-9.3-3.5-3.2-5.3-6.8-5.3-10.9s2.2-10.3,6.4-14.1c4.4-3.8,10.7-5.8,19.2-5.8s18.5,2.6,24.4,7.8,9.8,13.6,11.5,25l69.1-4.4c-3-26.5-12.4-45.6-28.4-57.8-15.9-12.1-39-18.2-69.3-18.2s-44.1,3.3-58.3,10c-14.2,6.6-24.8,15.8-31.8,27.5-7.1,11.6-10.6,24-10.6,37.1,0,19.9,6.8,36.3,20.6,49.2,13.7,12.9,36.6,23.1,68.7,30.9,19.6,4.7,32.2,9.5,37.6,14.7s8.1,11.1,8.1,17.7-2.8,13.1-8.5,18.4c-5.7,5.3-13.7,7.9-24.2,7.9s-24.8-5.2-32.4-15.5c-4.7-6.3-7.7-15.7-9.2-27.8l-69.7,4.7c.4,4.9,1,9.6,1.9,14.1-11.4,4.4-19.5,12.3-20.2,21.7,0,1.2,0,2.4.2,3.6-3.9-.6-8.1-.9-12.4-.7-17.6.9-32.9,10.7-32.9,22.1s-7.7,12.8-13,20.7c-2,.7-3.6,1.6-5,2.5-9.1,6.2,2.5,9.4,7.6,14.9,1.2,1.3,2.9,5.1,6.8,5.8,1.7.3,3.4.2,4.9-.2,2.5-.7,1.9-2.5,3.6-3.6-.3,2.6-.4,4.9.4,6.8,1.3,3.2,5.4,2.9,6.8,0,.2-.4.4-.9.5-1.3.5.3,1.2.6,2.2.7-.8,3.6-1.5,7.3-.6,10.2,1.3,4.9,7.2,4.3,8.8,0s-.2-9-1-13.7c.4-.1.9-.3,1.6-.3,1.7,0,2.4.8,3.4,1.6,0,1.9.2,3.4,1.3,4.4,2.3,1.9,4.9,0,6.1-2.6.8-1.8,1-3.6.9-5.4.1-.3.3-.5.7-.7,2.1-1,5.3.1,7.5-.4,1-.2,2.6-1.6,3-2,1.3-1.5,1.2-2.8,2-4.3.4-.9.9-1.8,1.3-2.5.7,0,1.7-.3,2.6-.8,2.4-1.1,4.5-3.8,6.3-6.6.9,1,2.1,1.7,3.5.8,2.6-1.3,4.9-4.8,8.2-6.4.3,1.1.4,2.2.4,3-.1,2.8-4.5,14.3.4,14.5,2.8.1,3.3-5.4,3-7.7-.3-2.2-3.2-8.1-1.1-9.6.5-.4,1.6.1,2.2.4,4.6,1.9,6.8,7.1,6.5,12.1-.5,6.5-7.8,16-2.5,21.9,2.1,2.3,6.2,2.3,8.1-.3,3.9-5.3-1.3-12.4-2-18.2-.1-.9-.2-3.7,0-4.6.1-.5,1.1-1.1,1.5-2,.5-1.3,1-7.8,3.2-7.4,2.6.5-1.2,9,1.6,11.3,2,1.6,3.8-2.4,4-4.1.3-2.1-.7-10.2-.1-11.1,0,0,0-.1.1-.2.3.3.7.5,1,.8.9,1.8,2.6,3.4,4.5,5.8,3,3.6,4.5,8.3,12,10.5,2.7.8,6.2,1.1,8.6,2.2.4.2.9.5,1.3.8.4,1.7.9,3.3,1.6,5,.6,1.6,1.9,5.6,3.6,3.7,1.1-1.1,2.2-3.3,3.4-5.3.7-.3,1.5-.7,2.3-1.5.5-.4,1-1,1.8-1.9h.5c1.7,0,2.7,1.2,4.5.7,2.2-.6,3.4-4,5.2-4.5,3.5-.8,4.9,7.6,9.6,3.6.2-.1.4-.3.5-.5,2.7,10.7,4,20.7,1.8,28.2-4,13.2-22,19.8-20.3,35.4,1.3,12.8,14.8,17.2,20.5,7.5,6.2-10.5,2-20.1,3.2-31.3,1.9-17.4,13-37,27-41.5,10.2-3.2,12.9,7.2,7.5,16.5-2.1,3.5-6.1,4.8-5.6,10.3h0c.4,5.3,5.6,9.3,9.5,8,6.2-2.2,4.3-14.4,4.8-20.4,1.2-16.3,6.8-22.2,17.5-27.5,2.9-1,5.7-2.2,8.3-3.4.5-.2,1-.5,1.5-.7,1-.4,2.2-.8,3.2-1.1,0-.1-.1-.3-.2-.4,13-7.1,23.1-16.7,30.7-29,8.4-13.8,12.7-28.8,12.7-45.1s-3.1-26.5-9.4-37.7h.2Z"/>
    </g>
    <g id="Layer_62" data-name="Layer_6">
      <path d="M286.4,243.8c-4.9-11.2-22.1-16.7-36.7-13.2v-1.7c0-14.7-12-27.5-25.9-28.7h-2.5V1.4h-67.3v140.9L67,1.4H.2v240.8c-.3,7.2-.3,11.1,0,13.8H.2c.4,3.2,1.5,4.6,3.2,7.3,1.6,2.3.8,6.1,1.5,8.3.6,1.9,2.1,2.9,3.7,2.2,2.3-1,1.3-3.3,5.3-2,2.6.8,2.3,6.6,2.2,8.9,0,2.2-.3,5.3-.6,7.4-.4,2.6-2,4.8-.2,7.4,1.8,2.7,5.3,2.9,7.4.4,2.2-2.7.1-5.4-.1-8.2-.5-5.4,3.9-11.2,5.1-17.4.2,0,.3-2.2.9-3.6,1,1.3,2.4,1.9,4.3,1.1,2.9,7.1,3.5,10.1,3.5,14,0,6.5-9.6,16-3.1,21.9,2.6,2.3,7.7,2.3,10.1-.3,4.9-5.3-1.7-12.4-2.5-18.2-.1-.9-.3-3.7,0-4.6.2-.5.9-3.9,1.5-4.8.6-1.3,1.7-5,4.4-4.6,3.2.5-1.6,9,2,11.3,2.4,1.6,4.8-2.4,5.1-4.1.3-2.1-.8-10.2-.2-11.1.2-.3.6-.3,1-.3,2.4.2,2,5.4,7.7,1.3,3.7-2.7,4.7-7.9,5-12.4h.3V116.2l86.6,139.8h.2c3.5,7.2,6.7,14.7,7.9,20.3.9,4.6,0,4.1-.4,7.9-.9,7.3,8.1,9.1,10.2,3,1.2-3.6-2.1-5.5-.8-9,1.7,0,3-.3,4.4-1.3,2.6-2.3,3.3-8.7,7.7-8,1.6,4.8,6.5,10,6,15.4-.3,2.8-2.3,5.4-.1,8.2,2,2.5,5.6,2.3,7.3-.4s.1-4.8-.2-7.4c-.3-2.1-.5-5.2-.6-7.4,0-2.3-.4-8,2.2-8.9,3.9-1.3,3,3,5.3,4,1.6.7,4-.3,4.7-2.2.2-.7.3-1.9.3-3.2.2.2.4.4.6.5,5,3.9,6.3-4.5,10-3.6,1.8.4,3.1,3.8,5.4,4.5h0c1.2,3.2,2.1,6.4,2.3,9.2.8,10.4-10.4,22.6-4.8,32.2,4.6,7.8,15.6,4.9,17-4,1.6-9.6-4.3-14.1-6.5-22-1.3-4.7-1.8-10.1-1.3-15.6,2.6,1.6,4.1,5.8,5.9,7.8.2,2.2,1,4,4.8,3.9,2.2,0,2.9-1,3.4-2.4.9-2.1,2-11.2,5.8-11.4,1.2,0,2.5,3.7,2.8,4.5,1.2,3.8,3.1,11.9,2.2,15.6-.8,3.2-4.9,7.8-.6,10.6,3.7,2.5,9.8.8,10.5-2.7.4-2.5-2.6-6.8-3.5-9.4-1.1-3.2-1.1-6.4,1-9.4,3.1.4,1.7,4,2.2,5.7.6,1.9,3.4,3,4,.6.7-2.6.2-6.2.7-8.8.2-1,1.5-2.6,3.2-2.4,3.5.4,2.7,5.4,3.5,7.2,1.6,3.4,5.4,1.5,5.7-1.3.6-4.8-2.6-8.6.5-13.6,1.1-1.8,2.9-2.6,3.7-4.8,1.6-4,1.9-10.3,0-14.2h0v.3Z"/>
    </g>
  </g>
  <g id="Layer_31" data-name="Layer_3">
    <ellipse class="st1" cx="352.4" cy="140" rx="156.2" ry="148.7"/>
  </g>
  <g id="Layer_23" data-name="Layer_2">
    <path class="st3" d="M459.2,76.7c-1.4-1-2.6-2.1-3.7-3.2s-1.8.3-1.2,1.1c3,3.8,6.3,7.7,7.1,8.9,2,3,4.9,8.1,6.2,11.4,1.3,3.4.9,4.8-1.3,2.5l-3.1-4.9s7.7,20.2,5.2,17.7-8.9-11.2-10.4-13.1-.4-.4-.7-.3c-6.1.6.4,8.8-1.9,8.5s-1.7-2.7-1.7-4.7-1-1.1-1.5-.5h0c-.4.4-1,.4-1.3,0l-6.1-9.8c-.2-.3-.6-.5-.9-.4l-3.2.9c-.3,0-.7,0-.9-.3l-4.3-5.4c-.5-.6-1.4-.3-1.5.5-.2,3.2,3.9,6.6,5.8,8.9s.1.2.2.3c.3,1.1.8,3.3-2.4.5s-9.7-14-14.9-16.8-.7,0-.9.2c-4.3,4.5,3.7,5.2,2,9.6-43-44.1-124.3-29.4-144.5,27.3-28,78.5,75,137.4,142.3,80.1,2.9-2.5,9.7-8.6,13.1-11.8s-3.2,6.2-6.8,11.4.5,1.7,1.2,1.1c6.1-5.3,15-16.4,16.4-18.4,1.8-2.5-3.6,4.8-4.1,6s0,0,0,.1l-5.3,7.9c-.4.6.1,1.4.9,1.3,3-.6,5.7-4.2,7.7-6.8s1.6-.2,1.5.6l-.2,2.1,5.7-11.8c.2-.5.9-.6,1.3-.2l1.5,1.4c.4.4,1,.3,1.3-.2,1.5-2.6,5.6-10,6.2-11.7,1.8-4.8-.6,6.3-.7,6.8s0,0,0,0l-2.1,7.2s5.4-10.4,6.1-12c.7-1.5-3.9,14.8-.8,16.2s.3,0,.4,0c3.4-.4,6.2-10.8,5.9-4.9,0,1.6-6,11.7-10,18.5s.6,1.7,1.3,1,1.4-1.4,1.8-1.8c.9-.9,1.5,0,1.9.9s1.2.8,1.5.1c2.2-4,4.8-8.8,6.3-11.9,6.7-14.3,9.7-12.6,4.7-3.5,1.2-3.1-10.4,17.4-14.3,24.5-1.1,2-.7,4.7-1.7,6.9-.8,1.6-3.3,2.4-3.8,4.3s.6,1.3,1.2.9c4.4-2.6,7.5-10,10.6-13.4,1.2-1.3,2.3-4.8,3.7-6.1,2.3-2.2,8.8-18.1,10.8-21.1.9-1.5,1.3-.3,1,3.7s-3.8,9.4-3.8,9.4c-1.7,6.1-14.3,24.3-17.3,28-4.4,5.6-6.1,7.2-13.8,14.8-23.8,23.5-60.3,35.9-84.7,37.9-45.4,3.6-71.2-7.2-93.4-21.8,0,0,0,0,0,0-28-18.9-41.8-32.1-56-73.2C186.1,73.1,277.9-7.2,375.5,7.8c17.3,2.7,32,8.1,48,16.7,24.1,12.8,29.1,20.7,41.7,36s22.6,35.5,17.4,37.9"/>
  </g>
  <g id="Layer_4" class="st4">
    <ellipse class="st0" cx="335.6" cy="145.4" rx="145.4" ry="138.3"/>
  </g>
</svg>