<?xml version="1.0" encoding="UTF-8"?>
<svg xmlns="http://www.w3.org/2000/svg" xmlns:xlink="http://www.w3.org/1999/xlink" version="1.1" viewBox="0 0 1200 600">
  <!-- Generator: Adobe Illustrator 29.2.1, SVG Export Plug-In . SVG Version: 2.1.0 Build 116)  -->
  <defs>
    <style>
      .st0 {
        fill: none;
      }

      .st1 {
        fill: #2da852;
      }

      .st2 {
        fill: #00a1d4;
      }

      .st3 {
        fill: #f42d38;
      }

      .st4 {
        fill: #ffde3e;
      }

      .st5 {
        fill: #f20808;
      }

      .st6 {
        fill: #715c85;
      }

      .st7 {
        display: none;
      }
    </style>
  </defs>
  <g id="Layer_1" class="st7">
    <image width="647" height="406" transform="translate(-24 97)" xlink:href="Screenshot 2025-11-12 at 12.49.33.png"/>
  </g>
  <g id="roof">
    <polygon points="4 469 120 469 120 444.2 107.1 444.2 278.4 270.5 450 444 437 444 437 469 553 469 550.9 464.5 523.5 458.6 278.4 207.2 34 459 4.3 465 4 469"/>
  </g>
  <g id="windows">
    <rect x="241.5" y="350.9" width="33.3" height="35.5" rx="3.9" ry="3.9"/>
    <rect x="282.2" y="350.9" width="33.3" height="35.5" rx="3.9" ry="3.9"/>
    <rect x="241.5" y="391.9" width="33.3" height="35.5" rx="3.9" ry="3.9"/>
    <rect x="282.2" y="391.9" width="33.3" height="35.5" rx="3.9" ry="3.9"/>
  </g>
  <g id="colors">
    <g>
      <path class="st3" d="M76.1,403.1l51.2-53v-170.6c0-13.9-11.4-25.2-25.2-25.2h-1.6c-13.9,0-25.2,11.4-25.2,25.2"/>
      <path class="st4" d="M187.4,179.5c0-13.9-11.4-25.2-25.2-25.2h-1.6c-13.9,0-25.2,11.4-25.2,25.2v162.4l52.1-54v-108.4Z"/>
      <path class="st1" d="M247.4,179.5c0-13.9-11.4-25.2-25.2-25.2h-1.6c-13.9,0-25.2,11.4-25.2,25.2v100.2l52.1-54v-46.3Z"/>
      <path class="st2" d="M278.4,193.8l8.7,9,20.4,21v-44.3c0-13.9-11.4-25.2-25.2-25.2h-1.6c-13.9,0-25.2,11.4-25.2,25.2v38.1l14.3-14.8,8.7-9Z"/>
      <path class="st6" d="M367.5,179.5c0-13.9-11.4-25.2-25.2-25.2h-1.6c-13.9,0-25.2,11.4-25.2,25.2v52.4l52.1,53.7v-106.1Z"/>
      <path class="st5" d="M287.1,202.8"/>
    </g>
  </g>
  <g id="brush" class="st7">
    <g id="al7A42">
      <g>
        <path d="M418.3,311.2c.2,0,.3-.1.5-.2,3.2-.8,6.7-1,10.1-2s2.3-.7,2.4-.9.1-.3,0-.4c-.2-.2-5,0-5.8,0-5.2-.2-14.4-1.7-18.8-3.6-.2,0-.4-.1-.4-.4,1.3-.2,2.6-.3,3.8-.5,1.1-.2,2.6-.4,3.5-.6s1.1-.4.6-.8-5.1-.8-5.9-.9c-3.1-.5-7.8-1.3-10.6-2.3-.3,0-.6-.2-.6-.4,8.1-3,15.7-7.3,21.4-13.1,4.7-4.8,8.3-10.6,11.2-16.2,1.6-3.1,3.1-7.3,4.9-10.1.2-.3.5-.7,1-.7,20.1,5.9,39.8,12.4,59.7,18.6.7.3.5.7.2,1.3-2,4.9-7.1,12.3-10.8,16.7-5.6,6.6-12.6,11.2-10.2,19.9,1.2,4.1,6.5,8.7,6.4,12.5-.1,4.4-7,6-8.5,1.4-1.6-5,2.1-11.2-1.1-16-3.3-4.7-10.8-1.5-12.7,3.2-4.2,10.2,11.2,17.5,9.4,26.2-1.1,5.3-9.8,7.7-12.8,3.1-3.2-4.8.3-12.2.3-17.6,0-6.3-3-11.4-10.7-12.9-3.7-.7-10.1-.1-11.6,3.6-2,5,6,6.3,5,11.4-.7,3.4-6.5,5.2-9,2.6-2.8-2.8.6-7.3.5-10.7,0-6.5-5.5-7.4-11.2-9.9l-.3-.4h0ZM441.6,271.1c-.3,0-.6.2-.8.4-.8.9-1.6,2.7-2.3,3.7-5.6,8-13.6,15.5-23.7,19.8-.3.8,2.1,0,2.7-.2,11-3.3,19.1-10.9,23-19.9.2-.5,1.6-3.7,1.1-3.9ZM458.7,284c.4-.8,1.6-3.4,1.7-4.1s0-.6-.5-.5c-2.6,3.8-5.1,7.5-8.4,11-4.7,5.1-10.1,9.6-16.7,12.9v.5c.3.2,2.9-.8,3.4-1,9.5-3.6,16.6-11,20.5-18.8h0ZM472.7,282.2c-5.7,8.1-12.8,15.6-22,21.3-1.5.9-3.3,1.8-4.7,2.7-.3.2-.7.4-.6.7.2.4,3-.8,3.5-1,9.6-3.9,17.9-11.6,22.4-19.5,4.5-7.9,1.7-3,1.8-3.7s0-.6-.4-.5h0Z"/>
        <path d="M532.9,181.7c-5,8.2-11.6,16.5-17.9,24.1-4.4,5.4-9.6,10.9-13.6,16.5-6.8,9.4-4.8,16.8,1.6,24.7,2.6,3.2,6.4,5.4,4.5,9.9-.3.8-1.1,2.5-2.3,2.3-13.5-4-26.8-8.3-40.2-12.6-5.3-1.7-10.7-3.2-15.9-4.9-.7-.2-4-1.2-4.2-1.6-.6-.9,1.5-2.8,2.3-3.4,3.8-2.5,12.8-2.6,17.7-3.6,15.5-3.3,19.7-12.1,24.3-23.4,4.2-10.3,7.5-20.6,12.8-30.7,4.7-9.1,13.8-23,24.4-28.4,8.2-4.2,14.2-1.8,15.1,5.5.9,7.2-4.3,18.2-8.6,25.4h0ZM523.6,157.7c-.5.2-2.1,1.7-2.5,2.2-5.8,5.7-10.8,14.1-14.3,20.9-6.7,12.7-11,26-17.8,38.7-3.2,6-7,11.3-14.1,14.9-7.1,3.6-13.8,4-20.7,4.1h-.3c0,.1,0,.5,0,.5.6.6,7,.6,8.3.5,16.9-1,23.7-9.8,30.2-21.4,9.7-17.5,16.2-35.9,27-53.2,1.5-2.4,3.2-4.7,4.8-7-.2-.1-.3-.1-.5,0Z"/>
        <path d="M442.9,244.2c.4-.1.7,0,1,0l59.2,18.6c.5.2.5.5.3.9-.3,1.1-1.8,3.4-2.5,4.6s-2.1,3.9-2.7,4.6-1.2.2-2.1,0l-58.5-18.5c-.5-.4-.1-1.1.1-1.6,1.3-2.7,3.3-5.6,4.6-8.3.1-.2.3-.3.5-.4h0Z"/>
      </g>
    </g>
  </g>
  <g id="roller">
    <g>
      <path class="st0" d="M613,214.9c-.8-3.7-6.3-5-9.6-3.5h-.1c-.9.7-.6,2-.7,4.3,0,4.4,0,9.4,0,13.9,0,2.9.3,3.6-1.1,5.5-1.8,2.5-5.1,4.7-8.1,5.1-45.7,0-184,0-192.1,0-10.3-1.7-9.1-16-7.9-24,1-4.9-4.4-7-7.8-4.6-3.8,2.8-2.3,36.7-1.6,39.7.4,2.5,2.7,5,4.6,6,1.1.5,5.1,2.4,10.8,5.1,23.2,11,63.7,30.3,85.3,40.5.5.2.4-1.6.5-2.1.1-9.1,4.8-13,13-15.3,30.2-9.6,70.5-12.4,102.2-20.5,3.4-1,7.7-1.3,10.4-3.9,1.7-1.9,2.3-4.5,2.4-6.9.5-7.5.7-25.7.2-34.8-.1-1.6-.1-3.1-.5-4.6Z"/>
      <path d="M622.4,210.9c-2.4-8.5-8.6-8.3-15-8.8-9.2-1.8-.7-17-9.2-22.5-6.6-4.4-13.9-1.4-21.2-1.9-55.4-.7-111.3-1.5-166.5-1.4-3.8,0-9.1.6-11.6,2.3-5.3,3-6,9.1-6.6,17.5-.1,1.3-.3,2.8-.9,3.8-.6,1.1-1.8,1.5-3.1,1.9-5.2.7-11.3,2.3-12.3,8.8-1.1,7.7-1.1,33.6-.5,42.5,0,3.4,1.7,8.4,4.5,10.2,7.1,3.5,76.3,37.1,98.5,47.8,1.6,1,3.9,1.6,5.6,3.4,1.6,1.8-1.5,4-5.1,4.2s-4.1,1.4-4.5,5.8c-.6,7.6-1,19.5-.8,28.6l1.2,44.1,32.5,33.4c2.6-1.6,3.7-4.6,3.4-7.4-1.3-21.3-1.4-42.7-2.1-64,.3-11.6-1.4-22.3-1.9-34,0-3.5-1.3-6.8-4.8-6.9-1.6.1-3.8-.1-4.7,0-1.8,0-1.5-1.7-1.4-3.7.1-7.4-1.4-12.4,2.6-17.3,1.6-2,5-2.9,7.5-3.7,30.9-9.7,69.8-11.7,101.1-20.6,7.8-2,15.1-4.8,16-14.1,1.6-12.2,1.2-37.7-.7-48ZM613.3,254.3c-.1,2.4-.7,5-2.4,6.9-2.7,2.6-7,2.9-10.4,3.9-31.8,8.1-72,10.8-102.2,20.5-8.2,2.3-12.9,6.2-13,15.3,0,.5,0,2.3-.5,2.1-21.6-10.2-62.1-29.5-85.3-40.5-5.7-2.7-9.7-4.6-10.8-5.1-1.9-1.1-4.2-3.5-4.6-6-.7-3-2.3-36.9,1.6-39.7,3.3-2.4,8.7-.3,7.8,4.6-1.2,8-2.4,22.3,7.9,24,8.1,0,146.4.1,192.1,0,2.9-.4,6.3-2.7,8.1-5.1,1.4-2,1.1-2.6,1.1-5.5,0-4.5,0-9.4,0-13.9,0-2.4-.2-3.7.7-4.2h.1c3.3-1.6,8.8-.3,9.6,3.4.4,1.5.4,3,.5,4.6.5,9.1.3,27.3-.2,34.8Z"/>
    </g>
  </g>
  <g id="Layer_8">
    <g>
      <g id="Letter_S">
        <path d="M1060.4,432.4h.1c-3.5-6.3-9-11.6-16.6-15.9-7.6-4.3-20.2-8.4-37.7-12.7-7.1-1.6-11.6-3.4-13.5-5.2-1.9-1.8-2.9-3.8-2.9-6.1s1.2-5.8,3.5-7.9c2.4-2.1,5.9-3.3,10.5-3.3s10.1,1.5,13.4,4.4c3.2,2.9,5.4,7.7,6.3,14.1l37.9-2.5c-1.6-14.9-6.8-25.7-15.6-32.5-8.7-6.8-21.4-10.2-38-10.2s-24.2,1.9-32,5.6c-7.8,3.7-13.6,8.9-17.4,15.5-1.2,2-2.1,3.9-3,6,10.8,13.7,17.3,30.8,17.7,49.4,7.2,4.2,16.7,7.7,28.4,10.6,10.7,2.6,17.7,5.3,20.6,8.3,3,2.9,4.4,6.2,4.4,10s-1.5,7.4-4.7,10.4-7.5,4.4-13.3,4.4-13.6-2.9-17.8-8.7c-2.6-3.5-4.2-8.8-5-15.6l-14.9,1c-6.6,28.2-27.9,51-55.6,60.3,0,.7.1,1.4.3,2,.7,1.8,3,1.6,3.7,0,.1-.2.2-.5.3-.7.3.2.7.3,1.2.4-.4,2-.8,4.1-.3,5.7.7,2.8,3.9,2.4,4.8,0,.9-2.4-.1-5.1-.5-7.7.2,0,.5-.2.9-.2.9,0,1.3.5,1.9.9,0,1.1.1,1.9.7,2.5,1.3,1.1,2.7,0,3.3-1.5.4-1,.5-2,.5-3,0-.2.2-.3.4-.4,1.2-.6,2.9,0,4.1-.2.5-.1,1.4-.9,1.6-1.1.7-.8.7-1.6,1.1-2.4.2-.5.5-1,.7-1.4.4,0,.9-.2,1.4-.5,1.3-.6,2.5-2.1,3.5-3.7.5.6,1.2,1,1.9.5,1.4-.7,2.7-2.7,4.5-3.6.2.6.2,1.2.2,1.7,0,1.6-2.5,8,.2,8.2,1.5,0,1.8-3,1.6-4.3-.2-1.2-1.8-4.6-.6-5.4.3-.2.9,0,1.2.2,2.5,1.1,3.7,4,3.6,6.8-.3,3.7-4.3,9-1.4,12.3,1.2,1.3,3.4,1.3,4.4-.2,2.1-3-.7-7-1.1-10.2,0-.5-.1-2.1,0-2.6,0-.3.6-.6.8-1.1.3-.7.5-4.4,1.8-4.2,1.4.3-.7,5.1.9,6.4,1.1.9,2.1-1.4,2.2-2.3.2-1.2-.4-5.7,0-6.2,0,0,0,0,0-.1.2.2.4.3.5.5.5,1,1.4,1.9,2.5,3.3,1.6,2,2.5,4.7,6.6,5.9,1.5.5,3.4.6,4.7,1.2.2.1.5.3.7.5.2,1,.5,1.9.9,2.8.3.9,1,3.2,2,2.1.6-.6,1.2-1.9,1.9-3,.4-.2.8-.4,1.3-.8.3-.2.5-.6,1-1.1h.3c.9,0,1.5.7,2.5.4,1.2-.3,1.9-2.3,2.9-2.5,1.9-.5,2.7,4.3,5.3,2,.1,0,.2-.2.3-.3,1.5,6,2.2,11.7,1,15.9-2.2,7.4-12.1,11.1-11.1,19.9.7,7.2,8.1,9.7,11.2,4.2,3.4-5.9,1.1-11.3,1.8-17.6,1-9.8,7.1-20.8,14.8-23.4,5.6-1.8,7.1,4.1,4.1,9.3-1.2,2-3.3,2.7-3.1,5.8.2,3,3.1,5.2,5.2,4.5,3.4-1.2,2.4-8.1,2.6-11.5.7-9.2,3.7-12.5,9.6-15.5,1.6-.6,3.1-1.2,4.6-1.9.3-.1.5-.3.8-.4.5-.2,1.2-.5,1.8-.6,0,0,0-.2-.1-.2,7.1-4,12.7-9.4,16.8-16.3,4.6-7.8,7-16.2,7-25.4s-1.7-14.9-5.2-21.2h0Z"/>
      </g>
      <g id="Letter_N">
        <path d="M801.9,432.5c0-16.8,5-32.4,13.8-45.5v-32.5h-36.9v79.3l-47.7-79.3h-36.6v135.5c-.2,4.1-.2,6.2,0,7.8h0c.2,1.8.8,2.6,1.8,4.1.9,1.3.4,3.4.8,4.7.3,1.1,1.2,1.6,2,1.2,1.3-.6.7-1.9,2.9-1.1,1.4.5,1.3,3.7,1.2,5,0,1.2-.2,3-.3,4.2-.2,1.5-1.1,2.7-.1,4.2,1,1.5,2.9,1.6,4.1.2,1.2-1.5,0-3,0-4.6-.3-3,2.1-6.3,2.8-9.8.1,0,.2-1.2.5-2,.5.7,1.3,1.1,2.4.6,1.6,4,1.9,5.7,1.9,7.9,0,3.7-5.3,9-1.7,12.3,1.4,1.3,4.2,1.3,5.5-.2,2.7-3-.9-7-1.4-10.2,0-.5-.2-2.1,0-2.6.1-.3.5-2.2.8-2.7.3-.7.9-2.8,2.4-2.6,1.8.3-.9,5.1,1.1,6.4,1.3.9,2.6-1.4,2.8-2.3.2-1.2-.4-5.7-.1-6.2.1-.2.3-.2.5-.2,1.3.1,1.1,3,4.2.7,2-1.5,2.6-4.4,2.7-7h.2v-78.6l47.5,78.7h.1c1.9,4.1,3.7,8.3,4.3,11.4.5,2.6,0,2.3-.2,4.4-.5,4.1,4.4,5.1,5.6,1.7.7-2-1.2-3.1-.4-5.1.9,0,1.6-.2,2.4-.7,1.4-1.3,1.8-4.9,4.2-4.5.9,2.7,3.6,5.6,3.3,8.7-.2,1.6-1.3,3,0,4.6,1.1,1.4,3.1,1.3,4-.2s0-2.7-.1-4.2c-.2-1.2-.3-2.9-.3-4.2,0-1.3-.2-4.5,1.2-5,2.1-.7,1.6,1.7,2.9,2.3.9.4,2.2-.2,2.6-1.2.1-.4.2-1.1.2-1.8.1.1.2.2.3.3,2.7,2.2,3.5-2.5,5.5-2,1,.2,1.7,2.1,3,2.5.7,1.8,1.2,3.6,1.3,5.2.4,5.9-5.7,12.7-2.6,18.1,2.5,4.4,8.6,2.8,9.3-2.3.9-5.4-2.4-7.9-3.6-12.4-.7-2.6-1-5.7-.7-8.8,1.4.9,2.2,3.3,3.2,4.4.1,1.2.5,2.3,2.6,2.2,1.2,0,1.6-.6,1.9-1.4.5-1.2,1.1-6.3,3.2-6.4.7,0,1.4,2.1,1.5,2.5.7,2.1,1.7,6.7,1.2,8.8-.4,1.8-2.7,4.4-.3,6,2,1.4,5.4.5,5.8-1.5.2-1.4-1.4-3.8-1.9-5.3-.6-1.8-.6-3.6.5-5.3,1.7.2.9,2.3,1.2,3.2.3,1.1,1.9,1.7,2.2.3.4-1.5.1-3.5.4-5,.1-.6.8-1.5,1.8-1.4,1.9.2,1.5,3,1.9,4.1.9,1.9,3,.8,3.1-.7,0-.6,0-1.2,0-1.9-28-13.8-47.1-42-47.1-74.8h-.3Z"/>
      </g>
      <g id="Letter_C">
        <g>
          <path d="M938.8,453.7s0,.1-.2.3c0,.1-.2.3-.3.5.3-.4.4-.7.5-.7Z"/>
          <path d="M938.3,454.4c.1-.2.3-.3.3-.5.1-.2.2-.2.2-.3,0,0-.2.3-.5.7Z"/>
          <path d="M960.9,453.1c-.3-.1-1-.2-1.6.5,0-.7-.2-1-.3-1.2-.3-.5-.8-.7-1.4-.7s-1.9.1-4.9,6.7c-.7,1.4-1.7,3.4-2.7,5.4-.1,0-.2-.1-.3-.2,4.1-7.2,4.1-7.9,4.2-8.4,0-.7.1-2.1-1.1-2.4-1.2-.3-1.8.7-2.3,1.7-.1.2-.4.7-.7,1.1,0-1,.3-2.7.9-5.5.2-1.2.4-2.3-.7-2.6-.2,0-.3,0-.5,0,0-1-.2-1.5-1-1.7-1.3-.4-1.8,1-2,1.5-.2.5-1.2,2.5-2.7,5.3-.4-.4-1-.5-1.5-.4s-1,.5-1.3,1l-2,4.2h-.7c.4-.6.9-1.4,1.3-2,.1-.2.3-.3.3-.5.3-.4.7-1,.3-1.8l-.4-.8h-.9c-.4,0-.6,0-1.1.7h0c-.1.2-.3.4-.4.6-.5.7-1.6,2-2.8,3.5,0-.4-.1-.7-.5-1.1-.2-.2-1-.8-2.1.2-2,1.9-5.6,5.2-7.2,6.6-9,7.9-19.9,12.3-31.4,12.6-10.4.3-20.8-2.9-29.2-8.9-12.3-8.7-22.8-25.7-15.2-47.2,4.8-13.9,16.9-24.3,32.3-27.7,16.5-3.7,33.6,1.2,44.7,12.8l1.5,1.6.8-2c.4-1,.2-1.9-.1-2.5.9,1.1,1.9,2.4,2.7,3.6,1.1,1.5,2,2.8,2.8,3.5.5.5,1.8,1.6,2.9.9,1-.6.8-2,.7-2.5h0c0-.3-.2-.6-.3-.7l.8-.2,3,4.9c.3.5.8.8,1.4.9.2,1.7.9,2.6,2,2.8.6,0,1.1-.1,1.5-.6.6-.8.3-1.7,0-2.6,0-.2-.2-.7-.3-1,1.5,2.1,4.1,5.6,5.2,6.6.7.7,1.5.6,1.9.3.8-.5,1.3-.8-.7-6.6.1,0,.2,0,.2-.1,1.3-.8.6-2.8.3-3.7-.8-2.2-2.6-5.2-3.6-6.8-.3-.4-.8-1.1-1.8-2.4-.2-.2-.3-.5-.5-.6h0l12.9,12.2.6,1.3c.5-.3,1.3-.8,1.6-2.1,1-4.4-4.7-13.9-10.7-21.4-.7-.8-1.3-1.6-1.9-2.3-5.8-7.3-9.2-11.7-21.4-18.3-9.4-5.2-17.7-8.1-26.8-9.6-28-4.4-56.5,5.7-74.4,26.6-7.9,9.3-13.3,19.9-15.9,31.7-2.8,12.6-2.2,25.8,1.5,39.4h0c8,23.9,16,31.5,31.2,41.9h0c10,6.8,22.2,12.9,42.7,12.9s6.1-.1,9.4-.4c14-1.1,34.1-8.3,47.3-21.7l.3-.3c4-4.1,5-5.1,7.4-8.2,1.5-2,8.6-12.3,9.7-16.2,0-.2.3-.8.7-1.6,1-2.5,1.5-3.8,1.5-4,.1-1.7.2-3.4-1.1-3.8h0ZM957.2,457.4c-.1.2-.2.5-.3.8-.3,0-.6,0-.9-.1h0c.2-.3.3-.7.5-1l.8.4h0ZM952.8,466c.9-1.6,1.8-3.2,2.6-4.6-.9,1.9-1.8,3.8-2.1,4.1-.2.1-.3.3-.4.5h0ZM951.5,468.3c-.1.2-.3.5-.4.6.1-.2.2-.5.4-.6ZM938.8,453.7s0,.1-.2.3c0,.1-.2.3-.3.5.3-.4.4-.7.5-.7Z"/>
        </g>
      </g>
    </g>
  </g>
  <g id="roof_mask" class="st7">
    <g>
      <polygon class="st5" points="278.9 202.8 283.8 202.8 281.4 200.2 278.9 202.8"/>
      <polygon class="st5" points="281.4 200.2 283.8 202.8 290.1 202.8 281.4 193.8 272.7 202.8 278.9 202.8 281.4 200.2"/>
      <path class="st5" d="M290.1,202.8h-6.3l217.5,224-217.5-224h-4.9L54.8,434.7l224.1-232h-6.3L51.6,431.6c-1.7,1.8-1.7,4.6.1,6.4.9.8,2,1.3,3.1,1.3s2.4-.5,3.2-1.4l223.3-231.1,216.7,223.2c1.7,1.8,4.6,1.8,6.4,0,1.8-1.7,1.8-4.6,0-6.4l-214.4-220.9Z"/>
    </g>
  </g>
</svg>