<?xml version="1.0" encoding="UTF-8"?>
<svg xmlns="http://www.w3.org/2000/svg" version="1.1" viewBox="0 0 1016 325">
  <!-- Generator: Adobe Illustrator 29.2.1, SVG Export Plug-In . SVG Version: 2.1.0 Build 116)  -->
  <defs>
    <style>
      .st0 {
        fill: #fadd18;
      }

      .st1 {
        fill: #42a74c;
      }

      .st2 {
        fill: #36a0d6;
      }

      .st3 {
        fill: #e70600;
      }

      .st4 {
        fill: #e92c31;
      }

      .st5 {
        fill: #705c86;
      }
    </style>
  </defs>
  <g id="logo">
    <g>
      <g>
        <polygon points="65.8 141.4 105 141.4 105 133 100.6 133 158.5 74.4 216.4 133 212 133 212 141.4 251.2 141.4 250.5 139.9 241.2 137.9 158.5 53 75.9 138 65.9 140 65.8 141.4"/>
        <rect x="146" y="101.5" width="11.2" height="12" rx="1.3" ry="1.3"/>
        <rect x="159.8" y="101.5" width="11.2" height="12" rx="1.3" ry="1.3"/>
        <rect x="146" y="115.4" width="11.2" height="12" rx="1.3" ry="1.3"/>
        <rect x="159.8" y="115.4" width="11.2" height="12" rx="1.3" ry="1.3"/>
        <path class="st4" d="M81.7,119.2l19.5-20.2V34.1c0-5.3-4.3-9.6-9.6-9.6h-.6c-5.3,0-9.6,4.3-9.6,9.6"/>
        <path class="st0" d="M124,34.1c0-5.3-4.3-9.6-9.6-9.6h-.6c-5.3,0-9.6,4.3-9.6,9.6v61.8l19.8-20.5v-41.3Z"/>
        <path class="st1" d="M146.9,34.1c0-5.3-4.3-9.6-9.6-9.6h-.6c-5.3,0-9.6,4.3-9.6,9.6v38.1l19.8-20.5v-17.6Z"/>
        <path class="st2" d="M158.6,39.5l3.3,3.4,7.8,8v-16.8c0-5.3-4.3-9.6-9.6-9.6h-.6c-5.3,0-9.6,4.3-9.6,9.6v14.5l5.4-5.6,3.3-3.4Z"/>
        <path class="st5" d="M192.6,34.1c0-5.3-4.3-9.6-9.6-9.6h-.6c-5.3,0-9.6,4.3-9.6,9.6v20l19.8,20.4v-40.4Z"/>
        <path class="st3" d="M161.4,51.5"/>
        <path d="M285.2,56c-.8-2.9-2.9-2.8-5.1-3-3.1-.6-.2-5.7-3.1-7.6-2.2-1.5-4.7-.5-7.2-.6-18.7-.2-37.6-.5-56.2-.5-1.3,0-3.1.2-3.9.8-1.8,1-2,3.1-2.2,5.9,0,.4,0,.9-.3,1.3-.2.4-.6.5-1.1.6-1.8.2-3.8.8-4.2,3-.4,2.6-.4,11.3-.2,14.4,0,1.1.6,2.8,1.5,3.4,2.4,1.2,25.8,12.5,33.3,16.2.5.3,1.3.5,1.9,1.1.6.6-.5,1.4-1.7,1.4s-1.4.5-1.5,2c-.2,2.6-.3,6.6-.3,9.6l.4,14.9,11,11.3c.9-.5,1.2-1.5,1.2-2.5-.5-7.2-.5-14.4-.7-21.6.1-3.9-.5-7.5-.7-11.5,0-1.2-.4-2.3-1.6-2.3-.5,0-1.3,0-1.6,0-.6,0-.5-.6-.5-1.3,0-2.5-.5-4.2.9-5.9.6-.7,1.7-1,2.5-1.2,10.4-3.3,23.6-4,34.1-7,2.6-.7,5.1-1.6,5.4-4.8.5-4.1.4-12.7-.3-16.2ZM282.1,70.7c0,.8-.2,1.7-.8,2.3-.9.9-2.4,1-3.5,1.3-10.7,2.7-24.3,3.7-34.5,6.9-2.8.8-4.3,2.1-4.4,5.2,0,.2,0,.8-.2.7-7.3-3.5-21-10-28.8-13.7-1.9-.9-3.3-1.6-3.7-1.7-.6-.4-1.4-1.2-1.5-2-.2-1-.8-12.5.5-13.4,1.1-.8,3-.1,2.6,1.6-.4,2.7-.8,7.5,2.7,8.1,2.7,0,49.4,0,64.9,0,1-.1,2.1-.9,2.7-1.7.5-.7.4-.9.4-1.9,0-1.5,0-3.2,0-4.7,0-.8,0-1.2.2-1.4h0c1.1-.5,3-.1,3.2,1.1.1.5.1,1,.2,1.5.2,3.1.1,9.2,0,11.8Z"/>
      </g>
      <g>
        <g id="Letter_S">
          <path d="M299.5,203.6h0c-2.4-4.3-6.2-7.8-11.4-10.7-5.2-2.9-13.8-5.7-25.9-8.6-4.9-1.1-8-2.3-9.2-3.5-1.3-1.2-2-2.6-2-4.1s.8-3.9,2.4-5.4c1.7-1.4,4-2.2,7.2-2.2s7,1,9.2,3,3.7,5.2,4.3,9.5l26-1.7c-1.1-10.1-4.7-17.4-10.7-22-6-4.6-14.7-6.9-26-6.9s-16.6,1.3-21.9,3.8c-5.3,2.5-9.3,6-12,10.5-.8,1.3-1.5,2.7-2,4,7.4,9.3,11.9,20.9,12.1,33.4,5,2.8,11.5,5.2,19.5,7.2,7.4,1.8,12.1,3.6,14.1,5.6,2,2,3,4.2,3,6.7s-1.1,5-3.2,7-5.1,3-9.1,3-9.3-2-12.2-5.9c-1.8-2.4-2.9-6-3.5-10.6l-10.2.7c-4.5,19.1-19.1,34.5-38.1,40.8,0,.5,0,.9.2,1.3.5,1.2,2,1.1,2.6,0,0-.2.2-.3.2-.5.2.1.5.2.8.3-.3,1.4-.6,2.8-.2,3.9.5,1.9,2.7,1.6,3.3,0,.6-1.6,0-3.4-.4-5.2.2,0,.3-.1.6-.1.6,0,.9.3,1.3.6,0,.7,0,1.3.5,1.7.9.7,1.8,0,2.3-1,.3-.7.4-1.4.3-2.1,0-.1.1-.2.3-.3.8-.4,2,0,2.8-.2.4,0,1-.6,1.1-.8.5-.6.5-1.1.8-1.6.2-.3.3-.7.5-1,.3,0,.6-.1,1-.3.9-.4,1.7-1.4,2.4-2.5.3.4.8.6,1.3.3,1-.5,1.8-1.8,3.1-2.4.1.4.2.8.2,1.1,0,1.1-1.7,5.4.2,5.5,1.1,0,1.2-2.1,1.1-2.9-.1-.8-1.2-3.1-.4-3.7.2-.2.6,0,.8.2,1.7.7,2.6,2.7,2.4,4.6-.2,2.5-2.9,6.1-.9,8.3.8.9,2.3.9,3-.1,1.5-2-.5-4.7-.8-6.9,0-.3,0-1.4,0-1.8,0-.2.4-.4.6-.8.2-.5.4-3,1.2-2.8,1,.2-.5,3.4.6,4.3.8.6,1.4-.9,1.5-1.6.1-.8-.3-3.9,0-4.2,0,0,0,0,0,0,.1.1.3.2.4.3.3.7,1,1.3,1.7,2.2,1.1,1.4,1.7,3.2,4.5,4,1,.3,2.3.4,3.2.8.2,0,.3.2.5.3.2.6.3,1.3.6,1.9.2.6.7,2.1,1.4,1.4.4-.4.8-1.3,1.3-2,.3-.1.6-.3.9-.6.2-.2.4-.4.7-.7h.2c.6,0,1,.5,1.7.3.8-.2,1.3-1.5,2-1.7,1.3-.3,1.8,2.9,3.6,1.4,0,0,.2-.1.2-.2,1,4.1,1.5,7.9.7,10.7-1.5,5-8.3,7.5-7.6,13.5.5,4.9,5.6,6.5,7.7,2.9,2.3-4,.8-7.7,1.2-11.9.7-6.6,4.9-14.1,10.1-15.8,3.8-1.2,4.8,2.7,2.8,6.3-.8,1.3-2.3,1.8-2.1,3.9.2,2,2.1,3.5,3.6,3,2.3-.8,1.6-5.5,1.8-7.8.5-6.2,2.6-8.5,6.6-10.5,1.1-.4,2.1-.8,3.1-1.3.2,0,.4-.2.6-.3.4-.2.8-.3,1.2-.4,0,0,0-.1,0-.2,4.9-2.7,8.7-6.4,11.5-11,3.2-5.3,4.8-11,4.8-17.2s-1.2-10.1-3.5-14.4h0Z"/>
        </g>
        <g id="Letter_N">
          <path d="M122.3,203.7c0-11.3,3.5-21.9,9.4-30.8v-22h-25.3v53.6l-32.7-53.6h-25.1v91.7c-.1,2.7-.1,4.2,0,5.3h0c.2,1.2.6,1.8,1.2,2.8.6.9.3,2.3.6,3.2.2.7.8,1.1,1.4.8.9-.4.5-1.3,2-.8,1,.3.9,2.5.8,3.4,0,.8-.1,2-.2,2.8-.2,1-.8,1.8,0,2.8.7,1,2,1.1,2.8.2.8-1,0-2.1,0-3.1-.2-2.1,1.5-4.3,1.9-6.6,0,0,.1-.8.3-1.4.4.5.9.7,1.6.4,1.1,2.7,1.3,3.8,1.3,5.3,0,2.5-3.6,6.1-1.2,8.3,1,.9,2.9.9,3.8-.1,1.8-2-.6-4.7-.9-6.9,0-.3-.1-1.4,0-1.8,0-.2.3-1.5.6-1.8.2-.5.6-1.9,1.7-1.8,1.2.2-.6,3.4.8,4.3.9.6,1.8-.9,1.9-1.6.1-.8-.3-3.9,0-4.2,0-.1.2-.1.4-.1.9,0,.8,2.1,2.9.5,1.4-1,1.8-3,1.9-4.7h.1v-53.2l32.5,53.2h0c1.3,2.7,2.5,5.6,3,7.7.3,1.8,0,1.6-.2,3-.3,2.8,3,3.5,3.8,1.1.5-1.4-.8-2.1-.3-3.4.6,0,1.1-.1,1.7-.5,1-.9,1.2-3.3,2.9-3,.6,1.8,2.4,3.8,2.3,5.9-.1,1.1-.9,2.1,0,3.1.8,1,2.1.9,2.7-.2s0-1.8,0-2.8c-.1-.8-.2-2-.2-2.8,0-.9-.2-3,.8-3.4,1.5-.5,1.1,1.1,2,1.5.6.3,1.5-.1,1.8-.8,0-.3.1-.7.1-1.2,0,0,.2.2.2.2,1.9,1.5,2.4-1.7,3.8-1.4.7.2,1.2,1.4,2,1.7.5,1.2.8,2.4.9,3.5.3,4-3.9,8.6-1.8,12.3,1.7,3,5.9,1.9,6.4-1.5.6-3.7-1.6-5.4-2.4-8.4-.5-1.8-.7-3.8-.5-5.9,1,.6,1.5,2.2,2.2,3,0,.8.4,1.5,1.8,1.5.8,0,1.1-.4,1.3-.9.3-.8.8-4.3,2.2-4.3.5,0,.9,1.4,1.1,1.7.5,1.4,1.2,4.5.8,5.9-.3,1.2-1.8,3-.2,4,1.4,1,3.7.3,3.9-1,.2-1-1-2.6-1.3-3.6-.4-1.2-.4-2.4.4-3.6,1.2.2.6,1.5.8,2.2.2.7,1.3,1.1,1.5.2.3-1,0-2.4.3-3.3,0-.4.6-1,1.2-.9,1.3.2,1,2.1,1.3,2.7.6,1.3,2,.6,2.1-.5,0-.4,0-.8,0-1.3-19.2-9.3-32.3-28.4-32.3-50.6h-.2Z"/>
        </g>
        <g id="Letter_C">
          <g>
            <path d="M216.2,218s0,0-.1.2c0,0-.1.2-.2.3.2-.3.3-.5.3-.5Z"/>
            <path d="M215.8,218.5c0-.1.2-.2.2-.3,0-.1.1-.2.1-.2,0,0-.2.2-.3.5Z"/>
            <path d="M231.3,217.6c-.2,0-.7-.2-1.1.3,0-.5-.1-.7-.2-.8-.2-.3-.6-.5-.9-.5s-1.3,0-3.3,4.5c-.5,1-1.2,2.3-1.9,3.7,0,0-.1,0-.2-.1,2.8-4.9,2.8-5.4,2.9-5.7,0-.5,0-1.4-.8-1.6-.8-.2-1.2.5-1.6,1.1,0,.2-.3.5-.5.7,0-.7.2-1.8.6-3.7.2-.8.3-1.5-.5-1.8-.1,0-.2,0-.4,0,0-.7-.2-1-.7-1.2-.9-.3-1.2.7-1.4,1-.1.3-.8,1.7-1.9,3.6-.3-.3-.7-.3-1.1-.3s-.7.3-.9.7l-1.4,2.8h-.5c.3-.4.6-1,.9-1.3,0-.1.2-.2.2-.3.2-.3.5-.7.2-1.2l-.3-.5h-.6c-.3,0-.4,0-.8.5h0c0,.1-.2.3-.3.4-.4.5-1.1,1.4-1.9,2.4,0-.3,0-.5-.3-.7-.2-.2-.7-.5-1.5.2-1.4,1.3-3.8,3.5-4.9,4.5-6.2,5.4-13.6,8.3-21.5,8.5-7.1.2-14.2-1.9-20-6-8.4-5.9-15.6-17.4-10.4-31.9,3.3-9.4,11.6-16.4,22.1-18.7,11.3-2.5,23,.8,30.6,8.7l1,1.1.5-1.4c.3-.7.2-1.3,0-1.7.6.8,1.3,1.6,1.9,2.4.8,1,1.4,1.9,1.9,2.4.4.3,1.2,1.1,2,.6.7-.4.5-1.3.5-1.7h0c0-.2-.1-.4-.2-.5l.6-.2,2,3.3c.2.3.6.6,1,.6.2,1.1.6,1.8,1.4,1.9.4,0,.8,0,1-.4.4-.5.2-1.1,0-1.8,0-.2-.2-.5-.2-.7,1.1,1.4,2.8,3.8,3.5,4.5.5.5,1,.4,1.3.2.5-.3.9-.6-.5-4.5,0,0,.1,0,.2,0,.9-.6.4-1.9.2-2.5-.6-1.5-1.8-3.5-2.4-4.6-.2-.3-.6-.8-1.2-1.6-.1-.2-.2-.3-.3-.4h0l8.8,8.3.4.9c.4-.2.9-.6,1.1-1.4.7-3-3.2-9.4-7.3-14.5-.5-.5-.9-1.1-1.3-1.6-3.9-4.9-6.3-7.9-14.7-12.4-6.5-3.5-12.1-5.5-18.3-6.5-19.2-3-38.8,3.9-51,18-5.4,6.3-9.1,13.5-10.9,21.4-1.9,8.5-1.5,17.5,1.1,26.6h0c5.5,16.1,11,21.3,21.3,28.4h0c6.9,4.6,15.2,8.8,29.2,8.8s4.2,0,6.5-.3c9.6-.8,23.4-5.6,32.4-14.7l.2-.2c2.7-2.7,3.4-3.4,5.1-5.5,1.1-1.4,5.9-8.3,6.7-11,0-.1.2-.6.5-1.1.7-1.7,1-2.6,1.1-2.7,0-1.1.2-2.3-.8-2.6h0ZM228.8,220.5c0,.2-.2.3-.2.5-.2,0-.4,0-.6,0h0c.1-.2.2-.5.3-.7l.6.3h0ZM225.8,226.4c.6-1.1,1.2-2.2,1.8-3.1-.6,1.3-1.2,2.6-1.5,2.8-.1,0-.2.2-.3.3h0ZM224.9,227.9c0,.2-.2.3-.3.4,0-.2.2-.3.3-.4ZM216.2,218s0,0-.1.2c0,0-.1.2-.2.3.2-.3.3-.5.3-.5Z"/>
          </g>
        </g>
      </g>
    </g>
  </g>
  <g id="logo_2">
    <g>
      <g id="Letter_S1" data-name="Letter_S">
        <path d="M915.9,175h0c-2.1-3.6-5.4-6.7-9.9-9.1-4.6-2.5-12.1-4.9-22.7-7.3-4.3-.9-7-1.9-8.1-3-1.2-1-1.7-2.2-1.7-3.5s.7-3.3,2.1-4.6c1.4-1.2,3.5-1.9,6.3-1.9s6.1.8,8,2.5,3.2,4.4,3.8,8.1l22.8-1.4c-1-8.6-4.1-14.8-9.4-18.7-5.2-3.9-12.8-5.9-22.8-5.9s-14.5,1.1-19.2,3.2c-4.7,2.1-8.2,5.1-10.5,8.9-.7,1.1-1.3,2.3-1.8,3.4,6.5,7.9,10.4,17.7,10.6,28.4,4.3,2.4,10,4.4,17.1,6.1,6.5,1.5,10.6,3.1,12.4,4.8,1.8,1.7,2.7,3.6,2.7,5.7s-.9,4.2-2.8,6-4.5,2.6-8,2.6-8.2-1.7-10.7-5c-1.5-2-2.5-5.1-3-9l-8.9.6c-4,16.2-16.8,29.3-33.4,34.7,0,.4,0,.8.2,1.1.4,1,1.8.9,2.2,0,0-.1.1-.3.2-.4.2,0,.4.2.7.2-.3,1.2-.5,2.4-.2,3.3.4,1.6,2.4,1.4,2.9,0,.6-1.4,0-2.9-.3-4.4.1,0,.3,0,.5,0,.6,0,.8.3,1.1.5,0,.6,0,1.1.4,1.4.8.6,1.6,0,2-.8.3-.6.3-1.2.3-1.7,0,0,0-.2.2-.2.7-.3,1.7,0,2.5-.1.3,0,.9-.5,1-.6.4-.5.4-.9.7-1.4.1-.3.3-.6.4-.8.2,0,.6,0,.9-.3.8-.4,1.5-1.2,2.1-2.1.3.3.7.6,1.2.3.9-.4,1.6-1.6,2.7-2.1,0,.4.1.7.1,1,0,.9-1.5,4.6.1,4.7.9,0,1.1-1.7,1-2.5,0-.7-1.1-2.6-.4-3.1.2-.1.5,0,.7.1,1.5.6,2.2,2.3,2.1,3.9-.2,2.1-2.6,5.2-.8,7.1.7.7,2,.7,2.7,0,1.3-1.7-.4-4-.7-5.9,0-.3,0-1.2,0-1.5,0-.2.4-.4.5-.6.2-.4.3-2.5,1.1-2.4.9.2-.4,2.9.5,3.7.7.5,1.3-.8,1.3-1.3,0-.7-.2-3.3,0-3.6,0,0,0,0,0,0,0,0,.2.2.3.3.3.6.9,1.1,1.5,1.9,1,1.2,1.5,2.7,4,3.4.9.3,2,.4,2.8.7.1,0,.3.2.4.3.1.6.3,1.1.5,1.6.2.5.6,1.8,1.2,1.2.4-.4.7-1.1,1.1-1.7.2,0,.5-.2.8-.5.2-.1.3-.3.6-.6h.2c.6,0,.9.4,1.5.2.7-.2,1.1-1.3,1.7-1.5,1.2-.3,1.6,2.5,3.2,1.2,0,0,.1,0,.2-.2.9,3.5,1.3,6.7.6,9.1-1.3,4.3-7.2,6.4-6.7,11.5.4,4.1,4.9,5.6,6.8,2.4,2-3.4.7-6.5,1.1-10.1.6-5.6,4.3-12,8.9-13.4,3.4-1,4.2,2.3,2.5,5.3-.7,1.1-2,1.6-1.8,3.3.1,1.7,1.8,3,3.1,2.6,2-.7,1.4-4.7,1.6-6.6.4-5.3,2.2-7.2,5.8-8.9,1-.3,1.9-.7,2.7-1.1.2,0,.3-.2.5-.2.3-.1.7-.3,1.1-.4,0,0,0,0,0-.1,4.3-2.3,7.6-5.4,10.1-9.4,2.8-4.5,4.2-9.3,4.2-14.6s-1-8.6-3.1-12.2h0Z"/>
      </g>
      <g id="Letter_N1" data-name="Letter_N">
        <path d="M760.7,175.1c0-9.6,3-18.6,8.3-26.1v-18.7h-22.2v45.6l-28.6-45.6h-22v77.9c0,2.3,0,3.6,0,4.5h0c.1,1,.5,1.5,1.1,2.4.5.7.3,2,.5,2.7.2.6.7.9,1.2.7.8-.3.4-1.1,1.7-.6.9.3.8,2.1.7,2.9,0,.7,0,1.7-.2,2.4-.1.8-.7,1.6,0,2.4.6.9,1.7.9,2.4.1.7-.9,0-1.7,0-2.7-.2-1.7,1.3-3.6,1.7-5.6,0,0,0-.7.3-1.2.3.4.8.6,1.4.4,1,2.3,1.2,3.3,1.2,4.5,0,2.1-3.2,5.2-1,7.1.9.7,2.5.7,3.3,0,1.6-1.7-.6-4-.8-5.9,0-.3,0-1.2,0-1.5,0-.2.3-1.3.5-1.6.2-.4.6-1.6,1.4-1.5,1.1.2-.5,2.9.7,3.7.8.5,1.6-.8,1.7-1.3,0-.7-.3-3.3,0-3.6,0,0,.2,0,.3,0,.8,0,.7,1.7,2.5.4,1.2-.9,1.5-2.6,1.6-4h0v-45.2l28.5,45.2h0c1.2,2.3,2.2,4.8,2.6,6.6.3,1.5,0,1.3-.1,2.6-.3,2.4,2.7,2.9,3.4,1,.4-1.2-.7-1.8-.3-2.9.6,0,1,0,1.4-.4.9-.7,1.1-2.8,2.5-2.6.5,1.6,2.1,3.2,2,5,0,.9-.8,1.7,0,2.7.7.8,1.8.7,2.4-.1s0-1.6,0-2.4c0-.7-.2-1.7-.2-2.4,0-.7-.1-2.6.7-2.9,1.3-.4,1,1,1.7,1.3.5.2,1.3,0,1.5-.7,0-.2,0-.6,0-1,0,0,.1.1.2.2,1.6,1.3,2.1-1.5,3.3-1.2.6.1,1,1.2,1.8,1.5.4,1,.7,2.1.8,3,.3,3.4-3.4,7.3-1.6,10.4,1.5,2.5,5.1,1.6,5.6-1.3.5-3.1-1.4-4.6-2.1-7.1-.4-1.5-.6-3.3-.4-5,.9.5,1.4,1.9,1.9,2.5,0,.7.3,1.3,1.6,1.3.7,0,1-.3,1.1-.8.3-.7.7-3.6,1.9-3.7.4,0,.8,1.2.9,1.5.4,1.2,1,3.9.7,5-.3,1-1.6,2.5-.2,3.4,1.2.8,3.2.3,3.5-.9.1-.8-.9-2.2-1.2-3-.4-1-.4-2.1.3-3,1,.1.6,1.3.7,1.8.2.6,1.1,1,1.3.2.2-.8,0-2,.2-2.8,0-.3.5-.8,1.1-.8,1.2.1.9,1.7,1.2,2.3.5,1.1,1.8.5,1.9-.4,0-.4,0-.7,0-1.1-16.8-7.9-28.3-24.2-28.3-43h-.2Z"/>
      </g>
      <g id="Letter_C1" data-name="Letter_C">
        <g>
          <path d="M842.9,187.2s0,0,0,.2c0,0,0,.2-.2.3.2-.2.3-.4.3-.4Z"/>
          <path d="M842.6,187.6c0,0,.2-.2.2-.3,0,0,0-.1,0-.2,0,0-.1.2-.3.4Z"/>
          <path d="M856.1,186.9c-.2,0-.6-.1-1,.3,0-.4,0-.6-.2-.7-.2-.3-.5-.4-.8-.4s-1.1,0-2.9,3.9c-.4.8-1,2-1.6,3.1,0,0,0,0-.2,0,2.5-4.1,2.5-4.6,2.5-4.8,0-.4,0-1.2-.7-1.4-.7-.2-1.1.4-1.4,1,0,.1-.2.4-.4.6,0-.6.2-1.6.5-3.2.1-.7.3-1.3-.4-1.5,0,0-.2,0-.3,0,0-.6-.1-.9-.6-1-.8-.2-1.1.6-1.2.9,0,.3-.7,1.5-1.6,3.1-.3-.2-.6-.3-.9-.2s-.6.3-.8.6l-1.2,2.4h-.4c.2-.3.6-.8.8-1.1,0,0,.2-.2.2-.3.2-.2.4-.6.2-1l-.2-.5h-.5c-.3,0-.4,0-.7.4h0c0,0-.2.2-.3.4-.3.4-1,1.2-1.7,2,0-.2,0-.4-.3-.6-.1-.1-.6-.5-1.3.1-1.2,1.1-3.4,3-4.3,3.8-5.4,4.6-12,7.1-18.8,7.2-6.3.2-12.5-1.7-17.6-5.1-7.4-5-13.7-14.8-9.2-27.1,2.9-8,10.1-13.9,19.4-15.9,9.9-2.1,20.2.7,26.8,7.4l.9.9.5-1.2c.2-.6.1-1.1,0-1.5.6.6,1.2,1.4,1.6,2.1.7.9,1.2,1.6,1.7,2,.3.3,1.1.9,1.7.5.6-.4.5-1.1.4-1.4h0c0-.2,0-.3-.2-.4h.5c0-.1,1.8,2.7,1.8,2.7.2.3.5.5.9.5.1,1,.6,1.5,1.2,1.6.4,0,.7,0,.9-.3.4-.5.2-1,0-1.5,0-.1-.1-.4-.2-.6.9,1.2,2.5,3.2,3.1,3.8.4.4.9.3,1.2.2.5-.3.8-.5-.4-3.8,0,0,0,0,.1,0,.8-.5.4-1.6.2-2.1-.5-1.3-1.5-3-2.1-3.9-.2-.2-.5-.6-1.1-1.4,0-.1-.2-.3-.3-.4h0l7.7,7,.4.7c.3-.2.8-.5,1-1.2.6-2.5-2.8-8-6.4-12.3-.4-.5-.8-.9-1.1-1.3-3.5-4.2-5.5-6.7-12.9-10.5-5.7-3-10.6-4.7-16.1-5.5-16.8-2.6-33.9,3.3-44.7,15.3-4.7,5.3-8,11.5-9.5,18.2-1.7,7.2-1.4,14.9.9,22.7h0c4.8,13.7,9.6,18.1,18.7,24.1h0c6,3.9,13.3,7.4,25.6,7.4s3.7,0,5.7-.2c8.4-.6,20.5-4.8,28.4-12.5l.2-.2c2.4-2.3,3-2.9,4.4-4.7.9-1.2,5.2-7.1,5.8-9.3,0,0,.2-.5.4-.9.6-1.4.9-2.2.9-2.3,0-1,.1-1.9-.7-2.2h0ZM853.9,189.4c0,.1-.1.3-.2.5-.2,0-.4,0-.6,0h0c0-.2.2-.4.3-.6l.5.2h0ZM851.3,194.3c.5-.9,1.1-1.8,1.5-2.7-.5,1.1-1.1,2.2-1.3,2.4,0,0-.2.2-.2.3h0ZM850.5,195.6c0,.1-.2.3-.2.4,0-.1.1-.3.2-.4ZM842.9,187.2s0,0,0,.2c0,0,0,.2-.2.3.2-.2.3-.4.3-.4Z"/>
        </g>
      </g>
    </g>
    <g>
      <polygon points="715.3 119.8 749.1 119.8 749.1 112.6 745.4 112.6 795.3 62.5 845.3 112.6 841.6 112.6 841.6 119.8 875.4 119.8 874.8 118.5 866.8 116.8 795.3 44.2 724 116.9 715.4 118.6 715.3 119.8"/>
      <rect x="784.5" y="85.7" width="9.7" height="10.2" rx="1.3" ry="1.3"/>
      <rect x="796.4" y="85.7" width="9.7" height="10.2" rx="1.3" ry="1.3"/>
      <rect x="784.5" y="97.5" width="9.7" height="10.2" rx="1.3" ry="1.3"/>
      <rect x="796.4" y="97.5" width="9.7" height="10.2" rx="1.3" ry="1.3"/>
      <path class="st4" d="M729,100.8l16.8-17.3V28c0-4.5-3.7-8.2-8.3-8.2h-.5c-4.6,0-8.3,3.7-8.3,8.2"/>
      <path class="st0" d="M765.6,28c0-4.5-3.7-8.2-8.3-8.2h-.5c-4.6,0-8.3,3.7-8.3,8.2v52.8l17.1-17.6V28Z"/>
      <path class="st1" d="M785.3,28c0-4.5-3.7-8.2-8.3-8.2h-.5c-4.6,0-8.3,3.7-8.3,8.2v32.6l17.1-17.6v-15.1Z"/>
      <path class="st2" d="M795.5,32.7l2.9,2.9,6.7,6.8v-14.4c0-4.5-3.7-8.2-8.3-8.2h-.5c-4.6,0-8.3,3.7-8.3,8.2v12.4l4.7-4.8,2.9-2.9Z"/>
      <path class="st5" d="M824.8,28c0-4.5-3.7-8.2-8.3-8.2h-.5c-4.6,0-8.3,3.7-8.3,8.2v17.1l17.1,17.5V28Z"/>
      <path d="M899.2,48.8c-.6-2.3-2.3-2.2-4-2.3-2.5-.5-.2-4.5-2.5-6-1.7-1.2-3.7-.4-5.6-.5-14.8-.2-29.7-.4-44.4-.4-1,0-2.4.2-3.1.6-1.4.8-1.6,2.4-1.8,4.7,0,.3,0,.7-.2,1-.2.3-.5.4-.8.5-1.4.2-3,.6-3.3,2.4-.3,2-.3,8.9-.1,11.3,0,.9.5,2.2,1.2,2.7,1.9.9,20.3,9.9,26.3,12.7.4.3,1,.4,1.5.9.4.5-.4,1.1-1.4,1.1s-1.1.4-1.2,1.6c-.2,2-.3,5.2-.2,7.6l.3,11.7,8.6,8.9c.7-.4,1-1.2.9-2-.4-5.7-.4-11.4-.6-17,0-3.1-.4-6-.5-9.1,0-.9-.4-1.8-1.3-1.8-.4,0-1,0-1.2,0-.5,0-.4-.4-.4-1,0-2-.4-3.3.7-4.6.4-.5,1.3-.8,2-1,8.2-2.6,18.6-3.1,26.9-5.5,2.1-.5,4-1.3,4.3-3.8.4-3.3.3-10-.2-12.8ZM896.8,60.3c0,.6-.2,1.3-.6,1.8-.7.7-1.9.8-2.8,1-8.5,2.2-19.2,2.9-27.2,5.5-2.2.6-3.4,1.6-3.5,4.1,0,.1,0,.6-.1.6-5.8-2.7-16.5-7.9-22.7-10.8-1.5-.7-2.6-1.2-2.9-1.4-.5-.3-1.1-.9-1.2-1.6-.2-.8-.6-9.8.4-10.6.9-.6,2.3,0,2.1,1.2-.3,2.1-.6,5.9,2.1,6.4,2.1,0,39,0,51.2,0,.8-.1,1.7-.7,2.1-1.4.4-.5.3-.7.3-1.5,0-1.2,0-2.5,0-3.7,0-.6,0-1,.2-1.1h0c.9-.4,2.3,0,2.5.9.1.4.1.8.1,1.2.1,2.4,0,7.3,0,9.3Z"/>
    </g>
  </g>
</svg>