<?xml version="1.0" encoding="UTF-8"?>
<svg xmlns="http://www.w3.org/2000/svg" version="1.1" viewBox="0 0 600 300">
  <!-- Generator: Adobe Illustrator 29.2.1, SVG Export Plug-In . SVG Version: 2.1.0 Build 116)  -->
  <defs>
    <style>
      .st0 {
        display: none;
      }
    </style>
  </defs>
  <g id="Layer_1" class="st0">
    <g id="Layer_2">
      <path d="M586.7,121.1c-6.5-9.6-16.8-17.6-31-24.1s-37.7-12.9-70.5-19.2c-13.3-2.5-21.7-5.1-25.2-8-3.6-2.8-5.5-5.9-5.5-9.3s2.2-8.8,6.6-12.1c4.4-3.3,11-5,19.7-5s18.9,2.2,24.9,6.7c6,4.4,10,11.6,11.9,21.3l70.8-3.7c-3.1-22.5-12.8-38.9-29.1-49.3-16.3-10.3-40-15.5-71-15.5s-45.2,2.8-59.7,8.5c-14.5,5.7-25.4,13.5-32.6,23.4-7.2,9.9-10.9,20.5-10.9,31.6,0,17,7.1,31,21.2,41.9,14,11,37.5,19.8,70.4,26.4,20.1,4,32.9,8.1,38.5,12.6,5.5,4.4,8.3,9.5,8.3,15.1s-2.9,11.1-8.7,15.6-14.1,6.7-24.8,6.7-25.4-4.4-33.1-13.2c-4.8-5.4-7.9-13.3-9.4-23.7l-71.4,4c.4,4.2,1,8.2,1.9,12.1-11.7,3.7-20,10.5-20.7,18.5,0,1,0,2.1.2,3.1-4-.6-8.3-.8-12.8-.6-18.1.8-33.8,9.1-33.8,18.8s-7.9,10.9-13.3,17.7c-2,.6-3.7,1.3-5.1,2.1-9.4,5.3,2.6,8.1,7.7,12.8,1.2,1.1,3,4.3,7,4.9,1.7.3,3.5.2,5-.1,2.6-.6,1.9-2.2,3.7-3.1-.3,2.2-.4,4.2.4,5.8,1.4,2.7,5.5,2.5,7,0,.2-.4.4-.8.5-1.2.5.3,1.2.5,2.2.6-.8,3.1-1.5,6.2-.6,8.7,1.4,4.1,7.3,3.6,9,0,1.7-3.7-.2-7.7-1-11.7.4-.1.9-.2,1.6-.3,1.7,0,2.5.7,3.6,1.3,0,1.6.2,2.9,1.4,3.7,2.3,1.6,5,0,6.3-2.2.9-1.5,1.1-3.1.9-4.6.1-.2.4-.4.7-.6,2.1-.9,5.4.1,7.6-.3,1-.2,2.6-1.3,3.1-1.7,1.4-1.2,1.3-2.4,2-3.6.4-.8.9-1.5,1.4-2.1.8,0,1.7-.3,2.6-.7,2.5-1,4.6-3.3,6.5-5.7.9.9,2.1,1.4,3.6.7,2.6-1.2,5-4,8.4-5.5.3,1,.5,1.9.4,2.5-.1,2.4-4.6,12.2.5,12.4,2.9.1,3.4-4.6,3.1-6.5s-3.3-6.9-1.2-8.3c.6-.4,1.6.1,2.2.3,4.7,1.6,7.1,6,6.7,10.4-.5,5.6-8,13.6-2.5,18.6,2.2,2,6.4,1.9,8.3-.2,4-4.5-1.4-10.6-2.1-15.4-.1-.8-.2-3.2,0-3.9.2-.5,1.1-.9,1.5-1.7.6-1.1,1-6.7,3.3-6.3,2.6.5-1.3,7.7,1.6,9.6,2,1.3,4-2,4.2-3.5.3-1.8-.7-8.7-.1-9.4h.2c.4,0,.7.4,1.1.6.9,1.5,2.7,3,4.6,5,3,3.1,4.6,7.1,12.3,9,2.8.7,6.4.9,8.8,1.9.5.2.9.4,1.4.7.4,1.4.9,2.9,1.6,4.3.6,1.3,1.9,4.7,3.8,3.2,1.2-1,2.2-2.9,3.5-4.5.7-.2,1.5-.6,2.3-1.2.5-.4,1.1-.9,1.8-1.6h.6c1.7,0,2.8,1.1,4.6.6,2.2-.6,3.5-3.5,5.3-3.8,3.6-.7,5,6.5,9.9,3.1.2-.1.4-.3.6-.4,2.8,9.1,4.2,17.7,1.9,24.1-4.1,11.2-22.6,16.9-20.8,30.2,1.4,10.8,15.2,14.7,21.1,6.4,6.3-9,2-17.2,3.3-26.7,2-14.8,13.3-31.6,27.6-35.4,10.4-2.7,13.2,6.1,7.7,14.1-2.1,3-6.2,4.1-5.8,8.7h0c.5,4.5,5.8,8,9.8,6.8,6.4-1.8,4.4-12.3,4.8-17.5,1.3-13.9,7-19,18-23.5,3-.9,5.8-1.8,8.5-2.9.5-.2,1-.4,1.5-.6,1.1-.3,2.2-.7,3.3-1,0-.1,0-.2-.2-.4,13.2-6,23.7-14.2,31.5-24.8,8.6-11.8,12.9-24.6,12.9-38.5s-3.2-22.6-9.7-32.2h0v.2Z"/>
    </g>
    <g id="Layer_6">
      <path d="M298.2,209.7c-4.9-9.5-22.7-14.3-37.6-11.3v-1.4c0-12.6-12.4-23.4-26.6-24.5h-2.5V3h-69.1v120.2L73.2,3H4.8v205.4c-.3,6.1-.4,9.5,0,11.7h0c.4,2.8,1.5,3.9,3.3,6.2,1.6,1.9.9,5.2,1.5,7,.6,1.6,2.1,2.5,3.8,1.9,2.4-.9,1.4-2.8,5.5-1.7,2.7.7,2.3,5.6,2.3,7.6s-.3,4.5-.6,6.3c-.4,2.2-2,4.1-.3,6.3,1.8,2.3,5.4,2.5,7.5.4,2.3-2.3.1-4.6-.1-7-.5-4.6,4.1-9.6,5.2-14.8.2,0,.3-1.8,1-3.1,1,1.1,2.4,1.6,4.3.9,3,6,3.7,8.6,3.6,11.9,0,5.6-9.9,13.6-3.1,18.6,2.7,2,7.9,1.9,10.3-.2,5-4.5-1.7-10.6-2.5-15.4,0-.8-.3-3.2,0-3.9.2-.5,1-3.3,1.4-4.1.7-1.1,1.7-4.3,4.5-3.9,3.3.5-1.6,7.7,2,9.6,2.5,1.3,4.9-2,5.2-3.5.3-1.8-.9-8.7-.2-9.4.2-.3.7-.3,1-.2,2.5.2,2,4.6,7.8,1.1,3.8-2.3,4.8-6.8,5.1-10.6h.3v-119.3l88.8,119.3h.2c3.6,6.1,6.9,12.6,8.1,17.4,1,3.9,0,3.5-.5,6.7-.9,6.2,8.3,7.8,10.5,2.5,1.3-3.1-2.1-4.7-.9-7.7,1.7,0,3.1-.2,4.4-1.2,2.7-1.9,3.4-7.5,7.9-6.8,1.6,4.1,6.7,8.5,6.2,13.1-.3,2.4-2.4,4.6-.1,7,2.1,2.1,5.7,1.9,7.5-.4,1.7-2.3.1-4.1-.3-6.3-.3-1.8-.5-4.4-.6-6.3,0-1.9-.4-6.8,2.2-7.6,4-1.1,3.1,2.6,5.4,3.5,1.6.6,4.2-.3,4.8-1.9.2-.6.3-1.6.4-2.7.2.2.4.3.6.5,5.1,3.4,6.5-3.8,10.2-3.1,1.9.3,3.2,3.3,5.5,3.8h0c1.3,2.8,2.1,5.5,2.3,7.9.8,8.9-10.6,19.3-4.9,27.4,4.7,6.6,16,4.1,17.4-3.5,1.6-8.2-4.4-12-6.7-18.7-1.4-4-1.8-8.6-1.4-13.2,2.7,1.3,4.2,5,6.1,6.7.2,1.8,1.1,3.4,4.9,3.4s2.9-.9,3.6-2c1-1.8,2-9.5,6-9.7,1.3,0,2.6,3.2,2.9,3.8,1.3,3.2,3.2,10.2,2.2,13.3-.9,2.8-5,6.6-.7,9,3.8,2.1,10,.7,10.7-2.3.5-2.1-2.6-5.8-3.6-8-1.2-2.8-1.2-5.4,1-8,3.2.3,1.7,3.4,2.2,4.9.6,1.6,3.5,2.5,4.2.5.8-2.2.2-5.3.8-7.6.2-.9,1.5-2.2,3.3-2,3.6.4,2.8,4.6,3.6,6.1,1.5,2.9,5.5,1.2,5.9-1.2.6-4-2.7-7.4.5-11.6,1.2-1.5,3-2.2,3.8-4,1.6-3.5,1.9-8.7,0-12.2h.2Z"/>
    </g>
  </g>
  <g id="Layer_21" data-name="Layer_2">
    <g id="Layer_22" data-name="Layer_2">
      <path d="M586.7,121.1c-6.5-9.6-16.8-17.6-31-24.1s-37.7-12.9-70.5-19.2c-13.3-2.5-21.7-5.1-25.2-8-3.6-2.8-5.5-5.9-5.5-9.3s2.2-8.8,6.6-12.1c4.4-3.3,11-5,19.7-5s18.9,2.2,24.9,6.7c6,4.4,10,11.6,11.9,21.3l70.8-3.7c-3.1-22.5-12.8-38.9-29.1-49.3-16.3-10.3-40-15.5-71-15.5s-45.2,2.8-59.7,8.5c-14.5,5.7-25.4,13.5-32.6,23.4-7.2,9.9-10.9,20.5-10.9,31.6,0,17,7.1,31,21.2,41.9,14,11,37.5,19.8,70.4,26.4,20.1,4,32.9,8.1,38.5,12.6,5.5,4.4,8.3,9.5,8.3,15.1s-2.9,11.1-8.7,15.6-14.1,6.7-24.8,6.7-25.4-4.4-33.1-13.2c-4.8-5.4-7.9-13.3-9.4-23.7l-71.4,4c.4,4.2,1,8.2,1.9,12.1-11.7,3.7-20,10.5-20.7,18.5,0,1,0,2.1.2,3.1-4-.6-8.3-.8-12.8-.6-18.1.8-33.8,9.1-33.8,18.8s-7.9,10.9-13.3,17.7c-2,.6-3.7,1.3-5.1,2.1-9.4,5.3,2.6,8.1,7.7,12.8,1.2,1.1,3,4.3,7,4.9,1.7.3,3.5.2,5-.1,2.6-.6,1.9-2.2,3.7-3.1-.3,2.2-.4,4.2.4,5.8,1.4,2.7,5.5,2.5,7,0,.2-.4.4-.8.5-1.2.5.3,1.2.5,2.2.6-.8,3.1-1.5,6.2-.6,8.7,1.4,4.1,7.3,3.6,9,0,1.7-3.7-.2-7.7-1-11.7.4-.1.9-.2,1.6-.3,1.7,0,2.5.7,3.6,1.3,0,1.6.2,2.9,1.4,3.7,2.3,1.6,5,0,6.3-2.2.9-1.5,1.1-3.1.9-4.6.1-.2.4-.4.7-.6,2.1-.9,5.4.1,7.6-.3,1-.2,2.6-1.3,3.1-1.7,1.4-1.2,1.3-2.4,2-3.6.4-.8.9-1.5,1.4-2.1.8,0,1.7-.3,2.6-.7,2.5-1,4.6-3.3,6.5-5.7.9.9,2.1,1.4,3.6.7,2.6-1.2,5-4,8.4-5.5.3,1,.5,1.9.4,2.5-.1,2.4-4.6,12.2.5,12.4,2.9.1,3.4-4.6,3.1-6.5s-3.3-6.9-1.2-8.3c.6-.4,1.6.1,2.2.3,4.7,1.6,7.1,6,6.7,10.4-.5,5.6-8,13.6-2.5,18.6,2.2,2,6.4,1.9,8.3-.2,4-4.5-1.4-10.6-2.1-15.4-.1-.8-.2-3.2,0-3.9.2-.5,1.1-.9,1.5-1.7.6-1.1,1-6.7,3.3-6.3,2.6.5-1.3,7.7,1.6,9.6,2,1.3,4-2,4.2-3.5.3-1.8-.7-8.7-.1-9.4h.2c.4,0,.7.4,1.1.6.9,1.5,2.7,3,4.6,5,3,3.1,4.6,7.1,12.3,9,2.8.7,6.4.9,8.8,1.9.5.2.9.4,1.4.7.4,1.4.9,2.9,1.6,4.3.6,1.3,1.9,4.7,3.8,3.2,1.2-1,2.2-2.9,3.5-4.5.7-.2,1.5-.6,2.3-1.2.5-.4,1.1-.9,1.8-1.6h.6c1.7,0,2.8,1.1,4.6.6,2.2-.6,3.5-3.5,5.3-3.8,3.6-.7,5,6.5,9.9,3.1.2-.1.4-.3.6-.4,2.8,9.1,4.2,17.7,1.9,24.1-4.1,11.2-22.6,16.9-20.8,30.2,1.4,10.8,15.2,14.7,21.1,6.4,6.3-9,2-17.2,3.3-26.7,2-14.8,13.3-31.6,27.6-35.4,10.4-2.7,13.2,6.1,7.7,14.1-2.1,3-6.2,4.1-5.8,8.7h0c.5,4.5,5.8,8,9.8,6.8,6.4-1.8,4.4-12.3,4.8-17.5,1.3-13.9,7-19,18-23.5,3-.9,5.8-1.8,8.5-2.9.5-.2,1-.4,1.5-.6,1.1-.3,2.2-.7,3.3-1,0-.1,0-.2-.2-.4,13.2-6,23.7-14.2,31.5-24.8,8.6-11.8,12.9-24.6,12.9-38.5s-3.2-22.6-9.7-32.2h0v.2Z"/>
    </g>
    <g id="Layer_61" data-name="Layer_6">
      <path d="M298.2,209.7c-4.9-9.5-22.7-14.3-37.6-11.3v-1.4c0-12.6-12.4-23.4-26.6-24.5h-2.5V3h-69.1v120.2L73.2,3H4.8v205.4c-.3,6.1-.4,9.5,0,11.7h0c.4,2.8,1.5,3.9,3.3,6.2,1.6,1.9.9,5.2,1.5,7,.6,1.6,2.1,2.5,3.8,1.9,2.4-.9,1.4-2.8,5.5-1.7,2.7.7,2.3,5.6,2.3,7.6s-.3,4.5-.6,6.3c-.4,2.2-2,4.1-.3,6.3,1.8,2.3,5.4,2.5,7.5.4,2.3-2.3.1-4.6-.1-7-.5-4.6,4.1-9.6,5.2-14.8.2,0,.3-1.8,1-3.1,1,1.1,2.4,1.6,4.3.9,3,6,3.7,8.6,3.6,11.9,0,5.6-9.9,13.6-3.1,18.6,2.7,2,7.9,1.9,10.3-.2,5-4.5-1.7-10.6-2.5-15.4,0-.8-.3-3.2,0-3.9.2-.5,1-3.3,1.4-4.1.7-1.1,1.7-4.3,4.5-3.9,3.3.5-1.6,7.7,2,9.6,2.5,1.3,4.9-2,5.2-3.5.3-1.8-.9-8.7-.2-9.4.2-.3.7-.3,1-.2,2.5.2,2,4.6,7.8,1.1,3.8-2.3,4.8-6.8,5.1-10.6h.3v-119.3l88.8,119.3h.2c3.6,6.1,6.9,12.6,8.1,17.4,1,3.9,0,3.5-.5,6.7-.9,6.2,8.3,7.8,10.5,2.5,1.3-3.1-2.1-4.7-.9-7.7,1.7,0,3.1-.2,4.4-1.2,2.7-1.9,3.4-7.5,7.9-6.8,1.6,4.1,6.7,8.5,6.2,13.1-.3,2.4-2.4,4.6-.1,7,2.1,2.1,5.7,1.9,7.5-.4,1.7-2.3.1-4.1-.3-6.3-.3-1.8-.5-4.4-.6-6.3,0-1.9-.4-6.8,2.2-7.6,4-1.1,3.1,2.6,5.4,3.5,1.6.6,4.2-.3,4.8-1.9.2-.6.3-1.6.4-2.7.2.2.4.3.6.5,5.1,3.4,6.5-3.8,10.2-3.1,1.9.3,3.2,3.3,5.5,3.8h0c1.3,2.8,2.1,5.5,2.3,7.9.8,8.9-10.6,19.3-4.9,27.4,4.7,6.6,16,4.1,17.4-3.5,1.6-8.2-4.4-12-6.7-18.7-1.4-4-1.8-8.6-1.4-13.2,2.7,1.3,4.2,5,6.1,6.7.2,1.8,1.1,3.4,4.9,3.4s2.9-.9,3.6-2c1-1.8,2-9.5,6-9.7,1.3,0,2.6,3.2,2.9,3.8,1.3,3.2,3.2,10.2,2.2,13.3-.9,2.8-5,6.6-.7,9,3.8,2.1,10,.7,10.7-2.3.5-2.1-2.6-5.8-3.6-8-1.2-2.8-1.2-5.4,1-8,3.2.3,1.7,3.4,2.2,4.9.6,1.6,3.5,2.5,4.2.5.8-2.2.2-5.3.8-7.6.2-.9,1.5-2.2,3.3-2,3.6.4,2.8,4.6,3.6,6.1,1.5,2.9,5.5,1.2,5.9-1.2.6-4-2.7-7.4.5-11.6,1.2-1.5,3-2.2,3.8-4,1.6-3.5,1.9-8.7,0-12.2h.2Z"/>
    </g>
  </g>
</svg>