<?xml version="1.0" encoding="UTF-8"?>
<svg id="Layer_1" xmlns="http://www.w3.org/2000/svg" version="1.1" viewBox="0 0 670 280">
  <!-- Generator: Adobe Illustrator 29.2.1, SVG Export Plug-In . SVG Version: 2.1.0 Build 116)  -->
  <defs>
    <style>
      .st0 {
        display: none;
      }
    </style>
  </defs>
  <g id="Layer_6" class="st0">
    <g id="_x35_suutx">
      <g>
        <path d="M622.2,390.9c-.8-.8,3.8-4,4.4-4.6,6-5.7,12.6-13.9,15.2-21.8s-1.1-4.5-4.7-1.6c-6.5,5.3-13.8,9.3-22,11.5s-19.4.6-22.3,11.8,2.4,14.9,2.9,22.8c.7,10.6-13.1,11-13.9,2.2s2.1-10.7,3.1-15.6c1.7-8.5,2.9-20.6-3.5-27.5s-9-4.1-11,1c-3,7.7,5.4,22-.6,27.2s-9,.9-9.7-3.5c-1.1-6.4,2.9-16.3,3.4-23.3,1.2-18.3-9.3-26-18.8-39.4-.8-1.1-3.7-5-4-5.8s.3-.5.8-.4c1.3.2,2.8.9,4.2,1.2,15.5,2.7,29.6-2.1,39-14.8s7.1-13.9,13-20.2,6.3-6.5,10.1-2.8l65.5,65.5c1.4,1.6,2.1,2.8,1.9,5s-4.2,6.4-5.8,8.1c-12.6,13.9-28.2,23.1-47.2,24.9h0Z"/>
        <path d="M744,196.5c14.2-1.3,20.1,10.7,15.8,23-7.4,21.3-32.8,35.7-48.2,50.6-15.4,14.9-12.3,24.2-8.7,38.4,1.5,5.8,6.3,13.8,3,19.4s-8.1,8.8-10.2,10.3c-5.2,3.7-9.6-3-12.8-6.2-17-16.8-33.7-33.8-50.7-50.7-2.5-2.5-10.1-8.3-10.2-11.9s2.3-4.4,3.8-5.8c3.5-3.4,7.6-7.4,12.9-6.9s12.9,3.4,19.9,3.7c33,1.8,39.2-23.6,56.8-44.2,6.8-7.9,17.7-18.8,28.5-19.8h.1Z"/>
        <path d="M643.2,301.6c14.3,14.1,28.7,28.3,42.5,42.9,1.9,3.9-2.3,6.3-5.5,4l-67.5-67c-2.3-2.9-1.1-6.5,3-5.8s4.5,3.3,5.7,4.4c7.4,6.8,14.6,14.5,21.8,21.6h0Z"/>
      </g>
    </g>
  </g>
  <g id="Layer_2">
    <g>
      <g id="Letter_S">
        <path d="M649.3,101.1h0c-4.2-7.7-10.9-14.1-20-19.4-9.4-5.1-24.6-10.2-45.8-15.4-8.6-2-14.2-4-16.4-6.4-2.3-2.2-3.6-4.6-3.6-7.6s1.5-7.1,4.2-9.7c2.9-2.6,7-4,12.8-4s12.5,1.8,16.2,5.3,6.5,9.3,7.7,17.3l46-3c-1.9-18.2-8.2-31.3-18.9-39.7-10.6-8.3-26-12.5-46.2-12.5s-29.4,2.2-39,6.7-16.6,10.8-21.2,18.9c-1.4,2.3-2.7,4.8-3.6,7.4,13.2,16.6,21,37.6,21.6,60.2,8.7,5.1,20.4,9.3,34.6,13,13,3.3,21.4,6.6,25,10.1s5.3,7.7,5.3,12-1.9,9-5.7,12.7c-3.8,3.7-9.2,5.5-16.2,5.5s-16.6-3.5-21.6-10.6c-3.1-4.4-5.1-10.8-6.1-19.1l-18.1,1.3c-8,34.4-34,62.1-67.6,73.4,0,.9,0,1.6.4,2.3,1,2.2,3.6,2,4.6,0,0-.2.2-.5.4-.9.4.2.7.4,1.5.5-.5,2.3-1,4.9-.4,6.9,1,3.3,4.8,3,6,0s0-6.2-.5-9.3c.2,0,.5-.2,1.2-.2,1.2,0,1.5.5,2.3,1.1,0,1.3,0,2.3,1,3,1.5,1.3,3.2,0,4-1.8.5-1.3.5-2.3.5-3.7s.2-.4.4-.5c1.4-.7,3.6,0,5-.2.5,0,1.7-1.1,1.9-1.3,1-1.1.7-1.8,1.4-3,.2-.5.5-1.3,1-1.6.4,0,1.2-.2,1.7-.5,1.5-.7,3.1-2.6,4.2-4.6.5.7,1.4,1.1,2.3.5,1.7-.9,3.2-3.3,5.5-4.4.2.7.2,1.4.2,2,0,1.8-3.1,9.9.2,9.9s2.3-3.7,1.9-5.3c-.2-1.4-2.1-5.5-.7-6.6.4-.2,1.2,0,1.5.2,3.1,1.3,4.6,4.9,4.4,8.3-.4,4.4-5.1,11-1.7,15,1.4,1.6,4.2,1.6,5.3-.2,2.7-3.7-1-8.4-1.4-12.5v-3.1c0-.4.7-.7,1-1.3.4-.9.5-5.3,2.1-5.1,1.7.4-.7,6.2,1.2,7.7,1.4,1.1,2.4-1.6,2.7-2.8.2-1.4-.4-6.9,0-7.7h0l.5.5c.5,1.3,1.7,2.3,3.1,4,1.9,2.3,3.1,5.7,8,7.1,1.7.5,4.2.7,5.7,1.4.2,0,.5.4,1,.5.2,1.1.5,2.2,1.2,3.5.4,1.1,1.4,3.9,2.4,2.6.7-.7,1.5-2.2,2.3-3.7.4-.2,1-.5,1.5-1.1.4-.2.5-.7,1.2-1.3h.4c1.2,0,1.7.7,3.1.5,1.5-.4,2.3-2.8,3.4-3.1,2.3-.5,3.2,5.1,6.5,2.3l.4-.4c1.7,7.4,2.7,14.3,1.2,19.4-2.7,9-14.7,13.6-13.5,24.4,1,8.8,9.9,11.7,13.7,5.1,4.2-7.1,1.4-13.8,2.1-21.4,1.4-11.9,8.6-25.4,18-28.4,6.9-2.2,8.6,4.9,5,11.3-1.4,2.3-4,3.3-3.8,7.1.2,3.7,3.8,6.4,6.3,5.5,4.2-1.4,2.9-9.9,3.2-13.9.7-11.1,4.6-15.2,11.6-18.9,1.9-.7,3.8-1.4,5.5-2.3.4,0,.5-.4,1-.5.5-.2,1.5-.5,2.1-.7v-.2c8.6-4.9,15.4-11.5,20.4-19.9,5.5-9.5,8.4-19.8,8.4-30.9s-2.1-18.2-6.3-25.8h0l.5-.4-.5.3Z"/>
      </g>
      <g id="Letter_N">
        <path d="M334.8,101.3c0-20.5,6.1-39.5,16.8-55.4V6.2h-44.8v96.7L248.8,6.2h-44.5v165.2c-.2,4.9-.2,7.7,0,9.5h0c.2,2.2,1,3.1,2.1,4.9,1.2,1.6.5,4.2,1,5.7.4,1.3,1.4,2,2.4,1.4,1.5-.7,1-2.2,3.6-1.3,1.7.5,1.5,4.6,1.5,6s-.2,3.7-.4,5.1c-.2,1.8-1.4,3.3,0,5.1,1.2,1.8,3.6,2,5,.2,1.5-1.8,0-3.7,0-5.7-.4-3.7,2.7-7.7,3.4-11.9,0,0,.2-1.4.5-2.3.5.9,1.5,1.3,2.9.7,1.9,4.9,2.3,6.9,2.3,9.5,0,4.4-6.5,11-2.1,15,1.7,1.6,5.1,1.6,6.7-.2,3.2-3.7-1.2-8.4-1.7-12.5,0-.5-.2-2.6,0-3.1,0-.4.5-2.8,1-3.3.4-.9,1.2-3.5,2.9-3.1,2.1.4-1.2,6.2,1.4,7.7,1.5,1.1,3.2-1.6,3.4-2.8.2-1.4-.5-6.9,0-7.7,0-.2.4-.2.5-.2,1.5,0,1.4,3.7,5.1.9,2.4-1.8,3.1-5.5,3.2-8.4h.2v-95.8l57.7,96h0c2.3,4.9,4.4,10.1,5.3,13.9.5,3.1,0,2.8-.2,5.5-.5,4.9,5.3,6.2,6.9,2,.7-2.3-1.4-3.9-.5-6.2,1.2,0,1.9-.2,2.9-.9,1.7-1.6,2.3-6,5.1-5.5,1.2,3.3,4.4,6.7,4,10.6-.2,1.8-1.5,3.7,0,5.7,1.4,1.6,3.8,1.6,4.8-.2,1.2-1.8,0-3.3,0-5.1-.2-1.4-.4-3.5-.4-5.1s-.2-5.5,1.5-6c2.7-.9,1.9,2,3.6,2.8,1.2.5,2.7-.2,3.1-1.4,0-.5.2-1.3.2-2.2,0,0,.2.2.4.4,3.2,2.8,4.2-3.1,6.7-2.3,1.2.2,2.1,2.6,3.6,3.1.7,2.2,1.4,4.4,1.5,6.2.5,7.1-6.9,15.5-3.2,22.2,3.1,5.3,10.3,3.3,11.3-2.8,1.2-6.6-2.9-9.7-4.4-15-1-3.3-1.2-6.9-1-10.6,1.7,1.1,2.7,4,4,5.3,0,1.4.5,2.8,3.2,2.8s1.9-.7,2.3-1.6c.5-1.4,1.4-7.7,3.8-7.9.7,0,1.7,2.6,1.9,3.1.7,2.6,2.1,8.3,1.5,10.6-.5,2.2-3.2,5.3-.4,7.4,2.4,1.6,6.5.5,7-1.8.2-1.6-1.7-4.6-2.3-6.4-.7-2.2-.7-4.4.5-6.4,2.1.2,1.2,2.8,1.5,3.9.4,1.3,2.3,2,2.7.4.4-1.8,0-4.2.4-6,0-.7,1-1.8,2.1-1.6,2.3.2,1.7,3.7,2.3,4.9,1.2,2.3,3.6,1.1,3.8-.9v-2.2c-34-16.8-57.3-51.3-57.3-91h-.4l-.2-.7h0Z"/>
      </g>
      <g id="Letter_C">
        <g>
          <path d="M501.3,127.2l-.2.4s-.2.4-.4.5c.4-.5.5-.7.5-.9h.1Z"/>
          <path d="M500.8,127.9c0-.2.4-.4.4-.5s.2-.2.2-.4c0,0-.2.4-.5.9h-.1Z"/>
          <path d="M528.3,126.4c-.4,0-1.2-.2-1.9.5,0-.7-.2-1.3-.4-1.4-.4-.5-1-.9-1.7-.9s-2.3,0-6,8.3c-.7,1.6-2.1,4.2-3.2,6.6,0,0-.2,0-.4-.2,5-8.8,5-9.7,5.1-10.2,0-.9,0-2.6-1.4-3s-2.1.7-2.9,2c0,.2-.4.7-.7,1.3,0-1.3.4-3.3,1.2-6.7.2-1.4.5-2.8-1-3.3h-.5c0-1.3-.2-1.8-1.2-2.2-1.5-.5-2.3,1.3-2.4,1.8s-1.5,3.1-3.2,6.6c-.5-.5-1.2-.5-1.9-.5s-1.4.5-1.5,1.3l-2.4,5.1h-.7c.4-.7,1.2-1.6,1.5-2.3,0-.2.4-.4.4-.5.4-.5.7-1.3.4-2.2l-.4-.9h-1.2c-.5,0-.7,0-1.4.7h0c0,.2-.4.5-.5.7-.5.9-1.9,2.3-3.4,4.2,0-.5,0-.9-.5-1.3-.2-.2-1.4-.9-2.7.2-2.4,2.2-6.9,6.4-8.7,8.1-11.1,9.7-24.3,15-38.2,15.4-12.6.4-25.2-3.5-35.6-10.8-14.9-10.6-27.7-31.3-18.5-57.5,6-17.1,20.7-29.5,39.3-33.7,20-4.6,40.9,1.4,54.4,15.5l1.7,1.8,1-2.3c.4-1.3.2-2.2,0-3.1,1.2,1.3,2.3,3,3.2,4.4,1.4,1.8,2.4,3.3,3.4,4.2s2.1,1.8,3.6,1.1c1.4-.7,1-2.3.7-3h0c0-.4-.2-.7-.4-.9h1c0-.2,3.6,5.7,3.6,5.7.4.5,1,1.1,1.7,1.1.2,2,1.2,3.1,2.4,3.3.7,0,1.4,0,1.7-.7.7-.9.4-2,0-3.1,0-.2-.2-.7-.4-1.3,1.9,2.6,5,6.7,6.3,8.1,1,.7,1.7.7,2.3.4,1-.5,1.5-1.1-.7-8.1h.2c1.5-1.1.7-3.3.4-4.6-1-2.8-3.1-6.4-4.4-8.3-.4-.5-1-1.3-2.3-3-.2-.2-.4-.5-.5-.7h0l15.6,14.8.7,1.6c.5-.4,1.5-1.1,1.9-2.6,1.2-5.3-5.7-17.1-13-26-.7-.9-1.5-1.8-2.3-2.8-7-8.8-11.3-14.3-26.2-22.4-11.5-6.2-21.4-9.9-32.5-11.7-34-5.5-68.8,6.9-90.5,32.4-9.6,11.3-16.2,24.4-19.3,38.6-3.4,15.4-2.7,31.4,1.9,48h0c9.7,29.1,19.5,38.3,37.8,51.1h0c12.2,8.3,26.9,15.7,51.9,15.7s7.5,0,11.5-.5c17-1.3,41.4-10.1,57.5-26.5l.4-.4c4.8-4.9,6.1-6.2,8.9-9.9,1.9-2.3,10.5-15,11.8-19.8,0-.2.4-1.1.7-2,1.2-3.1,1.9-4.8,1.9-4.9,0-2,.2-4-1.4-4.6h0v.2h.2ZM523.7,131.8c0,.2-.2.5-.4.9h-1.2c.2-.4.4-.7.5-1.3l1,.5h0v-.2h.1ZM518.4,142.2c1.2-2,2.3-3.9,3.1-5.7-1.2,2.2-2.1,4.6-2.7,4.9-.2,0-.4.4-.4.5h0v.2h0ZM516.8,144.9c0,.2-.4.5-.4.7,0-.2.2-.5.4-.7ZM501.3,127.2l-.2.4s-.2.4-.4.5c.4-.5.5-.7.5-.9h.1Z"/>
        </g>
      </g>
    </g>
  </g>
  <g id="Layer_8">
    <g>
      <path d="M397,248c-8-.6-37-.2-34.6.9,1.2.5,42.8.2,34.6-.9Z"/>
      <path d="M336.2,247.6c13.7.7,42.7.6,57.6.2,34.7-1-9.7-2.7-27.6-2.6-11.3,0-49.5,1.4-30.1,2.4h0Z"/>
      <path d="M640.5,257.3c2.6,0-28.6.1-47.7.3-26.5.4-18.4,1.9,3.1,2.2,27.3.4,37.2-.4,60.8-.9,14.9-.3-5.1-1.5-16.2-1.6h0Z"/>
      <path d="M544.4,248.6c10.2.5,31.8.5,42.8.2,25.8-.8-7.3-2.1-20.5-2.1s-36.8,1.1-22.3,1.9h0Z"/>
      <path d="M593.3,263.9l6.9-.5c-13.3-.4-64.9-2.2-71.1-3.3-5-.9,4.4-1.8,5.1-2.7,8.7-.2,15.2-.5,13-1.3-8.2-.2-15.5-.3-21.9-.3s-1,0-1.7-.2c-10.5-.8-26.7-1.3-46.2-1.7,3,0,6.4-.2,9.3-.2,26,0,43.5,1.1,74,.2,9.5-.2,15.5-.5,13.5-1.5-2.3-1.2-20.7-1.2-29.2-1.9-5-.4-5.1-.9-11.7-1.2-13.9-.7-39.6-.5-55.4-.3-40.6.3-98.4,2-137.1.9-10.5-.3-17.4-.5-15.4-1.7,6.5-.5,33.5-.8,32.6-1.7-.1-.2-.7-.2-1.7-.4-1.5-.2-8.5-.5-10.9-.5-19.8-.3-69.3.5-86,1.6-11.2.7-19.8,2-33.1,2.6-11.3.5-42.4.5-43.6,1.8-.1.2,0,.2.3.3-25.5.3-65.3,2.6-82.2,4.8-18.2,2.4-3.8,2.3,3.7,3.6,3.2.5,1.7,1.7,9.8,2,7.1.3,24.4.4,42.3.3,13,.7,30,1,39.7,1.2,37.7.9,119.2.9,146.1,3.3,19.2,1.8,18.5,2.8,47.2,4,55.7,2.3,215,4.6,253.3-1.5,28.2-4.5-20.5-5.3-49.9-6l.2.2ZM182.9,262.9h16.4s.1,0,.2,0h-16.7Z"/>
      <path d="M162.3,268.3c.5,1.2,17.5.6,25.6.8,1.5-1.1-23.3-1-25.6-.8Z"/>
      <path d="M284.4,267c-20.6-.2-66.3,1-84.2,2.2-16.3,1.1-3.5,1.1,3.4,1.6,3,.2,1.6.8,8.9.9,13,.3,64.1.2,79.2,0,48.7-.5,30.8-4.3-7.2-4.8h-.1Z"/>
    </g>
  </g>
  <g id="Layer_3">
    <path d="M206.2,254.1c-4.4-33.4-72.5-56.3-72.5-56.3,14.3-19.5,25.7-27.3,28.8-53.1,1-8.6-3.7-37.8-6.4-47.3-20.4-71.2-99-19.3-73.3,39.6-7,1.3-7.6-3.1-9.5-8-6.9-17.3-.3-44.2,12.7-57.6C42.3,31.7-12.4,117.3,2.5,154.9c7.9,19.8,75.4,43.8,93.1,60,4.9-9.9-6.8-19.5-10.4-22.9,6.5,5.5,16.7,15.9,16.7,15.9,5,12,21.7,15.7,10.8,48.8M149.9,108.2l-47.9-30.4c22.6-19.5,45.4,7.3,47.9,30.4ZM145.9,121.9c12,14.5-11.6,65.6-29.6,71.9l-23.7-12.2c-8.8-19.1,37.8-78.4,53.3-59.7Z"/>
  </g>
  <g id="Layer_5" class="st0">
    <path d="M108.5,398.4l4.9.3,3.1-5.5-16.5-18.8c42.4-.2,28.1,63.7-2.1,14.3l-16.5-16.6c-1.6,24.7,30.4,60.2,53.6,49.6l105-126.4c3.1-16.9-20-43.8-36.9-37.1l-111.5,99.6c-7.6,3.8-19.7-14.8-22.6-22,1-4.8,62.9-50.4,67.1-61,3.9-9.7-17.1-32.6-23.1-41.5-2.8-4.1-2.5-9.2-5.7-13.8-4.8-6.7-38.4-45.5-43.4-48.6-2.7-1.7-4.6-2.9-7.8-1.7-9.5,3.8-11.9,10.1-6.6,19.4,3.2,5.6,36.4,42.9,42.1,47.8,3.9,3.4,8.7,2.8,11.6,5.3,7.3,6.4,31.2,24.2,22.8,33.4-9.7,10.9-63.4,50.3-64.9,61.1-1.5,11.3,42,48.7,47.4,62.1h0Z"/>
  </g>
  <g id="Layer_4" class="st0">
    <path d="M61.6,79.1c-14.4-32.9,29.5-61.9,40.9-22.1,1.5,5.3,4.2,21.6,3.6,26.4-1.7,14.4-11.5,23.2-19.5,34.1l5.6,16.7c63.5,15.6-22.2,40.2-37.7,17-8.9-13.3,19.6-14.2,21.1-19.7-.5-4.3-1.2-9-2.5-13.1-1-3.2-5-13.2-8-10.7,2,1.9,6.9,16,.9,14.3-9.9-9.1-44.9-21.8-49.3-32.9-8.3-21,22.2-68.8,46.5-46.6-7.3,7.5-10.9,22.5-7.1,32.1,1.1,2.8,1.4,5.2,5.3,4.5h.2ZM99.1,63c-1.4-12.9-14.1-27.8-26.8-16.9,0,0,26.8,16.9,26.8,16.9ZM96.9,70.6c-8.7-10.4-34.7,22.7-29.8,33.3l13.2,6.8c10.1-3.5,23.3-32,16.5-40.1h0ZM83.1,154.1c-8.8.4-19.6-2.2-19.7-12.5-11.2,8.9,4.9,13.4,13.5,14.3,1.9.2,6.7,1.3,6.2-1.7h0Z"/>
  </g>
</svg>