<?xml version="1.0" encoding="UTF-8"?>
<svg xmlns="http://www.w3.org/2000/svg" version="1.1" viewBox="0 0 1016 325">
  <!-- Generator: Adobe Illustrator 29.2.1, SVG Export Plug-In . SVG Version: 2.1.0 Build 116)  -->
  <defs>
    <style>
      .st0 {
        fill: none;
      }

      .st1 {
        fill: #fadd18;
      }

      .st2 {
        fill: #42a74c;
      }

      .st3 {
        fill: #36a0d6;
      }

      .st4 {
        fill: #e70600;
      }

      .st5 {
        fill: #e92c31;
      }

      .st6 {
        fill: #705c86;
      }
    </style>
  </defs>
  <g id="logo">
    <polygon points="105.5 276.2 144.7 276.2 144.7 267.8 140.3 267.8 198.2 209.2 256.1 267.8 251.7 267.8 251.7 276.2 290.9 276.2 290.2 274.7 280.9 272.7 198.2 187.8 115.6 272.8 105.6 274.8 105.5 276.2"/>
    <rect x="185.7" y="236.3" width="11.2" height="12" rx="1.3" ry="1.3"/>
    <rect x="199.5" y="236.3" width="11.2" height="12" rx="1.3" ry="1.3"/>
    <rect x="185.7" y="250.2" width="11.2" height="12" rx="1.3" ry="1.3"/>
    <rect x="199.5" y="250.2" width="11.2" height="12" rx="1.3" ry="1.3"/>
    <path class="st5" d="M109.7,271.8l22.5-23.3v-74.9c0-6.1-5-11.1-11.1-11.1h-.7c-6.1,0-11.1,5-11.1,11.1"/>
    <path class="st1" d="M158.6,173.6c0-6.1-5-11.1-11.1-11.1h-.7c-6.1,0-11.1,5-11.1,11.1v71.3l22.9-23.7v-47.6Z"/>
    <path class="st2" d="M185,173.6c0-6.1-5-11.1-11.1-11.1h-.7c-6.1,0-11.1,5-11.1,11.1v44l22.9-23.7v-20.3Z"/>
    <path class="st3" d="M198.5,179.9l3.8,3.9,9,9.2v-19.4c0-6.1-5-11.1-11.1-11.1h-.7c-6.1,0-11.1,5-11.1,11.1v16.7l6.3-6.5,3.8-3.9Z"/>
    <path class="st6" d="M237.7,173.6c0-6.1-5-11.1-11.1-11.1h-.7c-6.1,0-11.1,5-11.1,11.1v23l22.9,23.6v-46.6Z"/>
    <path class="st4" d="M201.1,186.3"/>
    <path class="st0" d="M311.2,190.4c-.3-1.2-2.1-1.7-3.2-1.2h0c-.3.2-.2.7-.2,1.5,0,1.5,0,3.2,0,4.7,0,1,0,1.2-.4,1.9-.6.8-1.7,1.6-2.7,1.7-15.4,0-62.1,0-64.9,0-3.5-.6-3.1-5.4-2.7-8.1.3-1.7-1.5-2.4-2.6-1.6-1.3.9-.8,12.4-.5,13.4.1.8.9,1.7,1.5,2,.4.2,1.7.8,3.7,1.7,7.8,3.7,21.5,10.2,28.8,13.7.2,0,.1-.5.2-.7,0-3.1,1.6-4.4,4.4-5.2,10.2-3.3,23.8-4.2,34.5-6.9,1.2-.4,2.6-.4,3.5-1.3.6-.6.8-1.5.8-2.3.2-2.5.2-8.7,0-11.8,0-.5,0-1-.2-1.5Z"/>
    <path d="M323.4,188.9c-.8-2.9-2.9-2.8-5.1-3-3.1-.6-.2-5.7-3.1-7.6-2.2-1.5-4.7-.5-7.2-.6-18.7-.2-37.6-.5-56.2-.5-1.3,0-3.1.2-3.9.8-1.8,1-2,3.1-2.2,5.9,0,.4,0,.9-.3,1.3-.2.4-.6.5-1.1.6-1.8.2-3.8.8-4.2,3-.4,2.6-.4,11.3-.2,14.4,0,1.1.6,2.8,1.5,3.4,2.4,1.2,25.8,12.5,33.3,16.2.5.3,1.3.5,1.9,1.1.6.6-.5,1.4-1.7,1.4s-1.4.5-1.5,2c-.2,2.6-.3,6.6-.3,9.6l.4,14.9,11,11.3c.9-.5,1.2-1.5,1.2-2.5-.5-7.2-.5-14.4-.7-21.6.1-3.9-.5-7.5-.7-11.5,0-1.2-.4-2.3-1.6-2.3-.5,0-1.3,0-1.6,0-.6,0-.5-.6-.5-1.3,0-2.5-.5-4.2.9-5.9.6-.7,1.7-1,2.5-1.2,10.4-3.3,23.6-4,34.1-7,2.6-.7,5.1-1.6,5.4-4.8.5-4.1.4-12.7-.3-16.2ZM320.3,203.6c0,.8-.2,1.7-.8,2.3-.9.9-2.4,1-3.5,1.3-10.7,2.7-24.3,3.7-34.5,6.9-2.8.8-4.3,2.1-4.4,5.2,0,.2,0,.8-.2.7-7.3-3.5-21-10-28.8-13.7-1.9-.9-3.3-1.6-3.7-1.7-.6-.4-1.4-1.2-1.5-2-.2-1-.8-12.5.5-13.4,1.1-.8,3-.1,2.6,1.6-.4,2.7-.8,7.5,2.7,8.1,2.7,0,49.4,0,64.9,0,1-.1,2.1-.9,2.7-1.7.5-.7.4-.9.4-1.9,0-1.5,0-3.2,0-4.7,0-.8,0-1.2.2-1.4h0c1.1-.5,3-.1,3.2,1.1.1.5.1,1,.2,1.5.2,3.1.1,9.2,0,11.8Z"/>
  </g>
  <g id="ncs">
    <g>
      <g id="Letter_S">
        <path d="M830.8,139.2h0c-1.7-3.1-4.5-5.7-8.3-7.8-3.8-2.1-10.1-4.2-18.9-6.2-3.6-.8-5.8-1.7-6.7-2.6-1-.9-1.5-1.9-1.5-3s.6-2.9,1.8-3.9c1.2-1.1,2.9-1.6,5.3-1.6s5.1.7,6.7,2.2,2.7,3.8,3.2,6.9l18.9-1.2c-.8-7.4-3.4-12.7-7.8-16-4.4-3.4-10.7-5.1-19-5.1s-12.1.9-16,2.8c-3.9,1.8-6.8,4.4-8.7,7.6-.6,1-1.1,1.9-1.5,2.9,5.4,6.8,8.7,15.2,8.9,24.4,3.6,2.1,8.4,3.8,14.2,5.2,5.4,1.3,8.8,2.6,10.3,4.1,1.5,1.4,2.2,3.1,2.2,4.9s-.8,3.6-2.3,5.1-3.8,2.2-6.6,2.2-6.8-1.4-8.9-4.3c-1.3-1.7-2.1-4.4-2.5-7.7l-7.4.5c-3.3,13.9-13.9,25.1-27.8,29.7,0,.4,0,.7.2,1,.4.9,1.5.8,1.9,0,0-.1.1-.2.1-.4.1,0,.3.2.6.2-.2,1-.4,2-.2,2.8.4,1.4,2,1.2,2.4,0,.5-1.2,0-2.5-.3-3.8.1,0,.2,0,.4,0,.5,0,.7.2.9.4,0,.5,0,.9.4,1.2.6.5,1.3,0,1.7-.7.2-.5.3-1,.2-1.5,0,0,0-.1.2-.2.6-.3,1.5,0,2.1-.1.3,0,.7-.4.8-.6.4-.4.3-.8.5-1.2.1-.2.2-.5.4-.7.2,0,.5,0,.7-.2.7-.3,1.2-1.1,1.7-1.8.2.3.6.5,1,.2.7-.4,1.3-1.3,2.2-1.8,0,.3.1.6.1.8,0,.8-1.2,4,.1,4,.8,0,.9-1.5.8-2.1,0-.6-.9-2.2-.3-2.7.1-.1.4,0,.6.1,1.3.5,1.9,2,1.8,3.4-.1,1.8-2.1,4.4-.7,6.1.6.6,1.7.6,2.2,0,1.1-1.5-.4-3.4-.5-5.1,0-.2,0-1,0-1.3,0-.1.3-.3.4-.6.1-.4.3-2.2.9-2.1.7.1-.3,2.5.4,3.1.5.4,1-.7,1.1-1.1,0-.6-.2-2.8,0-3.1,0,0,0,0,0,0,0,0,.2.1.3.2.2.5.7.9,1.2,1.6.8,1,1.2,2.3,3.3,2.9.7.2,1.7.3,2.4.6.1,0,.2.1.4.2.1.5.2.9.4,1.4.2.4.5,1.6,1,1,.3-.3.6-.9.9-1.5.2,0,.4-.2.6-.4.1-.1.3-.3.5-.5h.1c.5,0,.7.3,1.2.2.6-.2.9-1.1,1.4-1.2,1-.2,1.3,2.1,2.6,1,0,0,.1,0,.1-.1.7,3,1.1,5.7.5,7.8-1.1,3.7-6,5.5-5.6,9.8.4,3.6,4.1,4.8,5.6,2.1,1.7-2.9.5-5.6.9-8.7.5-4.8,3.6-10.3,7.4-11.5,2.8-.9,3.5,2,2.1,4.6-.6,1-1.7,1.3-1.5,2.9.1,1.5,1.5,2.6,2.6,2.2,1.7-.6,1.2-4,1.3-5.7.3-4.5,1.9-6.2,4.8-7.6.8-.3,1.6-.6,2.3-.9.1,0,.3-.1.4-.2.3-.1.6-.2.9-.3,0,0,0,0,0-.1,3.6-2,6.3-4.6,8.4-8,2.3-3.8,3.5-8,3.5-12.5s-.8-7.4-2.6-10.5h0Z"/>
      </g>
      <g id="Letter_N">
        <path d="M701.6,139.2c0-8.3,2.5-16,6.9-22.4v-16h-18.4v39.1l-23.8-39.1h-18.3v66.8c0,2,0,3.1,0,3.8h0c.1.9.4,1.3.9,2,.4.6.2,1.7.4,2.3.2.5.6.8,1,.6.6-.3.4-.9,1.5-.6.7.2.6,1.8.6,2.5,0,.6,0,1.5-.2,2.1-.1.7-.5,1.3,0,2.1.5.7,1.5.8,2,.1.6-.7,0-1.5,0-2.3-.1-1.5,1.1-3.1,1.4-4.8,0,0,0-.6.2-1,.3.4.7.5,1.2.3.8,2,1,2.8,1,3.9,0,1.8-2.6,4.4-.8,6.1.7.6,2.1.6,2.8,0,1.3-1.5-.5-3.4-.7-5.1,0-.2,0-1,0-1.3,0-.1.2-1.1.4-1.3.2-.4.5-1.4,1.2-1.3.9.1-.4,2.5.5,3.1.7.4,1.3-.7,1.4-1.1,0-.6-.2-2.8,0-3.1,0,0,.2,0,.3,0,.7,0,.5,1.5,2.1.4,1-.7,1.3-2.2,1.4-3.4h0v-38.8l23.7,38.8h0c1,2,1.8,4.1,2.2,5.6.2,1.3,0,1.1-.1,2.2-.2,2,2.2,2.5,2.8.8.3-1-.6-1.5-.2-2.5.5,0,.8,0,1.2-.4.7-.6.9-2.4,2.1-2.2.4,1.3,1.8,2.8,1.6,4.3,0,.8-.6,1.5,0,2.3.5.7,1.5.6,2-.1s0-1.3,0-2.1c0-.6-.1-1.4-.2-2.1,0-.6-.1-2.2.6-2.5,1.1-.4.8.8,1.5,1.1.4.2,1.1,0,1.3-.6,0-.2,0-.5,0-.9,0,0,.1.1.2.1,1.4,1.1,1.7-1.2,2.7-1,.5.1.8,1.1,1.5,1.2.3.9.6,1.8.6,2.6.2,2.9-2.9,6.3-1.3,8.9,1.3,2.2,4.3,1.4,4.7-1.1.4-2.7-1.2-3.9-1.8-6.1-.4-1.3-.5-2.8-.4-4.3.7.4,1.1,1.6,1.6,2.2,0,.6.3,1.1,1.3,1.1.6,0,.8-.3.9-.7.2-.6.5-3.1,1.6-3.2.3,0,.7,1,.8,1.2.3,1.1.8,3.3.6,4.3-.2.9-1.3,2.2-.2,2.9,1,.7,2.7.2,2.9-.7.1-.7-.7-1.9-1-2.6-.3-.9-.3-1.8.3-2.6.8.1.5,1.1.6,1.6.2.5.9.8,1.1.2.2-.7,0-1.7.2-2.4,0-.3.4-.7.9-.7,1,.1.7,1.5,1,2,.4.9,1.5.4,1.6-.4,0-.3,0-.6,0-.9-14-6.8-23.5-20.7-23.5-36.9h-.2Z"/>
      </g>
      <g id="Letter_C">
        <g>
          <path d="M770.1,149.7s0,0,0,.1c0,0,0,.1-.2.2.1-.2.2-.3.2-.4Z"/>
          <path d="M769.8,150c0,0,.1-.2.2-.2,0,0,0-.1,0-.1,0,0-.1.2-.2.4Z"/>
          <path d="M781.1,149.4c-.2,0-.5-.1-.8.2,0-.3,0-.5-.1-.6-.2-.2-.4-.4-.7-.4s-.9,0-2.4,3.3c-.3.7-.8,1.7-1.4,2.7,0,0,0,0-.1,0,2.1-3.6,2.1-3.9,2.1-4.1,0-.4,0-1-.5-1.2-.6-.2-.9.3-1.2.8,0,.1-.2.3-.3.5,0-.5.1-1.3.4-2.7.1-.6.2-1.1-.4-1.3,0,0-.2,0-.3,0,0-.5-.1-.7-.5-.9-.7-.2-.9.5-1,.7,0,.2-.6,1.2-1.4,2.6-.2-.2-.5-.2-.8-.2s-.5.2-.7.5l-1,2.1h-.3c.2-.3.5-.7.7-1,0,0,.1-.2.2-.2.1-.2.3-.5.1-.9l-.2-.4h-.4c-.2,0-.3,0-.5.3h0c0,0-.1.2-.2.3-.3.4-.8,1-1.4,1.7,0-.2,0-.4-.2-.5-.1-.1-.5-.4-1.1.1-1,.9-2.8,2.6-3.6,3.2-4.5,3.9-9.9,6.1-15.7,6.2-5.2.1-10.4-1.4-14.6-4.4-6.1-4.3-11.4-12.7-7.6-23.3,2.4-6.9,8.4-12,16.1-13.7,8.2-1.8,16.8.6,22.3,6.3l.7.8.4-1c.2-.5.1-.9,0-1.2.5.6,1,1.2,1.4,1.8.5.7,1,1.4,1.4,1.7.3.2.9.8,1.5.4.5-.3.4-1,.3-1.2h0c0-.1,0-.3-.1-.4h.4c0-.1,1.5,2.3,1.5,2.3.2.2.4.4.7.4.1.8.5,1.3,1,1.4.3,0,.5,0,.7-.3.3-.4.2-.8,0-1.3,0-.1-.1-.3-.2-.5.8,1.1,2.1,2.7,2.6,3.2.4.3.7.3,1,.1.4-.2.6-.4-.3-3.2,0,0,0,0,.1,0,.7-.4.3-1.4.1-1.8-.4-1.1-1.3-2.6-1.8-3.3-.1-.2-.4-.6-.9-1.2,0-.1-.2-.2-.2-.3h0l6.4,6,.3.6c.3-.1.7-.4.8-1.1.5-2.2-2.3-6.9-5.3-10.5-.3-.4-.6-.8-.9-1.1-2.9-3.6-4.6-5.7-10.7-9-4.7-2.6-8.8-4-13.4-4.7-14-2.2-28.3,2.8-37.2,13.1-3.9,4.6-6.6,9.8-7.9,15.6-1.4,6.2-1.1,12.7.8,19.4h0c4,11.8,8,15.5,15.6,20.7h0c5,3.4,11.1,6.4,21.3,6.4s3,0,4.7-.2c7-.6,17-4.1,23.6-10.7h.1c2-2.1,2.5-2.6,3.7-4.2.8-1,4.3-6.1,4.9-8,0,0,.2-.4.3-.8.5-1.2.7-1.9.8-2,0-.8.1-1.7-.5-1.9h0ZM779.2,151.5c0,.1-.1.2-.2.4-.1,0-.3,0-.5,0h0c0-.2.2-.3.2-.5l.4.2h0ZM777,155.7c.4-.8.9-1.6,1.3-2.3-.4.9-.9,1.9-1.1,2,0,0-.1.1-.2.2h0ZM776.4,156.9c0,.1-.1.2-.2.3,0-.1.1-.2.2-.3ZM770.1,149.7s0,0,0,.1c0,0,0,.1-.2.2.1-.2.2-.3.2-.4Z"/>
        </g>
      </g>
    </g>
  </g>
</svg>