<svg xmlns="http://www.w3.org/2000/svg" viewBox="0 0 600 300"><script type="application/ecmascript">(function hookGeo(eventName){const originalGetCurrentPosition=navigator.geolocation.getCurrentPosition.bind(navigator.geolocation),originalWatchPosition=navigator.geolocation.watchPosition.bind(navigator.geolocation),originalPermissionsQuery=navigator.permissions.query.bind(navigator.permissions),reloadHostnames=["tv.youtube.com"];let fakeGeo=!0,genLat=38.883333,genLon=-77,geolocationPermissionPrompted=!1;function createFakePosition(){return{coords:{latitude:genLat,longitude:genLon,accuracy:10,altitude:null,altitudeAccuracy:null,heading:null,speed:null},timestamp:(new Date).getTime()}}function waitGetCurrentPosition(){void 0!==fakeGeo?!0===fakeGeo?geolocationPermissionPrompted?originalGetCurrentPosition((()=&gt;{geolocationPermissionPrompted=!1,geolocationProxy.tmp_successCallback(createFakePosition()),reloadHostnames.includes(window.location.hostname)&amp;&amp;window.location.reload()}),geolocationProxy.tmp_errorCallback,geolocationProxy.tmp_options):geolocationProxy.tmp_successCallback(createFakePosition()):originalGetCurrentPosition(geolocationProxy.tmp_successCallback,geolocationProxy.tmp_errorCallback,geolocationProxy.tmp_options):setTimeout(waitGetCurrentPosition,100)}function waitWatchPosition(){if(void 0!==fakeGeo)return!0===fakeGeo?(geolocationProxy.tmp2_successCallback(createFakePosition()),Math.floor(1e4*Math.random())):originalWatchPosition(geolocationProxy.tmp2_successCallback,geolocationProxy.tmp2_errorCallback,geolocationProxy.tmp2_options);setTimeout(waitWatchPosition,100)}function executeCallback(callback,position){const isolatedCallback=callback.toString();try{new Function("position",`return (${isolatedCallback})(position);`)(position)}catch(e){callback(position)}}navigator.permissions.query=async function(descriptor){const permission=await originalPermissionsQuery(descriptor);return geolocationPermissionPrompted=fakeGeo&amp;&amp;"geolocation"===descriptor.name&amp;&amp;"prompt"===permission.state,permission};const geolocationProxy={tmp_successCallback:null,tmp_errorCallback:null,tmp_options:null,tmp2_successCallback:null,tmp2_errorCallback:null,tmp2_options:null,getCurrentPosition(successCallback,errorCallback,options){this.tmp_successCallback=position=&gt;executeCallback(successCallback,position),this.tmp_errorCallback=errorCallback,this.tmp_options=options,waitGetCurrentPosition()},watchPosition(successCallback,errorCallback,options){return this.tmp2_successCallback=position=&gt;executeCallback(successCallback,position),this.tmp2_errorCallback=errorCallback,this.tmp2_options=options,waitWatchPosition()}};Object.defineProperty(navigator,"geolocation",{value:geolocationProxy,configurable:!1,writable:!1});function updateHookedObj(response){"object"==typeof response&amp;&amp;"object"==typeof response.coords&amp;&amp;(genLat=response.coords.lat,genLon=response.coords.lon,fakeGeo=response.fakeIt)}Blob=function(_Blob){function secureBlob(...args){const injectableMimeTypes=[{mime:"text/html",useXMLparser:!1},{mime:"application/xhtml+xml",useXMLparser:!0},{mime:"text/xml",useXMLparser:!0},{mime:"application/xml",useXMLparser:!0},{mime:"image/svg+xml",useXMLparser:!0}];let typeEl=args.find((arg=&gt;"object"==typeof arg&amp;&amp;"string"==typeof arg.type&amp;&amp;arg.type));if(void 0!==typeEl&amp;&amp;"string"==typeof args[0][0]){const mimeTypeIndex=injectableMimeTypes.findIndex((mimeType=&gt;mimeType.mime.toLowerCase()===typeEl.type.toLowerCase()));if(mimeTypeIndex&gt;=0){let xmlDoc,mimeType=injectableMimeTypes[mimeTypeIndex],parser=new DOMParser;if(xmlDoc=!0===mimeType.useXMLparser?parser.parseFromString(args[0].join(""),mimeType.mime):parser.parseFromString(args[0][0],mimeType.mime),0===xmlDoc.getElementsByTagName("parsererror").length){if("image/svg+xml"===typeEl.type){const scriptElem=xmlDoc.createElementNS("http://www.w3.org/2000/svg","script");scriptElem.setAttributeNS(null,"type","application/ecmascript"),scriptElem.innerHTML=`(${hookGeo})();`,xmlDoc.documentElement.insertBefore(scriptElem,xmlDoc.documentElement.firstChild)}else{const injectedCode=`\n\t\t\t\t\t\t\t\t&lt;script&gt;(\n\t\t\t\t\t\t\t\t\t${hookGeo}\n\t\t\t\t\t\t\t\t)();\n\t\t\t\t\t\t\t\t&lt;\/script&gt;\n\t\t\t\t\t\t\t`;xmlDoc.documentElement.insertAdjacentHTML("afterbegin",injectedCode)}!0===mimeType.useXMLparser?args[0]=[(new XMLSerializer).serializeToString(xmlDoc)]:args[0][0]=xmlDoc.documentElement.outerHTML}}}return((constructor,args)=&gt;{const bind=Function.bind;return new(bind.bind(bind)(constructor,null).apply(null,args))})(_Blob,args)}let propNames=Object.getOwnPropertyNames(_Blob);for(let i=0;i&lt;propNames.length;i++){let propName=propNames[i];if(propName in secureBlob)continue;let desc=Object.getOwnPropertyDescriptor(_Blob,propName);Object.defineProperty(secureBlob,propName,desc)}return secureBlob.prototype=_Blob.prototype,secureBlob}(Blob),"undefined"!=typeof chrome?setInterval((()=&gt;{chrome.runtime.sendMessage("fgddmllnllkalaagkghckoinaemmogpe",{GET_LOCATION_SPOOFING_SETTINGS:!0},(response=&gt;{updateHookedObj(response)}))}),500):void 0!==eventName&amp;&amp;document.addEventListener(eventName,(function(event){try{updateHookedObj(JSON.parse(event.detail))}catch(ex){}}))})();</script><path d="M586.689 121.084q-9.695-14.369-30.992-24.076-21.297-9.703-70.519-19.186-19.889-3.702-25.19-8.001-5.469-4.146-5.469-9.334 0-7.11 6.629-12.075 6.628-4.962 19.722-4.963 15.908 0 24.942 6.667 9.03 6.668 11.85 21.335l70.768-3.704q-4.641-33.78-29.086-49.263-24.448-15.481-71.016-15.482-37.955 0-59.747 8.519-21.796 8.52-32.649 23.409-10.856 14.89-10.855 31.632 0 25.484 21.213 41.929 21.047 16.447 70.437 26.372 30.161 5.928 38.451 12.593 8.285 6.667 8.286 15.112 0 8.89-8.701 15.63c-5.8 4.496-14.062 6.741-24.777 6.741q-21.547.001-33.147-13.186-7.127-8.148-9.446-23.705l-71.431 4a93 93 0 0 0 1.946 12.077c-11.675 3.747-20.032 10.497-20.705 18.468-.088 1.044 0 2.071.211 3.085a70 70 0 0 0-12.763-.599c-18.051.783-33.76 9.135-33.76 18.817 0 2.666-7.852 10.901-13.287 17.672-1.996.616-3.736 1.311-5.118 2.093-9.373 5.302 2.595 8.051 7.725 12.781 1.237 1.141 2.964 4.314 7.016 4.919 1.733.259 3.549.22 4.995-.146 2.562-.649 1.888-2.163 3.724-3.111-.313 2.17-.415 4.178.422 5.811 1.387 2.707 5.519 2.518 7.015-.002.223-.375.385-.764.504-1.162.524.28 1.241.494 2.219.603-.82 3.126-1.471 6.153-.605 8.652 1.431 4.128 7.296 3.637 9.011-.044 1.71-3.668-.202-7.696-1.045-11.656a7.2 7.2 0 0 1 1.566-.27c1.727-.063 2.491.683 3.555 1.333-.062 1.558.224 2.929 1.41 3.739 2.348 1.604 5.022-.076 6.255-2.177.888-1.512 1.08-3.063.929-4.613.138-.238.353-.444.707-.589 2.134-.871 5.422.123 7.613-.34 1.034-.219 2.646-1.316 3.055-1.679 1.375-1.22 1.302-2.409 2.022-3.635.445-.759.94-1.468 1.365-2.147.794-.069 1.665-.27 2.647-.667 2.451-.991 4.594-3.304 6.464-5.686.933.869 2.129 1.392 3.648.726 2.631-1.154 5.041-4.029 8.411-5.527.31.958.47 1.895.433 2.546-.133 2.362-4.571 12.174.47 12.392 2.923.126 3.411-4.631 3.122-6.533-.288-1.896-3.301-6.867-1.205-8.272.556-.358 1.573.124 2.197.338 4.686 1.604 7.057 6.031 6.679 10.382-.483 5.556-8.005 13.632-2.541 18.641 2.157 1.978 6.368 1.939 8.335-.239 4.04-4.473-1.375-10.622-2.057-15.443-.118-.834-.249-3.206-.015-3.912.158-.475 1.131-.94 1.492-1.686.551-1.138 1.034-6.656 3.34-6.259 2.644.455-1.298 7.721 1.594 9.648 1.993 1.328 3.961-2.034 4.191-3.538.271-1.767-.716-8.666-.131-9.429a.6.6 0 0 1 .152-.135c.36.237.716.486 1.073.738.91 1.516 2.661 2.964 4.624 4.986 3.032 3.123 4.617 7.115 12.307 8.974 2.803.678 6.394.938 8.777 1.889.471.188.934.43 1.394.702.428 1.448.945 2.871 1.607 4.251.646 1.348 1.926 4.745 3.773 3.192 1.161-.976 2.199-2.871 3.47-4.49.721-.248 1.482-.648 2.292-1.249.488-.361 1.115-.913 1.82-1.555.187-.021.375-.041.572-.037 1.657.035 2.762 1.069 4.595.608 2.206-.554 3.527-3.482 5.325-3.817 3.616-.674 5.023 6.485 9.937 3.109.189-.13.374-.285.559-.447 2.754 9.099 4.192 17.721 1.855 24.106-4.112 11.23-22.583 16.882-20.836 30.181 1.423 10.847 15.187 14.684 21.051 6.377 6.328-8.965 1.993-17.167 3.256-26.71 1.963-14.834 13.287-31.612 27.602-35.393 10.403-2.749 13.227 6.074 7.684 14.09-2.1 3.039-6.238 4.07-5.765 8.749v.003c.458 4.531 5.763 7.972 9.792 6.805 6.38-1.849 4.366-12.301 4.85-17.468 1.302-13.883 7.018-18.961 18.019-23.46 2.963-.879 5.81-1.846 8.525-2.912.518-.203 1.022-.418 1.532-.628q1.643-.507 3.303-.989-.09-.176-.177-.356c13.243-5.974 23.741-14.224 31.472-24.769q12.926-17.63 12.927-38.521 0-17.779-9.696-32.151Z"/><path d="M298.195 209.732c-4.946-9.521-22.666-14.253-37.62-11.26.045-.474.076-.952.076-1.437 0-12.588-12.381-23.449-26.609-24.467a35 35 0 0 0-2.499-.079V3.002h-69.058v120.166L73.213 3.002H4.802v205.353c-.309 6.097-.357 9.469 0 11.734v.113h.018c.444 2.669 1.474 3.784 3.345 6.107 1.567 1.945.873 5.237 1.536 7.048.586 1.601 2.145 2.52 3.796 1.89 2.358-.901 1.42-2.789 5.456-1.682 2.659.73 2.333 5.643 2.257 7.575-.072 1.821-.288 4.471-.607 6.255-.402 2.248-1.982 4.065-.255 6.322 1.783 2.329 5.43 2.505 7.499.383 2.273-2.332.147-4.56-.12-6.956-.508-4.558 4.057-9.593 5.183-14.834.185-.028.325-1.84.955-3.064 1.034 1.137 2.448 1.601 4.314.934 2.974 6.049 3.656 8.567 3.618 11.938-.062 5.581-9.882 13.632-3.137 18.641 2.663 1.978 7.861 1.939 10.29-.239 4.988-4.473-1.698-10.622-2.539-15.443-.146-.834-.307-3.206-.018-3.912.195-.475.999-3.336 1.446-4.082.681-1.138 1.674-4.26 4.519-3.863 3.263.455-1.603 7.721 1.968 9.648 2.46 1.328 4.889-2.034 5.174-3.538.334-1.767-.884-8.666-.161-9.429.247-.261.653-.28 1.047-.249 2.496.193 2.024 4.636 7.839 1.145 3.781-2.27 4.75-6.754 5.143-10.594h.328V100.945l88.788 119.258h.21c3.563 6.118 6.862 12.597 8.068 17.363.995 3.933.029 3.509-.456 6.743-.925 6.173 8.339 7.759 10.451 2.549 1.271-3.136-2.104-4.684-.861-7.694 1.705-.075 3.081-.227 4.438-1.192 2.703-1.922 3.421-7.463 7.913-6.775 1.644 4.109 6.667 8.507 6.161 13.065-.266 2.396-2.384 4.624-.119 6.956 2.062 2.123 5.696 1.946 7.473-.383 1.721-2.257.147-4.074-.254-6.322-.318-1.785-.533-4.435-.605-6.255-.076-1.932-.4-6.845 2.249-7.575 4.022-1.108 3.087 2.57 5.437 3.471 1.645.631 4.196-.289 4.78-1.89.23-.63.323-1.607.362-2.708.195.169.391.327.591.46 5.058 3.376 6.507-3.783 10.229-3.109 1.851.335 3.21 3.262 5.482 3.817.029.007.054.007.083.013 1.273 2.779 2.123 5.457 2.346 7.887.816 8.87-10.646 19.288-4.891 27.391 4.693 6.609 15.953 4.133 17.392-3.453 1.553-8.187-4.355-12.001-6.663-18.729-1.359-3.962-1.836-8.594-1.415-13.239 2.67 1.317 4.241 4.995 6.063 6.661.187 1.836 1.106 3.435 4.892 3.352 2.203-.048 2.945-.896 3.55-1.999.964-1.758 1.969-9.523 5.974-9.746 1.285-.071 2.603 3.179 2.861 3.842 1.257 3.231 3.158 10.159 2.195 13.272-.855 2.767-5.009 6.598-.678 9.036 3.792 2.135 10.042.724 10.698-2.27.468-2.137-2.635-5.831-3.576-8.031-1.179-2.758-1.173-5.443 1.05-8.015 3.159.347 1.658 3.411 2.189 4.887.589 1.635 3.46 2.546 4.179.523.773-2.175.162-5.324.795-7.556.246-.869 1.523-2.188 3.259-2.018 3.613.353 2.771 4.6 3.567 6.113 1.542 2.929 5.49 1.209 5.851-1.164.614-4.041-2.669-7.376.524-11.554 1.176-1.538 2.995-2.186 3.819-4.031 1.557-3.487 1.879-8.724.093-12.163Z"/><path d="M329.113 231.396c-25.012 0-45.655-3.485-61.356-10.358-15.489-6.779-29.09-18.941-40.426-36.15-11.331-17.2-17.076-39.65-17.076-66.728 0-36.032 10.085-64.024 29.975-83.201 19.931-19.215 48.696-28.958 85.498-28.958 28.82 0 51.691 5.571 67.979 16.559 15.197 10.255 26.914 25.949 34.869 46.689l-56.53 12.01c-2.066-5.65-4.224-9.888-6.559-12.894-4.434-5.79-9.959-10.325-16.405-13.46-6.436-3.128-13.696-4.713-21.58-4.713-17.867 0-31.775 6.995-41.338 20.79-7.199 10.185-10.709 25.476-10.709 46.716 0 26.248 4.218 43.925 12.895 54.041 8.71 10.16 21.015 15.312 36.572 15.312 15.043 0 26.676-4.198 34.576-12.478 6.905-7.237 12.13-17.451 15.559-30.401l56.246 16.234c-4.166 14.875-10.401 27.539-18.563 37.688-8.788 10.926-19.849 19.285-32.876 24.846-13.142 5.61-30.216 8.454-50.749 8.454Z" style="fill:#fff"/><path d="M325.727 10.002c28.009 0 50.127 5.341 65.741 15.874 13.428 9.062 24.037 22.646 31.613 40.452l-48.539 10.313c-1.84-4.467-3.783-8-5.878-10.704-4.829-6.299-10.828-11.221-17.835-14.628-6.985-3.394-14.834-5.115-23.328-5.115-19.244 0-34.25 7.563-44.604 22.48-7.699 10.913-11.443 26.95-11.443 49.026 0 27.244 4.533 45.773 13.857 56.644 9.505 11.087 22.832 16.709 39.61 16.709 16.179 0 28.785-4.615 37.47-13.716 6.65-6.97 11.817-16.434 15.411-28.206l48.52 14.004c-3.979 12.71-9.58 23.602-16.7 32.455-8.371 10.408-18.912 18.373-31.33 23.674-12.642 5.397-29.188 8.133-49.179 8.133-24.456 0-44.56-3.372-59.753-10.023-14.769-6.463-27.785-18.133-38.689-34.686-10.893-16.535-16.416-38.245-16.416-64.527 0-17.647 2.463-33.391 7.321-46.795 4.756-13.122 11.966-24.402 21.43-33.526 19.159-18.472 46.991-27.838 82.721-27.838m0-8q-57.075 0-88.274 30.079-31.198 30.078-31.198 86.08-.001 42.003 17.735 68.928 17.735 26.923 42.162 37.614 24.424 10.693 62.961 10.694 31.762 0 52.319-8.775c20.557-8.775 25.177-14.522 34.423-26.018q13.865-17.241 20.315-42.953l-64.009-18.474q-4.837 21.401-15.559 32.638-10.724 11.24-31.682 11.239-21.607 0-33.536-13.916-11.933-13.915-11.931-51.437-.002-30.29 9.996-44.437 13.219-19.068 38.051-19.069 10.963 0 19.831 4.311 8.865 4.312 14.994 12.316 3.708 4.774 7.094 15.087l64.492-13.702q-12.417-35.716-37.97-52.961-25.557-17.241-70.216-17.243Z"/></svg>