<?xml version="1.0" encoding="UTF-8"?>
<svg xmlns="http://www.w3.org/2000/svg" version="1.1" viewBox="0 0 1024 601">
  <!-- Generator: Adobe Illustrator 29.2.1, SVG Export Plug-In . SVG Version: 2.1.0 Build 116)  -->
  <defs>
    <style>
      .st0 {
        display: none;
      }
    </style>
  </defs>
  <g id="Layer_6" class="st0">
    <path d="M294.9,396.3c-.3.7,4.8,2,5.4,2.3,2.9,1.6,4.6,2.2,4.9,2.5.8.8.8-.3,1.4.9.3.5.7,2.2,1,2.5.4.4,1.6-.4,2.2.7,1.4,2.9.8,8.7.7,11.8,0,2.7.4,6.4-.2,8.9-.1.6-1,1.5-.2,1.9.8.4,1.9,0,1.9-.5,0-.5-.7-1.1-.8-1.7-.4-2.2,0-5,0-7.3,0-3.6-.3-8,.2-11.6,0-.3.2-.7.3-1,1.1,0,1.5.9,1.7,1.4.7,1.7.4,3.6.4,5.4,0,8.5,0,17,0,25.4,0,1-1.8,3.1-.3,3.8,1,.5,2.3,0,2.4-.7,0-.8-1-2.2-1.1-3.2-.5-4.1.2-9,.2-13.2,0-3.8-.7-7.9.2-11.7,0-.4.8-2.5,1.1-2.6h.5c.9.4,1,4,.9,4.8,0,3.3,0,6.6,0,9.8,0,1.7.3,5.1-.4,6.6-.2.5-.9,1-.8,1.5.1,1.1,3.6,1.2,2.9-.6-.1-.3-.6-.7-.8-1-.6-1.2,0-3.3,0-4.5,0-5.3-.5-10.9.8-16.2.2-.6.8-2.8,1.4-3.1.4-.2.9,0,1.2.2.4.4.8,1.6.9,2.1.7,5.1-.5,10.7,0,15.7-.5,5.7.7,11.8,0,17.4-.2,1.4-1.5,2.9-1.3,4.3.2,1,1.7,1.6,3.2,1.1,2.1-.8,0-2.8-.4-3.9-.3-1.1-.1-2.3-.2-3.5-.4-7.6-.2-15.6.2-23.2.1-2.1,0-6.6,1.5-8.3,1.1-1.1,1.6.4,1.7,1,.2.9,0,1.4,0,2.2,0,3.3.2,6.6-.3,9.9l.4.4c2,.2.9-.7.8-1.3,0-.2.2-.4.2-.6,0-4.1-.6-9.1,0-13.1,0-.4.7-2.4.9-2.6.7-.8,1.9.2,2,.7,0,.3,0,.6,0,.9.3,1.1.8,1.4.7,2.6,0,1.3,0,3.7-.4,4.9-.2.5-1.1,1.1-.3,1.6.6.4,1.7.4,2.2,0,.6-.6-.4-1.5-.5-2.2-.4-2.3-.3-7.1.4-9.4.1-.5.9-3.5,2.5-2.4.3.2,1,1.5,1,1.7,0,.3-.3.7-.3,1,0,1,2,.9,1.9,0,0-.4-.5-.7-.6-1.1-.2-.8.3-.9.7-1.5.3-.4.2-.9.7-1.3.8-.7,0-1.5,2.1-2.6.6-.3,1.5-1,2.1-1.2.6-.1,5.4-1.9,5.7-2.1l-54.7,1ZM315.1,472.3l-.3-2c.4.3.9,1.8.3,2ZM324.4,480c.1.4,1,2.9.3,2.9-.7-.9-.2-2.2-.6-3.3.2,0,.2.3.3.4ZM323.9,428.7l-.2-1.7c.2-1.4.1-2.8.4-4.2,0-.2,0-.8.3-.8l-.5,6.6Z"/>
    <g id="_x35_suutx">
      <g>
        <path d="M548.5,397.3c-.8-.8,3.8-4,4.4-4.6,6-5.7,12.6-13.9,15.2-21.8s-1.1-4.5-4.7-1.6c-6.5,5.3-13.8,9.3-22,11.5s-19.4.6-22.3,11.8,2.4,14.9,2.9,22.8c.7,10.6-13.1,11-13.9,2.2s2.1-10.7,3.1-15.6c1.7-8.5,2.9-20.6-3.5-27.5s-9-4.1-11,1c-3,7.7,5.4,22-.6,27.2s-9,.9-9.7-3.5c-1.1-6.4,2.9-16.3,3.4-23.3,1.2-18.3-9.3-26-18.8-39.4-.8-1.1-3.7-5-4-5.8s.3-.5.8-.4c1.3.2,2.8.9,4.2,1.2,15.5,2.7,29.6-2.1,39-14.8s7.1-13.9,13-20.2,6.3-6.5,10.1-2.8l65.5,65.5c1.4,1.6,2.1,2.8,1.9,5s-4.2,6.4-5.8,8.1c-12.6,13.9-28.2,23.1-47.2,24.9Z"/>
        <path d="M670.4,202.9c14.2-1.3,20.1,10.7,15.8,23-7.4,21.3-32.8,35.7-48.2,50.6s-12.3,24.2-8.7,38.4c1.5,5.8,6.3,13.8,3,19.4s-8.1,8.8-10.2,10.3c-5.2,3.7-9.6-3-12.8-6.2-17-16.8-33.7-33.8-50.7-50.7-2.5-2.5-10.1-8.3-10.2-11.9s2.3-4.4,3.8-5.8c3.5-3.4,7.6-7.4,12.9-6.9s12.9,3.4,19.9,3.7c33,1.8,39.2-23.6,56.8-44.2,6.8-7.9,17.7-18.8,28.5-19.8Z"/>
        <path d="M569.6,308c14.3,14.1,28.7,28.3,42.5,42.9,1.9,3.9-2.3,6.3-5.5,4l-67.5-67c-2.3-2.9-1.1-6.5,3-5.8s4.5,3.3,5.7,4.4c7.4,6.8,14.6,14.5,21.8,21.6Z"/>
      </g>
    </g>
  </g>
  <g id="Layer_2">
    <g>
      <g id="Letter_S">
        <path d="M631,288.9h0c-3.6-6.9-9.4-12.7-17.3-17.4-8.1-4.6-21.2-9.2-39.5-13.8-7.4-1.8-12.2-3.6-14.2-5.8-2-2-3.1-4.1-3.1-6.7s1.3-6.4,3.6-8.7c2.5-2.3,6.1-3.6,11-3.6s10.7,1.6,14,4.8,5.6,8.4,6.6,15.5l39.7-2.6c-1.6-16.3-7.1-28.1-16.3-35.7-9.2-7.4-22.4-11.2-39.8-11.2s-25.3,2-33.6,6.1-14.3,9.7-18.3,17c-1.2,2.1-2.3,4.3-3.1,6.6,11.4,15,18.1,33.7,18.6,54.2,7.6,4.6,17.6,8.4,29.8,11.7,11.2,3,18.4,5.9,21.6,9.1,3.1,3.1,4.6,6.9,4.6,10.9s-1.6,8.1-4.9,11.4-7.9,4.9-14,4.9-14.3-3.1-18.6-9.5c-2.6-4-4.4-9.7-5.3-17.1l-15.6,1.2c-6.9,30.9-29.3,55.8-58.3,66,0,.8,0,1.5.3,2.1.8,2,3.1,1.8,4,0,0-.2.2-.5.3-.8.3.2.7.3,1.3.5-.5,2.1-.8,4.4-.3,6.3.8,3,4.1,2.6,5.1,0,1-2.6,0-5.6-.5-8.4.2,0,.5-.2,1-.2,1,0,1.3.5,2,1,0,1.2,0,2.1.8,2.6,1.3,1.2,2.8,0,3.5-1.6.5-1.2.5-2.1.5-3.3s.2-.3.3-.5c1.2-.7,3.1,0,4.3-.2.5,0,1.5-1,1.6-1.2.8-1,.7-1.6,1.2-2.6.2-.5.5-1.2.8-1.5.3,0,1-.2,1.5-.5,1.3-.7,2.6-2.3,3.6-4.1.5.7,1.2,1,2,.5,1.5-.8,2.8-3,4.8-4,.2.7.2,1.3.2,1.8,0,1.6-2.6,8.9.2,8.9s2-3.3,1.6-4.8c-.2-1.3-1.8-4.9-.7-5.9.3-.2,1,0,1.3.2,2.6,1.2,4,4.4,3.8,7.4-.3,4-4.4,9.9-1.5,13.5,1.2,1.5,3.6,1.5,4.6-.2,2.3-3.3-.8-7.6-1.2-11.2v-2.8c0-.3.7-.7.8-1.2.3-.8.5-4.8,1.8-4.6,1.5.3-.7,5.6,1,6.9,1.2,1,2.1-1.5,2.3-2.5.2-1.3-.3-6.3,0-6.9h0l.5.5c.5,1.2,1.5,2.1,2.6,3.6,1.6,2.1,2.6,5.1,6.9,6.4,1.5.5,3.6.7,4.9,1.3.2,0,.5.3.8.5.2,1,.5,2,1,3.1.3,1,1.2,3.5,2.1,2.3.7-.7,1.3-2,2-3.3.3-.2.8-.5,1.3-1,.3-.2.5-.7,1-1.2h.3c1,0,1.5.7,2.6.5,1.3-.3,2-2.5,3-2.8,2-.5,2.8,4.6,5.6,2.1l.3-.3c1.5,6.6,2.3,12.8,1,17.4-2.3,8.1-12.7,12.2-11.7,21.9.8,7.9,8.6,10.5,11.9,4.6,3.6-6.4,1.2-12.3,1.8-19.3,1.2-10.7,7.4-22.9,15.5-25.5,5.9-2,7.4,4.4,4.3,10.2-1.2,2.1-3.5,3-3.3,6.4.2,3.3,3.3,5.8,5.4,4.9,3.6-1.3,2.5-8.9,2.8-12.5.7-10,4-13.7,10-17,1.6-.7,3.3-1.3,4.8-2.1.3,0,.5-.3.8-.5.5-.2,1.3-.5,1.8-.7v-.2c7.4-4.4,13.3-10.4,17.6-17.9,4.8-8.6,7.2-17.8,7.2-27.8s-1.8-16.3-5.4-23.2h0l.5-.3Z"/>
      </g>
      <g id="Letter_N">
        <path d="M359.9,289c0-18.4,5.3-35.6,14.5-49.9v-35.7h-38.7v86.9l-50-86.9h-38.4v148.5c-.2,4.4-.2,6.9,0,8.6h0c.2,2,.8,2.8,1.8,4.4,1,1.5.5,3.8.8,5.1.3,1.2,1.2,1.8,2.1,1.3,1.3-.7.8-2,3.1-1.2,1.5.5,1.3,4.1,1.3,5.4s-.2,3.3-.3,4.6c-.2,1.6-1.2,3,0,4.6,1,1.6,3.1,1.8,4.3.2,1.3-1.6,0-3.3,0-5.1-.3-3.3,2.3-6.9,3-10.7,0,0,.2-1.3.5-2.1.5.8,1.3,1.2,2.5.7,1.6,4.4,2,6.3,2,8.6,0,4-5.6,9.9-1.8,13.5,1.5,1.5,4.4,1.5,5.8-.2,2.8-3.3-1-7.6-1.5-11.2,0-.5-.2-2.3,0-2.8,0-.3.5-2.5.8-3,.3-.8,1-3.1,2.5-2.8,1.8.3-1,5.6,1.2,6.9,1.3,1,2.8-1.5,3-2.5.2-1.3-.5-6.3,0-6.9,0-.2.3-.2.5-.2,1.3,0,1.2,3.3,4.4.8,2.1-1.6,2.6-4.9,2.8-7.6h.2v-86.1l49.7,86.3h0c2,4.4,3.8,9.1,4.6,12.5.5,2.8,0,2.5-.2,4.9-.5,4.4,4.6,5.6,5.9,1.8.7-2.1-1.2-3.5-.5-5.6,1,0,1.6-.2,2.5-.8,1.5-1.5,2-5.4,4.4-4.9,1,3,3.8,6.1,3.5,9.5-.2,1.6-1.3,3.3,0,5.1,1.2,1.5,3.3,1.5,4.1-.2,1-1.6,0-3,0-4.6-.2-1.3-.3-3.1-.3-4.6s-.2-4.9,1.3-5.4c2.3-.8,1.6,1.8,3.1,2.5,1,.5,2.3-.2,2.6-1.3,0-.5.2-1.2.2-2,0,0,.2.2.3.3,2.8,2.5,3.6-2.8,5.8-2.1,1,.2,1.8,2.3,3.1,2.8.7,2,1.2,4,1.3,5.6.5,6.4-5.9,14-2.8,19.9,2.6,4.8,8.9,3,9.7-2.5,1-5.9-2.5-8.7-3.8-13.5-.8-3-1-6.3-.8-9.5,1.5,1,2.3,3.6,3.5,4.8,0,1.3.5,2.5,2.8,2.5s1.6-.7,2-1.5c.5-1.3,1.2-6.9,3.3-7.1.7,0,1.5,2.3,1.6,2.8.7,2.3,1.8,7.4,1.3,9.5-.5,2-2.8,4.8-.3,6.6,2.1,1.5,5.6.5,6.1-1.6.2-1.5-1.5-4.1-2-5.8-.7-2-.7-4,.5-5.8,1.8.2,1,2.5,1.3,3.5.3,1.2,2,1.8,2.3.3.3-1.6,0-3.8.3-5.4,0-.7.8-1.6,1.8-1.5,2,.2,1.5,3.3,2,4.4,1,2.1,3.1,1,3.3-.8v-2c-29.3-15.1-49.4-46.1-49.4-81.8h-.3l-.2-.7Z"/>
      </g>
      <g id="Letter_C">
        <g>
          <path d="M503.5,312.2l-.2.3s-.2.3-.3.5c.3-.5.5-.7.5-.8Z"/>
          <path d="M503,312.9c0-.2.3-.3.3-.5s.2-.2.2-.3c0,0-.2.3-.5.8Z"/>
          <path d="M526.7,311.6c-.3,0-1-.2-1.6.5,0-.7-.2-1.2-.3-1.3-.3-.5-.8-.8-1.5-.8s-2,0-5.1,7.4c-.7,1.5-1.8,3.8-2.8,5.9,0,0-.2,0-.3-.2,4.3-7.9,4.3-8.7,4.4-9.2,0-.8,0-2.3-1.2-2.6-1.2-.3-1.8.7-2.5,1.8,0,.2-.3.7-.7,1.2,0-1.2.3-3,1-6.1.2-1.3.5-2.5-.8-3h-.5c0-1.2-.2-1.6-1-2-1.3-.5-2,1.2-2.1,1.6s-1.3,2.8-2.8,5.9c-.5-.5-1-.5-1.6-.5s-1.2.5-1.3,1.2l-2.1,4.6h-.7c.3-.7,1-1.5,1.3-2.1,0-.2.3-.3.3-.5.3-.5.7-1.2.3-2l-.3-.8h-1c-.5,0-.7,0-1.2.7h0c0,.2-.3.5-.5.7-.5.8-1.6,2.1-3,3.8,0-.5,0-.8-.5-1.2-.2-.2-1.2-.8-2.3.2-2.1,2-5.9,5.8-7.6,7.2-9.5,8.7-20.9,13.5-32.9,13.8-10.9.3-21.7-3.1-30.6-9.7-12.8-9.5-23.9-28.1-16-51.7,5.1-15.3,17.8-26.5,33.9-30.3,17.3-4.1,35.2,1.3,46.9,14l1.5,1.6.8-2.1c.3-1.2.2-2,0-2.8,1,1.2,2,2.6,2.8,4,1.2,1.6,2.1,3,3,3.8s1.8,1.6,3.1,1c1.2-.7.8-2.1.7-2.6h0c0-.3-.2-.7-.3-.8h.8c0-.2,3.1,5.1,3.1,5.1.3.5.8,1,1.5,1,.2,1.8,1,2.8,2.1,3,.7,0,1.2,0,1.5-.7.7-.8.3-1.8,0-2.8,0-.2-.2-.7-.3-1.2,1.6,2.3,4.3,6.1,5.4,7.2.8.7,1.5.7,2,.3.8-.5,1.3-1-.7-7.2h.2c1.3-1,.7-3,.3-4.1-.8-2.5-2.6-5.8-3.8-7.4-.3-.5-.8-1.2-2-2.6-.2-.2-.3-.5-.5-.7h0l13.5,13.3.7,1.5c.5-.3,1.3-1,1.6-2.3,1-4.8-4.9-15.3-11.2-23.4-.7-.8-1.3-1.6-2-2.5-6.1-7.9-9.7-12.8-22.6-20.1-9.9-5.6-18.4-8.9-28-10.5-29.3-4.9-59.3,6.3-78,29.1-8.2,10.2-14,21.9-16.6,34.7-3,13.8-2.3,28.3,1.6,43.1h0c8.4,26.2,16.8,34.4,32.6,45.9h0c10.5,7.4,23.2,14.2,44.8,14.2s6.4,0,9.9-.5c14.6-1.2,35.7-9.1,49.5-23.9l.3-.3c4.1-4.4,5.3-5.6,7.7-8.9,1.6-2.1,9.1-13.5,10.2-17.8,0-.2.3-1,.7-1.8,1-2.8,1.6-4.3,1.6-4.4,0-1.8.2-3.6-1.2-4.1h0v.2ZM522.7,316.4c0,.2-.2.5-.3.8h-1c.2-.3.3-.7.5-1.2l.8.5h0v-.2ZM518.1,325.7c1-1.8,2-3.5,2.6-5.1-1,2-1.8,4.1-2.3,4.4-.2,0-.3.3-.3.5h0v.2ZM516.8,328.2c0,.2-.3.5-.3.7,0-.2.2-.5.3-.7ZM503.5,312.2l-.2.3s-.2.3-.3.5c.3-.5.5-.7.5-.8Z"/>
        </g>
      </g>
    </g>
  </g>
  <g id="Layer_7">
    <g id="HHjoEO">
      <g>
        <path d="M93.9,789.9c9.4,9.6-11.1,17.1-16.6,21.2-8.4,6.4-11.1,13.4-10.1,24,1.4,15.7,20.2,23.5,31.1,32l-3.5,10.5-15.5,10c9.6-1.2,23.4-7,19-19,13.5,15.5-1.9,24.8-15.7,29.8-12.7,4.5-41.4,7-53.6,2.1s-13.5-10.4-20.8-12.2c-14.7-3.7-33.8,4.8-45-11s-13.3-42.2-1.6-63c11.3-20,55.8-32.4,77.3-30.7,3.6.3,7.2,1.8,11,2,11.6.8,35.8-4.3,44.2,4.3ZM73.3,806.5c2.8.4,22.7-10,20-13-5.9,5.5-14.5,6.8-20,13ZM-10.7,802.5c-8.8,1.5-17.9,7.9-20,17l10.5-11,9.5-6ZM10.3,880.5c-7.4-9.3-20-3.6-29-.5,10.1-.3,18.8-4.1,29,.5Z"/>
        <path d="M367.6,838.2c6.2,6.3,21.1,4.4,28.6,1.8,11.4-3.8,37.2-23.9,42.6-3.5,5,18.8-18.6,12.7-29.1,14-8.9,1.1-16.9,17.2-22.5,23.5-18.6,20.9-57.4,20.8-82.4,14.4-3.5-.9-16.8-4.4-18.1-6.9-2.5-5.2,3.8-6.2,2.3-11.3s-23.4-8-29.2-7.6c-8.8.6-17.9,5.4-26.9,3.6s-4-9-7.3-13.7-6.2-2.8-7.5-4.7-8.7-16.8-9-17.7c-5.3-16,5.3-25.6,20.4-18.4s14.9,15.1,21,14.6,13.2-13.7,12.2-19.8c-1.6-9.8-19.3-9.5-17.6-17.3.5-2.1,11.3-1.8,13.5-1.5,6.7.8,28.1,10,31.8,15.2,4.4,6.2,2.4,12.8,11.8,16.2,19.6,7.1,40.4-6.5,55.7,1.3s5,13.1,9.6,17.9ZM420.3,846.5c4.8.5,16.3,2.2,18-4-4.1,4.4-7.1,2.1-11.3,2.4s-6.2.2-6.7,1.6ZM263.3,856.5l-10.2,1.3-20.8,5.7c6.6.7,12.8-1.1,19.2-2.3l11.8-4.7ZM357.3,879.5c-12.6,2.1-24.7,3.5-37.5,3s-5.1-1-7.9-1.1-3.8-.6-3.5,1c14,1.2,29.9,4.4,43.5,0s5-1.5,5.4-3Z"/>
        <path d="M85.9,843.9c-2.4-3.3-6.5-6.6-7.4-11.2-2.8-14.3,22.4-23.4,34.1-21,2.7.6,5.1,3.1,7.9,4.1,6.5,2.2,14.1,1.3,20.5,4.5s20.3,13.9,21.2,14.8c5,5.1,2.5,12.9-.4,18.5-6.9,13.5-26.2,21-40.8,18.7-12.3-2-28.1-18.6-35.2-28.3ZM119.3,865.5h15.5c.5,0,9.6-3.1,9-5l-9.3,2.7-15.2,2.3Z"/>
        <path d="M369.6,821.2c-11-13.4,5.9-14.6,12.1-18.8s2.9-6,8.2-6.8c8.2-1.3,20.1,3.3,26.5,8.4s8.5,7,6.5,10.5c-2.6,4.2-18.4-2.4-24.9,4.1-3.5,3.5.9,13.4-7.2,13.9s-18.5-8.1-21.1-11.3Z"/>
        <path d="M102,766.7c4.5-.5,22.3,1.4,27.3,2.2,15.2,2.5,10.5,12.4-1.8,14.3-15.6,2.5-21.2-2.7-34.7-5.8-8.5-2,2.9-10.1,9.2-10.7Z"/>
        <path d="M339.3,809.5c-7-1-13.7,2.2-20.2-.3s-9.3-5.9-12.1-7.9.6-5.5,3.3-6.4c6.1-2,7.3,1.7,11.8,3.3,6.9,2.5,17,1.9,17.3,11.2Z"/>
        <path d="M268,877.8c12-1.7,10,9.9,2.8,9.9s-8.9-.7-12.1-1-4.8-3.2-1.4-5.5,9.1-3.1,10.7-3.3Z"/>
      </g>
    </g>
    <path d="M386.7,417.8l-2-.9c-.4,1.5-11.2,1.5-20,1.5l11.5.2c4.1,0,6.5-.3,9.5-.6-6.6,2-24,.8-36.4,1.1-3.3,0-11.1.5-12.2.9-1.7.7,5.4,1,5.6,1.8s-4.4,1.9-8,2.4c-14.7,1.9-56.8,2-77.2,2.6-20.5.6-29.2,1.5-51.9,1s-34.3-1-36.7-2.4,6.9-1.8,6.8-2.6-8.9-1.3-9.1-2.1,5.8-1.2,6.9-1.7-1.4-1.5-.5-2.3c1.7-1.6,10.7-2.3,22.3-2.5,37.7-.5,78,3.5,114.7,1.7,14.5-.7,22-2,39.1-1.8,13.8.2,41.5,1.6,37.6,3.9ZM177.7,421.8c.6-.6-4.7-.8-7-1.1s-1.2-.5-3-.6c.2.8,6.1,1.2,10,1.7ZM325.7,423.8c7.4-.2,13.7-.9,13-2l-4,1c-.7.1-11,.7-9,1ZM267.7,425.2c-5.4,0-10.7,0-16,.2l-25,1,25-.6,16-.6Z"/>
  </g>
  <g id="Layer_10">
    <g>
      <path d="M352,404c.9.2,1.4.4,1.5.6.7,1.6-22.6,2-28.1,3-1.8,2.1,4.2,2.5,13.2,3.1,33.3,2.1,83-1,118.1-1.6,13.7-.2,35.8-.7,47.8.6s5.7,1.6,10,2.3c7.3,1.1,23.1,1.3,25.1,3.4s-3.5,2.2-11.7,2.7c-26.2,1.5-41.3-.5-63.7-.4-6.2,0-15.2.5-15.4,1.8-.3,2,18.6,2,19.8,4.5,2.1,4.2-51.9,5.4-67.4,5.6-31.1.3-60.7-1.9-91.6-2-39.2,0-96.9,3.6-129.6-1.5-23.6-3.7,9.5-6.5,20.9-8.5,11.4-2,.7-2,1.4-3.6,1.1-2.3,27.8-2.4,37.6-3.3s18.9-3.4,28.5-4.7c14.3-1.9,57.1-3.4,74.1-2.9,2.1,0,8.1.6,9.4.9ZM483,416.3c-14.7-.9-38.5-2.4-46.5,1.1l14.4-1.4,32.1.3ZM256.5,425.2c-20.5,0-37.2.7-57.9.3-1.7,0-5.4-.3-5.1.2,16.3.8,33,.7,49.5.2l13.4-.7ZM423,426.8c-28.1-.4-56.3-.4-84-1.7l20.7,1.3c16.6.7,33.4,1.1,50.5.9l12.8-.5Z"/>
      <path d="M516.3,421.9c4.7,3.3-39.4,2.9-40.1,1.5,8-2.5,21-2.4,40.1-1.5Z"/>
      <path d="M386.8,406.9c7,1.9-28.9,2.4-29.8,1.5-2.1-2,23-2.6,29.8-1.5Z"/>
    </g>
  </g>
  <g id="Layer_9">
    <path d="M385.6,403.7c-9.8,0-42.7,2.5-25.9,4.4,11.8,1.3,36.8,1.2,49.6.4,29.9-1.8-8.4-4.9-23.7-4.8Z"/>
    <path d="M573.4,420.8c-6.8-.1-33.6.4-41.1.6-22.9.7-15.8,3.5,2.7,4,23.6.7,32-.8,52.3-1.6,12.8-.6-4.3-2.8-13.9-3Z"/>
  </g>
  <g id="Layer_8" class="st0">
    <g>
      <path d="M567.7,437.2l6-.9c-11.5-.6-55.9-4-61.2-6s16.4-5-4.7-8.1c-40.7-6.1-179.8-5-227.2-2.2s-27.7,1.1-18.3,4.6c-.8,1.1-10.9,1.5-15,1.6-15,.4-69.5-.6-71,4.5s34.4,6.3,49.7,7c32.6,1.5,102.7,1.5,125.9,6.2,16.6,3.3,16,5.1,40.7,7.3,48,4.2,185.2,8.4,218.3-2.7,24.3-8.2-17.7-9.6-43-11.1ZM527.6,433.6c-17.9-1.4-38.6-3-17.1-7.4l-4.1,4.2,21.2,3.2ZM228.4,435.4c-11,.2-21.9-.2-32.1-1.2-5.7-.5-17.5-1.7-16.1-3.5,3.1,0,2.3.9,5.2,1.3,10.9,1.7,24.1,1.5,36,2.3s6.2,0,6.9.9ZM300.7,436.3c25.6.9,78.4-.4,70.3,8.8l-2.9-3.7c-4.9-3.6-45.7-3.3-60.3-4.1s-6.3,0-7-.9ZM519.5,451.6c24.7-.2,48.1-2.3,70.3-4.6-13.7,2.9-42.7,5.7-61.3,5.6-3.5,0-7.9,0-9-1Z"/>
      <path d="M231.9,449.9c2.5.5,1.4,1.4,7.6,1.7,11.2.5,55.3.3,68.2,0,41.9-.9,26.5-7.9-6.2-8.7s-57.2,1.8-72.5,4c-14,2-3,1.9,2.8,3Z"/>
      <path d="M196.3,445.1c.4,2.3,15.1,1.1,22.1,1.4,1.3-2-20-1.9-22.1-1.4Z"/>
    </g>
  </g>
  <g id="Layer_3">
    <path d="M206.4,422.5c-3.2-18.3-17.9-24.9-17.9-24.9,11.7-15.9,26-28.8,28.5-49.9.8-7.1-3-30.9-5.3-38.7-16.7-58.3-81.1-15.8-60,32.4-5.7,1.1-6.2-2.5-7.8-6.6-5.7-14.1-.3-36.2,10.4-47.1-35.7-32.5-80.5,37.5-68.2,68.3,6.4,16.2,57.8,34.9,72.3,48.2,8.8,2.6,1.6-18.2-1.4-20.9,4.4-3.6,10.3,11,11.8,15.7,4.1,6.1,8.8,12.3,12.7,23.9M206.7,317.8l-39.2-24.8c18.5-16,37.1,5.9,39.2,24.8ZM203.5,328.9c9.8,11.9-9.5,53.7-24.3,58.8l-19.4-10c-7.2-15.6,30.9-64.2,43.6-48.9Z"/>
  </g>
  <g id="Layer_5" class="st0">
    <path d="M108.5,398.4l4.9.3,3.1-5.5-16.5-18.8c42.4-.2,28.1,63.7-2.1,14.3l-16.5-16.6c-1.6,24.7,30.4,60.2,53.6,49.6l105-126.4c3.1-16.9-20-43.8-36.9-37.1l-111.5,99.6c-7.6,3.8-19.7-14.8-22.6-22,1-4.8,62.9-50.4,67.1-61,3.9-9.7-17.1-32.6-23.1-41.5-2.8-4.1-2.5-9.2-5.7-13.8-4.8-6.7-38.4-45.5-43.4-48.6-2.7-1.7-4.6-2.9-7.8-1.7-9.5,3.8-11.9,10.1-6.6,19.4,3.2,5.6,36.4,42.9,42.1,47.8,3.9,3.4,8.7,2.8,11.6,5.3,7.3,6.4,31.2,24.2,22.8,33.4-9.7,10.9-63.4,50.3-64.9,61.1-1.5,11.3,42,48.7,47.4,62.1h0Z"/>
  </g>
  <g id="Layer_4" class="st0">
    <path d="M61.6,70.1c-14.4-32.9,29.5-61.9,40.9-22.1,1.5,5.3,4.2,21.6,3.6,26.4-1.7,14.4-11.5,23.2-19.5,34.1l5.6,16.7c63.5,15.6-22.2,40.2-37.7,17-8.9-13.3,19.6-14.2,21.1-19.7-.5-4.3-1.2-9-2.5-13.1-1-3.2-5-13.2-8-10.7,2,1.9,6.9,16,.9,14.3-9.9-9.1-44.9-21.8-49.3-32.9C8.5,59,39,11.3,63.4,33.4c-7.3,7.5-10.9,22.5-7.1,32.1,1.1,2.8,1.4,5.2,5.3,4.5ZM99.1,54c-1.4-12.9-14.1-27.8-26.8-16.9l26.8,16.9ZM96.9,61.6c-8.7-10.4-34.7,22.7-29.8,33.3l13.2,6.8c10.1-3.5,23.3-32,16.5-40.1ZM83.1,145.1c-8.8.4-19.6-2.2-19.7-12.5-11.2,8.9,4.9,13.4,13.5,14.3,1.9.2,6.7,1.3,6.2-1.7Z"/>
  </g>
</svg>