<?xml version="1.0" encoding="UTF-8"?>
<svg id="Layer_1" xmlns="http://www.w3.org/2000/svg" version="1.1" viewBox="0 0 600 360">
  <!-- Generator: Adobe Illustrator 30.1.0, SVG Export Plug-In . SVG Version: 2.1.1 Build 136)  -->
  <g id="yJixID">
    <g>
      <path d="M520.7,357.1l-27.8.5-19.1-35.7-8.1-.2v35.7l-25.5-.3v-96.6h36.1c17.6.1,35.8,5.3,38.5,25.1,1.9,13.6-4.2,25-18.1,31.1l24,40.3h0ZM483.8,302.2c6.7-4.6,7-16.4,1-21s-13-3.2-19.3-2.8l.2,25.7c5.6.4,12.8,1.7,18.1-1.9h0Z"/>
      <path d="M402.3,337.7h-26.6l-4.5,19.8h-26.3c0-.1,28.9-96.7,28.9-96.7h31l29,96.6h-26.9c0,.1-4.5-19.7-4.5-19.7h-.1ZM398.3,319.6l-9.3-40.6-9.3,40.7h18.6Z"/>
      <path d="M581.6,355.7c-20.1,8-43.5,4.7-59.3-9.5l12.2-13.8c8.4,6.7,18.1,10.7,28.9,9,5.9-.9,9.6-4.9,9.9-9.9.3-5.6-3.4-9.3-9-11.3-16.4-5.8-37.5-10.6-38.3-31.4-.4-10.5,4.4-20.4,14.7-25.4,18.1-8.8,40.3-6.5,56.4,7.2l-11.1,13.3c-9.1-8.2-33.1-12.1-33.7.1-.2,4,2.1,7.5,6.2,9l23.5,8.8c9.7,3.6,16.1,11.9,17.5,21.7,1.9,13.8-4.1,26.7-18,32.3h0Z"/>
      <polygon points="333 299.8 333.1 316.8 303.9 317.1 304 339.4 339.9 339.7 339.7 357.5 278.5 357.5 278.5 260.9 311.4 260.8 340.1 260.7 337.5 278.5 304.1 278.6 304 299.8 333 299.8"/>
      <polygon points="271.1 260.9 240.1 321.3 240.1 357.5 214.5 357.5 214.4 321.3 183.5 260.9 211 260.6 227.7 301.8 244.6 260.6 271.1 260.9"/>
      <g>
        <path d="M331.9,202.3c-101.2,3.5-197.8,39.7-272.5,107.4-.4-1.2,0-4.4.8-5.4l20.5-23.5c-32.5-2.7-60.5-15.1-80.6-39.7l37.1-36.1,10.2,8.1c14,11.8,32.2,16.9,50,13.3s24.2-16.7,22.5-32.3c-3.3-31.1-33.8-25.4-57.8-26.2l7.8-47.1,23.3-1.1c14.3-.7,23.1-12,22.8-25.4-.3-11.1-7-19.2-18.3-21.7-21.2-4-41.8,3.9-57.8,19.5L4.5,55.6C37.2,22.6,88.6,13,133.5,24.3c44.9,11.3,55.5,30.9,51.8,65.2-3.2,29.2-21.7,42.9-47.6,53.2,28.1,5.1,49.4,18.3,54.8,46.9-23.5,14.4-46.6,28.7-65.6,49.1,66.8-48.6,132.7-75.1,215.3-84.3,24.9-3.1,49.1-3.3,74.1-2.4,29.6,1.2,58.1,3.8,87.8,10.4l-81,45.1c-30.7-4.2-60.2-6.3-91.2-5.3h0Z"/>
        <path d="M347.6,60.8c-10.1-7-23-6.9-32.5.2-6.7,7.8-8.7,17.3-10.7,27.4-2.1,19-2.4,37.6-2.5,57.3-26.5,6.8-51.2,15.4-77.5,27.2-6.2-42.1-1.5-100.4,24.9-135.4,14-18.4,33.3-30.5,56.2-35,39.7-7.8,82.1,1.5,107,34.8,20,27.1,26.7,62.5,27.1,95-27.6-.9-53.1.2-79.6,2.7,0-19-.9-36.5-3.5-54.3-1.9-7.3-4.1-13.9-9-20.1v.2Z"/>
      </g>
    </g>
  </g>
</svg>