<svg xmlns="http://www.w3.org/2000/svg"
     viewBox="0 0 512 512"
     class="fill-red">
  <!-- HANDLE -->
  <path d="M164.2,469.1c-20.9,23.7-49,36.2-79.3,40.4-9.4-53.8,5.1-101.2,49.9-133.1,19.5-13.9,36.3-28.7,52.9-45.8s20.6-26.2,21.5-44.1c.8-16.8-4.1-32-15.3-44.3s-4.6-15.5,1.6-21.5,5.9-5.5,8.5-5.7,7.3,2.7,10.6,5.1l127.3,94.8-8.4,12c-2.8,4-7,6-11.8,3.7-34.3-15.9-68.3-15.4-92.6,16.8s-34.6,87.6-64.7,121.8ZM111.1,419.6c17.5-15.2,30.8-29.3,45.4-43.3-10.8,2.6-50.1,30.5-45.4,43.3ZM135.8,457.8c4.2-5.5,5-12.1,1.6-18.1s-7.9-9.2-14.2-8.1c-9.6,1.6-15.9,11.9-14,21.1,1.2,6,6.3,10.3,11.1,11.6s11.6-1.3,15.5-6.5Z"
        fill="#940207" />
  <!-- HITLS -->
  <path d="M256.1,244.8c-10.6-9.2-21-17.9-31.3-27.3-2.3-2.3-21.2-19.1-10.7-12.3,18,10.6,70.6,43.4,88.5,53.3,1.2-.5-4.7-6.4-5.7-7.6-12.5-13.4-37.4-33.7-46.3-43.8-1.2-1.5-2.9-3.5-2.4-5.1,1.1-3.7,19.4,4.6,17.1.3-6-8.3-32.5-22.5-32.8-30.1,1.4-3,7.1,1.3,9.1,2.6,42.9,30.1,93.3,66.9,131.5,96.5,3.4,2.6.1,6.1-1.7,8.7-3.1,4.1-8.3,10.7-12,15.3-6.1,8.2-10.6,4.9-17.4,1.7-.5-.2-1.3-.3-.8.4,9.8,10.4,6.3,12.7-5.6,6.1-27.4-16.4-54.5-37-79.2-58.4l-.2-.2ZM304.1,271.9c4,.5.6-3.7-1.3-5-9.8-7-29-22-39.8-28.9-3-1.4-5.1-.3-2.6,2.6,4.8,4.5,11.6,8.6,17.9,13.4,5,3.6,10.2,7.3,14.4,10.4,4.1,2.7,7.7,6.3,11.3,7.5h.1Z"
        fill="#635d5d" />

  <!-- Brush End -->
  <path d="M385.4,111.3c2,0,2.8,2.4,4.4,3.4,1.9,1.7,4.6,2.3,6.1,4.8,2.8,3.5-.2,12.6,6.8,7.1,1.9-1.3,20.2-16.7,22-17.8.5-.3.9-.4,1.2-.2.5.8,0,2-.5,3.2-5.3,13.8-27.1,46.3-33.2,60.5.2.5-13.4,10.9-9.4,6.1,2.7-3.2,22-20.4,25.6-24.7,4.8-4.7,27-38.2,31.6-24.4,1.3,3.9,1.7,8.8,4.8,11.8,3.3,2.3,6.2,3.7,10.7,4.7,6.9.7,14.9-.6,21.5.4,4.5.4,7,.1,5.2,3.7-3.2,6.4-9.4,13-17.5,23.5-22.7,27.2-59.8,70.2-79.3,90.9-6.3,4.6-12.4-2.5-18.8-6.6-5-3.7-11.4-8.5-18.5-13.8-20.5-15.3-42.1-31.3-62.6-46.7-11.9-8.9-18.3-13.6-28.5-21-9.5-6.9-22.8-16-16.4-29.5,3.2-7.3,8.9-14.7,13.6-21.4,9.4-13.3,17.6-25.2,26.5-38.2,6.9-9.5,29.8-35.3,38.8-42.5,7.8-5.7,2.7,14.6,3.3,18.1,0,4.5,1,5.9,2.6,7,1.7,1.1,3.8,1.7,6,.7,2.3-1,4.5-3,6.8-4.1,2-1.1,3.9-1.4,5.9-2.1,2-.9,7.9.2,8.5,2.6.3.9,0,3-.5,4.4-1,3.5-3.7,9.3-6.4,14.8-1.5,3.4-10.3,19.5-2.6,10.9,4.1-4.4,12-15.1,16.2-19.7.6-.7,3.1-3.7,3.5-2.4-.3,5.4-8.9,21.1,3.1,10.7,4.2-3.4,6.4-4.4,3.9,1.9-1.9,5.8-6.5,13.9-7.8,19.1-.1.7,0,1.1.7.7,6-4.8,13.6-17.1,18-20.8,3.9-3.3,1.6,4.1,1.2,6.1-.6,3-2.1,8.3-1.5,10.7,1.5,2.5,6.1-5,8.1-3.6,1.1,1-.8,8,.2,9.4,2.1,1.6-6.5,2.9-3.5,2.8h0Z"
        fill="#f9522c" />

  <path d="M70.3,373.1c-24.4-33.3-33.7-75.4-42.4-115.6-1.7,55.8,13.1,106.2,41.2,154.5.5.8,1.2,2.9,1.5,3.5.4,1-3.6,2.9-4.2,2.1-2.5-3.4-7.5-10.3-10.8-14.2C18.3,359.7-.2,305.1,2.4,247.3c2-43.3,16.2-82.9,39.6-119C79.2,70.8,135,29.2,201.3,11.2c79.4-21.5,164.6-5.3,228,49-34.4-11.9-64.6-23.5-99.2-27.3-83.6-9.2-151.3,19.3-209.9,77-45.7,45-69,105.6-66.2,170.1,1.4,32.1,7.7,61,16.2,93Z"
        fill="#ed1c24" />
  <path d="M455.8,433.3c-64.8,74.4-172.9,101.3-262.7,57.7,20.2,2,40.3,3.4,61.8,1.8,145.9-11.1,245.1-142.9,238.7-286.3,18.7,37.8,22.2,80.5,14.4,121.7-7.5,39.7-26,74.9-52.3,105.1Z"
        fill="#ed1c24" />
</svg>
